<?xml version="1.0" encoding="UTF-8" standalone="no"?>
<svg
   xmlns:dc="http://purl.org/dc/elements/1.1/"
   xmlns:cc="http://creativecommons.org/ns#"
   xmlns:rdf="http://www.w3.org/1999/02/22-rdf-syntax-ns#"
   xmlns:svg="http://www.w3.org/2000/svg"
   xmlns="http://www.w3.org/2000/svg"
   xmlns:xlink="http://www.w3.org/1999/xlink"
   xmlns:sodipodi="http://sodipodi.sourceforge.net/DTD/sodipodi-0.dtd"
   xmlns:inkscape="http://www.inkscape.org/namespaces/inkscape"
   inkscape:version="1.0 (4035a4fb49, 2020-05-01)"
   sodipodi:docname="likelihood_1.svg"
   id="svg430"
   width="460.8pt"
   viewBox="0 0 460.8 345.6"
   version="1.1"
   height="345.6pt">
  <metadata
     id="metadata434">
    <rdf:RDF>
      <cc:Work
         rdf:about="">
        <dc:format>image/svg+xml</dc:format>
        <dc:type
           rdf:resource="http://purl.org/dc/dcmitype/StillImage" />
      </cc:Work>
    </rdf:RDF>
  </metadata>
  <sodipodi:namedview
     inkscape:current-layer="svg430"
     inkscape:window-maximized="1"
     inkscape:window-y="-8"
     inkscape:window-x="-8"
     inkscape:cy="274.83429"
     inkscape:cx="197.31178"
     inkscape:zoom="1.3043419"
     showgrid="false"
     id="namedview432"
     inkscape:window-height="1017"
     inkscape:window-width="1920"
     inkscape:pageshadow="2"
     inkscape:pageopacity="0"
     guidetolerance="10"
     gridtolerance="10"
     objecttolerance="10"
     borderopacity="1"
     bordercolor="#666666"
     pagecolor="#ffffff" />
  <defs
     id="defs4">
    <style
       id="style2"
       type="text/css">
*{stroke-linecap:butt;stroke-linejoin:round;}
  </style>
    <filter
       id="filter1263"
       style="color-interpolation-filters:sRGB;"
       inkscape:label="Light Eraser">
      <feColorMatrix
         id="feColorMatrix1259"
         result="colormatrix"
         values="1 0 0 0 0 0 1 0 0 0 0 0 1 0 0 -212.5 -715.4 -72.1 1000 0 " />
      <feComposite
         id="feComposite1261"
         result="composite"
         k2="1"
         operator="arithmetic"
         in2="colormatrix" />
    </filter>
  </defs>
  <g
     style="filter:url(#filter1263)"
     id="figure_1">
    <g
       id="patch_1">
      <path
         id="path6"
         style="fill:#ffffff;"
         d="M 0 345.6  L 460.8 345.6  L 460.8 0  L 0 0  z " />
    </g>
    <g
       id="axes_1">
      <g
         id="patch_2">
        <path
           id="path9"
           style="fill:#ffffff;"
           d="M 57.6 307.584  L 414.72 307.584  L 414.72 41.472  L 57.6 41.472  z " />
      </g>
      <g
         id="matplotlib.axis_1">
        <g
           id="xtick_1">
          <g
             id="line2d_1">
            <path
               id="path12"
               style="fill:none;stroke:#b0b0b0;stroke-linecap:square;stroke-width:0.8;"
               d="M 57.6 307.584  L 57.6 41.472  "
               clip-path="url(#p5e3319a930)" />
          </g>
          <g
             id="line2d_2">
            <defs
               id="defs16">
              <path
                 style="stroke:#000000;stroke-width:0.8;"
                 id="mc4bab5705d"
                 d="M 0 0  L 0 3.5  " />
            </defs>
            <g
               id="g20">
              <use
                 id="use18"
                 y="307.584"
                 xlink:href="#mc4bab5705d"
                 x="57.6"
                 style="stroke:#000000;stroke-width:0.8;" />
            </g>
          </g>
          <g
             id="text_1">
            <!-- 0 -->
            <defs
               id="defs24">
              <path
                 id="DejaVuSans-48"
                 d="M 31.78125 66.40625  Q 24.171875 66.40625 20.328125 58.90625  Q 16.5 51.421875 16.5 36.375  Q 16.5 21.390625 20.328125 13.890625  Q 24.171875 6.390625 31.78125 6.390625  Q 39.453125 6.390625 43.28125 13.890625  Q 47.125 21.390625 47.125 36.375  Q 47.125 51.421875 43.28125 58.90625  Q 39.453125 66.40625 31.78125 66.40625  z M 31.78125 74.21875  Q 44.046875 74.21875 50.515625 64.515625  Q 56.984375 54.828125 56.984375 36.375  Q 56.984375 17.96875 50.515625 8.265625  Q 44.046875 -1.421875 31.78125 -1.421875  Q 19.53125 -1.421875 13.0625 8.265625  Q 6.59375 17.96875 6.59375 36.375  Q 6.59375 54.828125 13.0625 64.515625  Q 19.53125 74.21875 31.78125 74.21875  z " />
            </defs>
            <g
               id="g28"
               transform="translate(54.41875 322.182437)scale(0.1 -0.1)">
              <use
                 id="use26"
                 xlink:href="#DejaVuSans-48" />
            </g>
          </g>
        </g>
        <g
           id="xtick_2">
          <g
             id="line2d_3">
            <path
               id="path32"
               style="fill:none;stroke:#b0b0b0;stroke-linecap:square;stroke-width:0.8;"
               d="M 129.024 307.584  L 129.024 41.472  "
               clip-path="url(#p5e3319a930)" />
          </g>
          <g
             id="line2d_4">
            <g
               id="g37">
              <use
                 id="use35"
                 y="307.584"
                 xlink:href="#mc4bab5705d"
                 x="129.024"
                 style="stroke:#000000;stroke-width:0.8;" />
            </g>
          </g>
          <g
             id="text_2">
            <!-- 1 -->
            <defs
               id="defs41">
              <path
                 id="DejaVuSans-49"
                 d="M 12.40625 8.296875  L 28.515625 8.296875  L 28.515625 63.921875  L 10.984375 60.40625  L 10.984375 69.390625  L 28.421875 72.90625  L 38.28125 72.90625  L 38.28125 8.296875  L 54.390625 8.296875  L 54.390625 0  L 12.40625 0  z " />
            </defs>
            <g
               id="g45"
               transform="translate(125.84275 322.182437)scale(0.1 -0.1)">
              <use
                 id="use43"
                 xlink:href="#DejaVuSans-49" />
            </g>
          </g>
        </g>
        <g
           id="xtick_3">
          <g
             id="line2d_5">
            <path
               id="path49"
               style="fill:none;stroke:#b0b0b0;stroke-linecap:square;stroke-width:0.8;"
               d="M 200.448 307.584  L 200.448 41.472  "
               clip-path="url(#p5e3319a930)" />
          </g>
          <g
             id="line2d_6">
            <g
               id="g54">
              <use
                 id="use52"
                 y="307.584"
                 xlink:href="#mc4bab5705d"
                 x="200.448"
                 style="stroke:#000000;stroke-width:0.8;" />
            </g>
          </g>
          <g
             id="text_3">
            <!-- 2 -->
            <defs
               id="defs58">
              <path
                 id="DejaVuSans-50"
                 d="M 19.1875 8.296875  L 53.609375 8.296875  L 53.609375 0  L 7.328125 0  L 7.328125 8.296875  Q 12.9375 14.109375 22.625 23.890625  Q 32.328125 33.6875 34.8125 36.53125  Q 39.546875 41.84375 41.421875 45.53125  Q 43.3125 49.21875 43.3125 52.78125  Q 43.3125 58.59375 39.234375 62.25  Q 35.15625 65.921875 28.609375 65.921875  Q 23.96875 65.921875 18.8125 64.3125  Q 13.671875 62.703125 7.8125 59.421875  L 7.8125 69.390625  Q 13.765625 71.78125 18.9375 73  Q 24.125 74.21875 28.421875 74.21875  Q 39.75 74.21875 46.484375 68.546875  Q 53.21875 62.890625 53.21875 53.421875  Q 53.21875 48.921875 51.53125 44.890625  Q 49.859375 40.875 45.40625 35.40625  Q 44.1875 33.984375 37.640625 27.21875  Q 31.109375 20.453125 19.1875 8.296875  z " />
            </defs>
            <g
               id="g62"
               transform="translate(197.26675 322.182437)scale(0.1 -0.1)">
              <use
                 id="use60"
                 xlink:href="#DejaVuSans-50" />
            </g>
          </g>
        </g>
        <g
           id="xtick_4">
          <g
             id="line2d_7">
            <path
               id="path66"
               style="fill:none;stroke:#b0b0b0;stroke-linecap:square;stroke-width:0.8;"
               d="M 271.872 307.584  L 271.872 41.472  "
               clip-path="url(#p5e3319a930)" />
          </g>
          <g
             id="line2d_8">
            <g
               id="g71">
              <use
                 id="use69"
                 y="307.584"
                 xlink:href="#mc4bab5705d"
                 x="271.872"
                 style="stroke:#000000;stroke-width:0.8;" />
            </g>
          </g>
          <g
             id="text_4">
            <!-- 3 -->
            <defs
               id="defs75">
              <path
                 id="DejaVuSans-51"
                 d="M 40.578125 39.3125  Q 47.65625 37.796875 51.625 33  Q 55.609375 28.21875 55.609375 21.1875  Q 55.609375 10.40625 48.1875 4.484375  Q 40.765625 -1.421875 27.09375 -1.421875  Q 22.515625 -1.421875 17.65625 -0.515625  Q 12.796875 0.390625 7.625 2.203125  L 7.625 11.71875  Q 11.71875 9.328125 16.59375 8.109375  Q 21.484375 6.890625 26.8125 6.890625  Q 36.078125 6.890625 40.9375 10.546875  Q 45.796875 14.203125 45.796875 21.1875  Q 45.796875 27.640625 41.28125 31.265625  Q 36.765625 34.90625 28.71875 34.90625  L 20.21875 34.90625  L 20.21875 43.015625  L 29.109375 43.015625  Q 36.375 43.015625 40.234375 45.921875  Q 44.09375 48.828125 44.09375 54.296875  Q 44.09375 59.90625 40.109375 62.90625  Q 36.140625 65.921875 28.71875 65.921875  Q 24.65625 65.921875 20.015625 65.03125  Q 15.375 64.15625 9.8125 62.3125  L 9.8125 71.09375  Q 15.4375 72.65625 20.34375 73.4375  Q 25.25 74.21875 29.59375 74.21875  Q 40.828125 74.21875 47.359375 69.109375  Q 53.90625 64.015625 53.90625 55.328125  Q 53.90625 49.265625 50.4375 45.09375  Q 46.96875 40.921875 40.578125 39.3125  z " />
            </defs>
            <g
               id="g79"
               transform="translate(268.69075 322.182437)scale(0.1 -0.1)">
              <use
                 id="use77"
                 xlink:href="#DejaVuSans-51" />
            </g>
          </g>
        </g>
        <g
           id="xtick_5">
          <g
             id="line2d_9">
            <path
               id="path83"
               style="fill:none;stroke:#b0b0b0;stroke-linecap:square;stroke-width:0.8;"
               d="M 343.296 307.584  L 343.296 41.472  "
               clip-path="url(#p5e3319a930)" />
          </g>
          <g
             id="line2d_10">
            <g
               id="g88">
              <use
                 id="use86"
                 y="307.584"
                 xlink:href="#mc4bab5705d"
                 x="343.296"
                 style="stroke:#000000;stroke-width:0.8;" />
            </g>
          </g>
          <g
             id="text_5">
            <!-- 4 -->
            <defs
               id="defs92">
              <path
                 id="DejaVuSans-52"
                 d="M 37.796875 64.3125  L 12.890625 25.390625  L 37.796875 25.390625  z M 35.203125 72.90625  L 47.609375 72.90625  L 47.609375 25.390625  L 58.015625 25.390625  L 58.015625 17.1875  L 47.609375 17.1875  L 47.609375 0  L 37.796875 0  L 37.796875 17.1875  L 4.890625 17.1875  L 4.890625 26.703125  z " />
            </defs>
            <g
               id="g96"
               transform="translate(340.11475 322.182437)scale(0.1 -0.1)">
              <use
                 id="use94"
                 xlink:href="#DejaVuSans-52" />
            </g>
          </g>
        </g>
        <g
           id="xtick_6">
          <g
             id="line2d_11">
            <path
               id="path100"
               style="fill:none;stroke:#b0b0b0;stroke-linecap:square;stroke-width:0.8;"
               d="M 414.72 307.584  L 414.72 41.472  "
               clip-path="url(#p5e3319a930)" />
          </g>
          <g
             id="line2d_12">
            <g
               id="g105">
              <use
                 id="use103"
                 y="307.584"
                 xlink:href="#mc4bab5705d"
                 x="414.72"
                 style="stroke:#000000;stroke-width:0.8;" />
            </g>
          </g>
          <g
             id="text_6">
            <!-- 5 -->
            <defs
               id="defs109">
              <path
                 id="DejaVuSans-53"
                 d="M 10.796875 72.90625  L 49.515625 72.90625  L 49.515625 64.59375  L 19.828125 64.59375  L 19.828125 46.734375  Q 21.96875 47.46875 24.109375 47.828125  Q 26.265625 48.1875 28.421875 48.1875  Q 40.625 48.1875 47.75 41.5  Q 54.890625 34.8125 54.890625 23.390625  Q 54.890625 11.625 47.5625 5.09375  Q 40.234375 -1.421875 26.90625 -1.421875  Q 22.3125 -1.421875 17.546875 -0.640625  Q 12.796875 0.140625 7.71875 1.703125  L 7.71875 11.625  Q 12.109375 9.234375 16.796875 8.0625  Q 21.484375 6.890625 26.703125 6.890625  Q 35.15625 6.890625 40.078125 11.328125  Q 45.015625 15.765625 45.015625 23.390625  Q 45.015625 31 40.078125 35.4375  Q 35.15625 39.890625 26.703125 39.890625  Q 22.75 39.890625 18.8125 39.015625  Q 14.890625 38.140625 10.796875 36.28125  z " />
            </defs>
            <g
               id="g113"
               transform="translate(411.53875 322.182437)scale(0.1 -0.1)">
              <use
                 id="use111"
                 xlink:href="#DejaVuSans-53" />
            </g>
          </g>
        </g>
        <g
           id="text_7">
          <!-- $\theta$ -->
          <defs
             id="defs118">
            <path
               id="DejaVuSans-Oblique-952"
               d="M 45.515625 34.671875  L 14.453125 34.671875  Q 12.359375 20.0625 14.5 13.875  Q 17.1875 6.25 24.46875 6.25  Q 31.78125 6.25 37.359375 13.921875  Q 42.234375 20.65625 45.515625 34.671875  z M 47.015625 42.96875  Q 48.34375 56.84375 46.625 61.71875  Q 43.953125 69.4375 36.765625 69.4375  Q 29.296875 69.4375 23.828125 61.8125  Q 19.53125 55.671875 16.15625 42.96875  z M 38.1875 76.765625  Q 49.90625 76.765625 54.59375 66.40625  Q 59.28125 56.109375 55.71875 37.84375  Q 52.203125 19.625 43.453125 9.28125  Q 34.765625 -1.125 23.046875 -1.125  Q 11.28125 -1.125 6.640625 9.28125  Q 2 19.625 5.515625 37.84375  Q 9.078125 56.109375 17.71875 66.40625  Q 26.421875 76.765625 38.1875 76.765625  z " />
          </defs>
          <g
             id="g122"
             transform="translate(233.06 335.860562)scale(0.1 -0.1)">
            <use
               id="use120"
               xlink:href="#DejaVuSans-Oblique-952"
               transform="translate(0 0.234375)" />
          </g>
        </g>
      </g>
      <g
         id="matplotlib.axis_2">
        <g
           id="ytick_1">
          <g
             id="line2d_13">
            <path
               id="path126"
               style="fill:none;stroke:#b0b0b0;stroke-linecap:square;stroke-width:0.8;"
               d="M 57.6 307.584  L 414.72 307.584  "
               clip-path="url(#p5e3319a930)" />
          </g>
          <g
             id="line2d_14">
            <defs
               id="defs130">
              <path
                 style="stroke:#000000;stroke-width:0.8;"
                 id="mc483248c4c"
                 d="M 0 0  L -3.5 0  " />
            </defs>
            <g
               id="g134">
              <use
                 id="use132"
                 y="307.584"
                 xlink:href="#mc483248c4c"
                 x="57.6"
                 style="stroke:#000000;stroke-width:0.8;" />
            </g>
          </g>
          <g
             id="text_8">
            <!-- 0.2 -->
            <defs
               id="defs138">
              <path
                 id="DejaVuSans-46"
                 d="M 10.6875 12.40625  L 21 12.40625  L 21 0  L 10.6875 0  z " />
            </defs>
            <g
               id="g146"
               transform="translate(34.696875 311.383219)scale(0.1 -0.1)">
              <use
                 id="use140"
                 xlink:href="#DejaVuSans-48" />
              <use
                 id="use142"
                 xlink:href="#DejaVuSans-46"
                 x="63.623047" />
              <use
                 id="use144"
                 xlink:href="#DejaVuSans-50"
                 x="95.410156" />
            </g>
          </g>
        </g>
        <g
           id="ytick_2">
          <g
             id="line2d_15">
            <path
               id="path150"
               style="fill:none;stroke:#b0b0b0;stroke-linecap:square;stroke-width:0.8;"
               d="M 57.6 274.32  L 414.72 274.32  "
               clip-path="url(#p5e3319a930)" />
          </g>
          <g
             id="line2d_16">
            <g
               id="g155">
              <use
                 id="use153"
                 y="274.32"
                 xlink:href="#mc483248c4c"
                 x="57.6"
                 style="stroke:#000000;stroke-width:0.8;" />
            </g>
          </g>
          <g
             id="text_9">
            <!-- 0.3 -->
            <g
               id="g164"
               transform="translate(34.696875 278.119219)scale(0.1 -0.1)">
              <use
                 id="use158"
                 xlink:href="#DejaVuSans-48" />
              <use
                 id="use160"
                 xlink:href="#DejaVuSans-46"
                 x="63.623047" />
              <use
                 id="use162"
                 xlink:href="#DejaVuSans-51"
                 x="95.410156" />
            </g>
          </g>
        </g>
        <g
           id="ytick_3">
          <g
             id="line2d_17">
            <path
               id="path168"
               style="fill:none;stroke:#b0b0b0;stroke-linecap:square;stroke-width:0.8;"
               d="M 57.6 241.056  L 414.72 241.056  "
               clip-path="url(#p5e3319a930)" />
          </g>
          <g
             id="line2d_18">
            <g
               id="g173">
              <use
                 id="use171"
                 y="241.056"
                 xlink:href="#mc483248c4c"
                 x="57.6"
                 style="stroke:#000000;stroke-width:0.8;" />
            </g>
          </g>
          <g
             id="text_10">
            <!-- 0.4 -->
            <g
               id="g182"
               transform="translate(34.696875 244.855219)scale(0.1 -0.1)">
              <use
                 id="use176"
                 xlink:href="#DejaVuSans-48" />
              <use
                 id="use178"
                 xlink:href="#DejaVuSans-46"
                 x="63.623047" />
              <use
                 id="use180"
                 xlink:href="#DejaVuSans-52"
                 x="95.410156" />
            </g>
          </g>
        </g>
        <g
           id="ytick_4">
          <g
             id="line2d_19">
            <path
               id="path186"
               style="fill:none;stroke:#b0b0b0;stroke-linecap:square;stroke-width:0.8;"
               d="M 57.6 207.792  L 414.72 207.792  "
               clip-path="url(#p5e3319a930)" />
          </g>
          <g
             id="line2d_20">
            <g
               id="g191">
              <use
                 id="use189"
                 y="207.792"
                 xlink:href="#mc483248c4c"
                 x="57.6"
                 style="stroke:#000000;stroke-width:0.8;" />
            </g>
          </g>
          <g
             id="text_11">
            <!-- 0.5 -->
            <g
               id="g200"
               transform="translate(34.696875 211.591219)scale(0.1 -0.1)">
              <use
                 id="use194"
                 xlink:href="#DejaVuSans-48" />
              <use
                 id="use196"
                 xlink:href="#DejaVuSans-46"
                 x="63.623047" />
              <use
                 id="use198"
                 xlink:href="#DejaVuSans-53"
                 x="95.410156" />
            </g>
          </g>
        </g>
        <g
           id="ytick_5">
          <g
             id="line2d_21">
            <path
               id="path204"
               style="fill:none;stroke:#b0b0b0;stroke-linecap:square;stroke-width:0.8;"
               d="M 57.6 174.528  L 414.72 174.528  "
               clip-path="url(#p5e3319a930)" />
          </g>
          <g
             id="line2d_22">
            <g
               id="g209">
              <use
                 id="use207"
                 y="174.528"
                 xlink:href="#mc483248c4c"
                 x="57.6"
                 style="stroke:#000000;stroke-width:0.8;" />
            </g>
          </g>
          <g
             id="text_12">
            <!-- 0.6 -->
            <defs
               id="defs213">
              <path
                 id="DejaVuSans-54"
                 d="M 33.015625 40.375  Q 26.375 40.375 22.484375 35.828125  Q 18.609375 31.296875 18.609375 23.390625  Q 18.609375 15.53125 22.484375 10.953125  Q 26.375 6.390625 33.015625 6.390625  Q 39.65625 6.390625 43.53125 10.953125  Q 47.40625 15.53125 47.40625 23.390625  Q 47.40625 31.296875 43.53125 35.828125  Q 39.65625 40.375 33.015625 40.375  z M 52.59375 71.296875  L 52.59375 62.3125  Q 48.875 64.0625 45.09375 64.984375  Q 41.3125 65.921875 37.59375 65.921875  Q 27.828125 65.921875 22.671875 59.328125  Q 17.53125 52.734375 16.796875 39.40625  Q 19.671875 43.65625 24.015625 45.921875  Q 28.375 48.1875 33.59375 48.1875  Q 44.578125 48.1875 50.953125 41.515625  Q 57.328125 34.859375 57.328125 23.390625  Q 57.328125 12.15625 50.6875 5.359375  Q 44.046875 -1.421875 33.015625 -1.421875  Q 20.359375 -1.421875 13.671875 8.265625  Q 6.984375 17.96875 6.984375 36.375  Q 6.984375 53.65625 15.1875 63.9375  Q 23.390625 74.21875 37.203125 74.21875  Q 40.921875 74.21875 44.703125 73.484375  Q 48.484375 72.75 52.59375 71.296875  z " />
            </defs>
            <g
               id="g221"
               transform="translate(34.696875 178.327219)scale(0.1 -0.1)">
              <use
                 id="use215"
                 xlink:href="#DejaVuSans-48" />
              <use
                 id="use217"
                 xlink:href="#DejaVuSans-46"
                 x="63.623047" />
              <use
                 id="use219"
                 xlink:href="#DejaVuSans-54"
                 x="95.410156" />
            </g>
          </g>
        </g>
        <g
           id="ytick_6">
          <g
             id="line2d_23">
            <path
               id="path225"
               style="fill:none;stroke:#b0b0b0;stroke-linecap:square;stroke-width:0.8;"
               d="M 57.6 141.264  L 414.72 141.264  "
               clip-path="url(#p5e3319a930)" />
          </g>
          <g
             id="line2d_24">
            <g
               id="g230">
              <use
                 id="use228"
                 y="141.264"
                 xlink:href="#mc483248c4c"
                 x="57.6"
                 style="stroke:#000000;stroke-width:0.8;" />
            </g>
          </g>
          <g
             id="text_13">
            <!-- 0.7 -->
            <defs
               id="defs234">
              <path
                 id="DejaVuSans-55"
                 d="M 8.203125 72.90625  L 55.078125 72.90625  L 55.078125 68.703125  L 28.609375 0  L 18.3125 0  L 43.21875 64.59375  L 8.203125 64.59375  z " />
            </defs>
            <g
               id="g242"
               transform="translate(34.696875 145.063219)scale(0.1 -0.1)">
              <use
                 id="use236"
                 xlink:href="#DejaVuSans-48" />
              <use
                 id="use238"
                 xlink:href="#DejaVuSans-46"
                 x="63.623047" />
              <use
                 id="use240"
                 xlink:href="#DejaVuSans-55"
                 x="95.410156" />
            </g>
          </g>
        </g>
        <g
           id="ytick_7">
          <g
             id="line2d_25">
            <path
               id="path246"
               style="fill:none;stroke:#b0b0b0;stroke-linecap:square;stroke-width:0.8;"
               d="M 57.6 108  L 414.72 108  "
               clip-path="url(#p5e3319a930)" />
          </g>
          <g
             id="line2d_26">
            <g
               id="g251">
              <use
                 id="use249"
                 y="108"
                 xlink:href="#mc483248c4c"
                 x="57.6"
                 style="stroke:#000000;stroke-width:0.8;" />
            </g>
          </g>
          <g
             id="text_14">
            <!-- 0.8 -->
            <defs
               id="defs255">
              <path
                 id="DejaVuSans-56"
                 d="M 31.78125 34.625  Q 24.75 34.625 20.71875 30.859375  Q 16.703125 27.09375 16.703125 20.515625  Q 16.703125 13.921875 20.71875 10.15625  Q 24.75 6.390625 31.78125 6.390625  Q 38.8125 6.390625 42.859375 10.171875  Q 46.921875 13.96875 46.921875 20.515625  Q 46.921875 27.09375 42.890625 30.859375  Q 38.875 34.625 31.78125 34.625  z M 21.921875 38.8125  Q 15.578125 40.375 12.03125 44.71875  Q 8.5 49.078125 8.5 55.328125  Q 8.5 64.0625 14.71875 69.140625  Q 20.953125 74.21875 31.78125 74.21875  Q 42.671875 74.21875 48.875 69.140625  Q 55.078125 64.0625 55.078125 55.328125  Q 55.078125 49.078125 51.53125 44.71875  Q 48 40.375 41.703125 38.8125  Q 48.828125 37.15625 52.796875 32.3125  Q 56.78125 27.484375 56.78125 20.515625  Q 56.78125 9.90625 50.3125 4.234375  Q 43.84375 -1.421875 31.78125 -1.421875  Q 19.734375 -1.421875 13.25 4.234375  Q 6.78125 9.90625 6.78125 20.515625  Q 6.78125 27.484375 10.78125 32.3125  Q 14.796875 37.15625 21.921875 38.8125  z M 18.3125 54.390625  Q 18.3125 48.734375 21.84375 45.5625  Q 25.390625 42.390625 31.78125 42.390625  Q 38.140625 42.390625 41.71875 45.5625  Q 45.3125 48.734375 45.3125 54.390625  Q 45.3125 60.0625 41.71875 63.234375  Q 38.140625 66.40625 31.78125 66.40625  Q 25.390625 66.40625 21.84375 63.234375  Q 18.3125 60.0625 18.3125 54.390625  z " />
            </defs>
            <g
               id="g263"
               transform="translate(34.696875 111.799219)scale(0.1 -0.1)">
              <use
                 id="use257"
                 xlink:href="#DejaVuSans-48" />
              <use
                 id="use259"
                 xlink:href="#DejaVuSans-46"
                 x="63.623047" />
              <use
                 id="use261"
                 xlink:href="#DejaVuSans-56"
                 x="95.410156" />
            </g>
          </g>
        </g>
        <g
           id="ytick_8">
          <g
             id="line2d_27">
            <path
               id="path267"
               style="fill:none;stroke:#b0b0b0;stroke-linecap:square;stroke-width:0.8;"
               d="M 57.6 74.736  L 414.72 74.736  "
               clip-path="url(#p5e3319a930)" />
          </g>
          <g
             id="line2d_28">
            <g
               id="g272">
              <use
                 id="use270"
                 y="74.736"
                 xlink:href="#mc483248c4c"
                 x="57.6"
                 style="stroke:#000000;stroke-width:0.8;" />
            </g>
          </g>
          <g
             id="text_15">
            <!-- 0.9 -->
            <defs
               id="defs276">
              <path
                 id="DejaVuSans-57"
                 d="M 10.984375 1.515625  L 10.984375 10.5  Q 14.703125 8.734375 18.5 7.8125  Q 22.3125 6.890625 25.984375 6.890625  Q 35.75 6.890625 40.890625 13.453125  Q 46.046875 20.015625 46.78125 33.40625  Q 43.953125 29.203125 39.59375 26.953125  Q 35.25 24.703125 29.984375 24.703125  Q 19.046875 24.703125 12.671875 31.3125  Q 6.296875 37.9375 6.296875 49.421875  Q 6.296875 60.640625 12.9375 67.421875  Q 19.578125 74.21875 30.609375 74.21875  Q 43.265625 74.21875 49.921875 64.515625  Q 56.59375 54.828125 56.59375 36.375  Q 56.59375 19.140625 48.40625 8.859375  Q 40.234375 -1.421875 26.421875 -1.421875  Q 22.703125 -1.421875 18.890625 -0.6875  Q 15.09375 0.046875 10.984375 1.515625  z M 30.609375 32.421875  Q 37.25 32.421875 41.125 36.953125  Q 45.015625 41.5 45.015625 49.421875  Q 45.015625 57.28125 41.125 61.84375  Q 37.25 66.40625 30.609375 66.40625  Q 23.96875 66.40625 20.09375 61.84375  Q 16.21875 57.28125 16.21875 49.421875  Q 16.21875 41.5 20.09375 36.953125  Q 23.96875 32.421875 30.609375 32.421875  z " />
            </defs>
            <g
               id="g284"
               transform="translate(34.696875 78.535219)scale(0.1 -0.1)">
              <use
                 id="use278"
                 xlink:href="#DejaVuSans-48" />
              <use
                 id="use280"
                 xlink:href="#DejaVuSans-46"
                 x="63.623047" />
              <use
                 id="use282"
                 xlink:href="#DejaVuSans-57"
                 x="95.410156" />
            </g>
          </g>
        </g>
        <g
           id="ytick_9">
          <g
             id="line2d_29">
            <path
               id="path288"
               style="fill:none;stroke:#b0b0b0;stroke-linecap:square;stroke-width:0.8;"
               d="M 57.6 41.472  L 414.72 41.472  "
               clip-path="url(#p5e3319a930)" />
          </g>
          <g
             id="line2d_30">
            <g
               id="g293">
              <use
                 id="use291"
                 y="41.472"
                 xlink:href="#mc483248c4c"
                 x="57.6"
                 style="stroke:#000000;stroke-width:0.8;" />
            </g>
          </g>
          <g
             id="text_16">
            <!-- 1.0 -->
            <g
               id="g302"
               transform="translate(34.696875 45.271219)scale(0.1 -0.1)">
              <use
                 id="use296"
                 xlink:href="#DejaVuSans-49" />
              <use
                 id="use298"
                 xlink:href="#DejaVuSans-46"
                 x="63.623047" />
              <use
                 id="use300"
                 xlink:href="#DejaVuSans-48"
                 x="95.410156" />
            </g>
          </g>
        </g>
        <g
           id="text_17">
          <!-- $L(\theta)$ -->
          <defs
             id="defs309">
            <path
               id="DejaVuSans-Oblique-76"
               d="M 16.796875 72.90625  L 26.703125 72.90625  L 14.203125 8.203125  L 49.703125 8.203125  L 48.09375 0  L 2.6875 0  z " />
            <path
               id="DejaVuSans-40"
               d="M 31 75.875  Q 24.46875 64.65625 21.28125 53.65625  Q 18.109375 42.671875 18.109375 31.390625  Q 18.109375 20.125 21.3125 9.0625  Q 24.515625 -2 31 -13.1875  L 23.1875 -13.1875  Q 15.875 -1.703125 12.234375 9.375  Q 8.59375 20.453125 8.59375 31.390625  Q 8.59375 42.28125 12.203125 53.3125  Q 15.828125 64.359375 23.1875 75.875  z " />
            <path
               id="DejaVuSans-41"
               d="M 8.015625 75.875  L 15.828125 75.875  Q 23.140625 64.359375 26.78125 53.3125  Q 30.421875 42.28125 30.421875 31.390625  Q 30.421875 20.453125 26.78125 9.375  Q 23.140625 -1.703125 15.828125 -13.1875  L 8.015625 -13.1875  Q 14.5 -2 17.703125 9.0625  Q 20.90625 20.125 20.90625 31.390625  Q 20.90625 42.671875 17.703125 53.65625  Q 14.5 64.65625 8.015625 75.875  z " />
          </defs>
          <g
             id="g319"
             transform="translate(28.617188 184.278)rotate(-90)scale(0.1 -0.1)">
            <use
               id="use311"
               xlink:href="#DejaVuSans-Oblique-76"
               transform="translate(0 0.234375)" />
            <use
               id="use313"
               xlink:href="#DejaVuSans-40"
               transform="translate(55.712891 0.234375)" />
            <use
               id="use315"
               xlink:href="#DejaVuSans-Oblique-952"
               transform="translate(94.726562 0.234375)" />
            <use
               id="use317"
               xlink:href="#DejaVuSans-41"
               transform="translate(155.908203 0.234375)" />
          </g>
        </g>
      </g>
      <g
         id="line2d_31">
        <path
           id="path323"
           style="fill:none;stroke:#0000ff;stroke-linecap:square;stroke-width:1.5;"
           d="M 65.570604 -1  L 65.587827 27.958032  L 72.861414 182.50737  L 80.135001 221.251849  L 87.408588 236.532765  L 94.682175 243.565853  L 101.955762 247.0038  L 109.229349 248.709271  L 116.502936 249.538364  L 123.776522 249.915745  L 131.050109 250.061051  L 138.323696 250.090173  L 145.597283 250.064523  L 152.87087 250.016333  L 160.144457 249.962082  L 167.418044 249.909759  L 174.691631 249.86283  L 181.965218 249.822415  L 189.238805 249.788465  L 196.512392 249.760402  L 203.785979 249.737457  L 211.059566 249.718838  L 218.333153 249.70381  L 225.60674 249.691726  L 232.880327 249.682037  L 240.153913 249.674283  L 247.4275 249.668089  L 254.701087 249.663145  L 261.974674 249.659202  L 269.248261 249.656061  L 276.521848 249.653558  L 283.795435 249.651566  L 291.069022 249.64998  L 298.342609 249.648718  L 305.616196 249.647713  L 312.889783 249.646914  L 320.16337 249.646279  L 327.436957 249.645773  L 334.710544 249.645371  L 341.984131 249.645051  L 349.257718 249.644797  L 356.531304 249.644594  L 363.804891 249.644433  L 371.078478 249.644305  L 378.352065 249.644204  L 385.625652 249.644123  L 392.899239 249.644058  L 400.172826 249.644007  L 407.446413 249.643967  L 414.72 249.643934  "
           clip-path="url(#p5e3319a930)" />
      </g>
      <g
         id="patch_3">
        <path
           id="path326"
           style="fill:none;stroke:#000000;stroke-linecap:square;stroke-linejoin:miter;stroke-width:0.8;"
           d="M 57.6 307.584  L 57.6 41.472  " />
      </g>
      <g
         id="patch_4">
        <path
           id="path329"
           style="fill:none;stroke:#000000;stroke-linecap:square;stroke-linejoin:miter;stroke-width:0.8;"
           d="M 414.72 307.584  L 414.72 41.472  " />
      </g>
      <g
         id="patch_5">
        <path
           id="path332"
           style="fill:none;stroke:#000000;stroke-linecap:square;stroke-linejoin:miter;stroke-width:0.8;"
           d="M 57.6 307.584  L 414.72 307.584  " />
      </g>
      <g
         id="patch_6">
        <path
           id="path335"
           style="fill:none;stroke:#000000;stroke-linecap:square;stroke-linejoin:miter;stroke-width:0.8;"
           d="M 57.6 41.472  L 414.72 41.472  " />
      </g>
      <g
         id="text_18">
        <!-- Likelihood function $L(\theta) = |R|^{\frac{1}{m}}$ -->
        <defs
           id="defs356">
          <path
             id="DejaVuSans-76"
             d="M 9.8125 72.90625  L 19.671875 72.90625  L 19.671875 8.296875  L 55.171875 8.296875  L 55.171875 0  L 9.8125 0  z " />
          <path
             id="DejaVuSans-105"
             d="M 9.421875 54.6875  L 18.40625 54.6875  L 18.40625 0  L 9.421875 0  z M 9.421875 75.984375  L 18.40625 75.984375  L 18.40625 64.59375  L 9.421875 64.59375  z " />
          <path
             id="DejaVuSans-107"
             d="M 9.078125 75.984375  L 18.109375 75.984375  L 18.109375 31.109375  L 44.921875 54.6875  L 56.390625 54.6875  L 27.390625 29.109375  L 57.625 0  L 45.90625 0  L 18.109375 26.703125  L 18.109375 0  L 9.078125 0  z " />
          <path
             id="DejaVuSans-101"
             d="M 56.203125 29.59375  L 56.203125 25.203125  L 14.890625 25.203125  Q 15.484375 15.921875 20.484375 11.0625  Q 25.484375 6.203125 34.421875 6.203125  Q 39.59375 6.203125 44.453125 7.46875  Q 49.3125 8.734375 54.109375 11.28125  L 54.109375 2.78125  Q 49.265625 0.734375 44.1875 -0.34375  Q 39.109375 -1.421875 33.890625 -1.421875  Q 20.796875 -1.421875 13.15625 6.1875  Q 5.515625 13.8125 5.515625 26.8125  Q 5.515625 40.234375 12.765625 48.109375  Q 20.015625 56 32.328125 56  Q 43.359375 56 49.78125 48.890625  Q 56.203125 41.796875 56.203125 29.59375  z M 47.21875 32.234375  Q 47.125 39.59375 43.09375 43.984375  Q 39.0625 48.390625 32.421875 48.390625  Q 24.90625 48.390625 20.390625 44.140625  Q 15.875 39.890625 15.1875 32.171875  z " />
          <path
             id="DejaVuSans-108"
             d="M 9.421875 75.984375  L 18.40625 75.984375  L 18.40625 0  L 9.421875 0  z " />
          <path
             id="DejaVuSans-104"
             d="M 54.890625 33.015625  L 54.890625 0  L 45.90625 0  L 45.90625 32.71875  Q 45.90625 40.484375 42.875 44.328125  Q 39.84375 48.1875 33.796875 48.1875  Q 26.515625 48.1875 22.3125 43.546875  Q 18.109375 38.921875 18.109375 30.90625  L 18.109375 0  L 9.078125 0  L 9.078125 75.984375  L 18.109375 75.984375  L 18.109375 46.1875  Q 21.34375 51.125 25.703125 53.5625  Q 30.078125 56 35.796875 56  Q 45.21875 56 50.046875 50.171875  Q 54.890625 44.34375 54.890625 33.015625  z " />
          <path
             id="DejaVuSans-111"
             d="M 30.609375 48.390625  Q 23.390625 48.390625 19.1875 42.75  Q 14.984375 37.109375 14.984375 27.296875  Q 14.984375 17.484375 19.15625 11.84375  Q 23.34375 6.203125 30.609375 6.203125  Q 37.796875 6.203125 41.984375 11.859375  Q 46.1875 17.53125 46.1875 27.296875  Q 46.1875 37.015625 41.984375 42.703125  Q 37.796875 48.390625 30.609375 48.390625  z M 30.609375 56  Q 42.328125 56 49.015625 48.375  Q 55.71875 40.765625 55.71875 27.296875  Q 55.71875 13.875 49.015625 6.21875  Q 42.328125 -1.421875 30.609375 -1.421875  Q 18.84375 -1.421875 12.171875 6.21875  Q 5.515625 13.875 5.515625 27.296875  Q 5.515625 40.765625 12.171875 48.375  Q 18.84375 56 30.609375 56  z " />
          <path
             id="DejaVuSans-100"
             d="M 45.40625 46.390625  L 45.40625 75.984375  L 54.390625 75.984375  L 54.390625 0  L 45.40625 0  L 45.40625 8.203125  Q 42.578125 3.328125 38.25 0.953125  Q 33.9375 -1.421875 27.875 -1.421875  Q 17.96875 -1.421875 11.734375 6.484375  Q 5.515625 14.40625 5.515625 27.296875  Q 5.515625 40.1875 11.734375 48.09375  Q 17.96875 56 27.875 56  Q 33.9375 56 38.25 53.625  Q 42.578125 51.265625 45.40625 46.390625  z M 14.796875 27.296875  Q 14.796875 17.390625 18.875 11.75  Q 22.953125 6.109375 30.078125 6.109375  Q 37.203125 6.109375 41.296875 11.75  Q 45.40625 17.390625 45.40625 27.296875  Q 45.40625 37.203125 41.296875 42.84375  Q 37.203125 48.484375 30.078125 48.484375  Q 22.953125 48.484375 18.875 42.84375  Q 14.796875 37.203125 14.796875 27.296875  z " />
          <path
             id="DejaVuSans-32" />
          <path
             id="DejaVuSans-102"
             d="M 37.109375 75.984375  L 37.109375 68.5  L 28.515625 68.5  Q 23.6875 68.5 21.796875 66.546875  Q 19.921875 64.59375 19.921875 59.515625  L 19.921875 54.6875  L 34.71875 54.6875  L 34.71875 47.703125  L 19.921875 47.703125  L 19.921875 0  L 10.890625 0  L 10.890625 47.703125  L 2.296875 47.703125  L 2.296875 54.6875  L 10.890625 54.6875  L 10.890625 58.5  Q 10.890625 67.625 15.140625 71.796875  Q 19.390625 75.984375 28.609375 75.984375  z " />
          <path
             id="DejaVuSans-117"
             d="M 8.5 21.578125  L 8.5 54.6875  L 17.484375 54.6875  L 17.484375 21.921875  Q 17.484375 14.15625 20.5 10.265625  Q 23.53125 6.390625 29.59375 6.390625  Q 36.859375 6.390625 41.078125 11.03125  Q 45.3125 15.671875 45.3125 23.6875  L 45.3125 54.6875  L 54.296875 54.6875  L 54.296875 0  L 45.3125 0  L 45.3125 8.40625  Q 42.046875 3.421875 37.71875 1  Q 33.40625 -1.421875 27.6875 -1.421875  Q 18.265625 -1.421875 13.375 4.4375  Q 8.5 10.296875 8.5 21.578125  z M 31.109375 56  z " />
          <path
             id="DejaVuSans-110"
             d="M 54.890625 33.015625  L 54.890625 0  L 45.90625 0  L 45.90625 32.71875  Q 45.90625 40.484375 42.875 44.328125  Q 39.84375 48.1875 33.796875 48.1875  Q 26.515625 48.1875 22.3125 43.546875  Q 18.109375 38.921875 18.109375 30.90625  L 18.109375 0  L 9.078125 0  L 9.078125 54.6875  L 18.109375 54.6875  L 18.109375 46.1875  Q 21.34375 51.125 25.703125 53.5625  Q 30.078125 56 35.796875 56  Q 45.21875 56 50.046875 50.171875  Q 54.890625 44.34375 54.890625 33.015625  z " />
          <path
             id="DejaVuSans-99"
             d="M 48.78125 52.59375  L 48.78125 44.1875  Q 44.96875 46.296875 41.140625 47.34375  Q 37.3125 48.390625 33.40625 48.390625  Q 24.65625 48.390625 19.8125 42.84375  Q 14.984375 37.3125 14.984375 27.296875  Q 14.984375 17.28125 19.8125 11.734375  Q 24.65625 6.203125 33.40625 6.203125  Q 37.3125 6.203125 41.140625 7.25  Q 44.96875 8.296875 48.78125 10.40625  L 48.78125 2.09375  Q 45.015625 0.34375 40.984375 -0.53125  Q 36.96875 -1.421875 32.421875 -1.421875  Q 20.0625 -1.421875 12.78125 6.34375  Q 5.515625 14.109375 5.515625 27.296875  Q 5.515625 40.671875 12.859375 48.328125  Q 20.21875 56 33.015625 56  Q 37.15625 56 41.109375 55.140625  Q 45.0625 54.296875 48.78125 52.59375  z " />
          <path
             id="DejaVuSans-116"
             d="M 18.3125 70.21875  L 18.3125 54.6875  L 36.8125 54.6875  L 36.8125 47.703125  L 18.3125 47.703125  L 18.3125 18.015625  Q 18.3125 11.328125 20.140625 9.421875  Q 21.96875 7.515625 27.59375 7.515625  L 36.8125 7.515625  L 36.8125 0  L 27.59375 0  Q 17.1875 0 13.234375 3.875  Q 9.28125 7.765625 9.28125 18.015625  L 9.28125 47.703125  L 2.6875 47.703125  L 2.6875 54.6875  L 9.28125 54.6875  L 9.28125 70.21875  z " />
          <path
             id="DejaVuSans-61"
             d="M 10.59375 45.40625  L 73.1875 45.40625  L 73.1875 37.203125  L 10.59375 37.203125  z M 10.59375 25.484375  L 73.1875 25.484375  L 73.1875 17.1875  L 10.59375 17.1875  z " />
          <path
             id="DejaVuSans-124"
             d="M 21 76.421875  L 21 -23.578125  L 12.703125 -23.578125  L 12.703125 76.421875  z " />
          <path
             id="DejaVuSans-Oblique-82"
             d="M 25.203125 64.796875  L 20.21875 38.921875  L 32.90625 38.921875  Q 40.375 38.921875 44.984375 43.046875  Q 49.609375 47.171875 49.609375 53.8125  Q 49.609375 59.125 46.5 61.953125  Q 43.40625 64.796875 37.59375 64.796875  z M 43.3125 35.015625  Q 46.4375 34.28125 48.515625 31.390625  Q 50.59375 28.515625 53.328125 19.921875  L 59.515625 0  L 49.125 0  L 43.40625 18.703125  Q 41.21875 25.921875 38.328125 28.359375  Q 35.453125 30.8125 29.5 30.8125  L 18.609375 30.8125  L 12.59375 0  L 2.6875 0  L 16.890625 72.90625  L 39.109375 72.90625  Q 49.21875 72.90625 54.609375 68.328125  Q 60.015625 63.765625 60.015625 55.171875  Q 60.015625 47.5625 55.421875 41.984375  Q 50.828125 36.421875 43.3125 35.015625  z " />
          <path
             id="DejaVuSans-Oblique-109"
             d="M 89.796875 33.015625  L 83.40625 0  L 74.421875 0  L 80.71875 32.71875  Q 81.109375 34.8125 81.296875 36.328125  Q 81.5 37.84375 81.5 38.921875  Q 81.5 43.3125 79.046875 45.75  Q 76.609375 48.1875 72.21875 48.1875  Q 65.671875 48.1875 60.546875 43.28125  Q 55.421875 38.375 53.90625 30.515625  L 47.90625 0  L 38.921875 0  L 45.3125 32.71875  Q 45.703125 34.515625 45.890625 36.046875  Q 46.09375 37.59375 46.09375 38.8125  Q 46.09375 43.265625 43.65625 45.71875  Q 41.21875 48.1875 36.921875 48.1875  Q 30.28125 48.1875 25.140625 43.28125  Q 20.015625 38.375 18.5 30.515625  L 12.5 0  L 3.515625 0  L 14.203125 54.6875  L 23.1875 54.6875  L 21.484375 46.1875  Q 25.140625 50.984375 30.046875 53.484375  Q 34.96875 56 40.578125 56  Q 46.53125 56 50.359375 52.875  Q 54.203125 49.75 54.984375 44.1875  Q 59.078125 49.953125 64.46875 52.96875  Q 69.875 56 75.875 56  Q 82.90625 56 86.734375 51.953125  Q 90.578125 47.90625 90.578125 40.484375  Q 90.578125 38.875 90.375 36.9375  Q 90.1875 35.015625 89.796875 33.015625  z " />
        </defs>
        <g
           id="g420"
           transform="translate(146.46 35.472)scale(0.12 -0.12)">
          <use
             id="use358"
             xlink:href="#DejaVuSans-76"
             transform="translate(0 0.336875)" />
          <use
             id="use360"
             xlink:href="#DejaVuSans-105"
             transform="translate(55.712891 0.336875)" />
          <use
             id="use362"
             xlink:href="#DejaVuSans-107"
             transform="translate(83.496094 0.336875)" />
          <use
             id="use364"
             xlink:href="#DejaVuSans-101"
             transform="translate(141.40625 0.336875)" />
          <use
             id="use366"
             xlink:href="#DejaVuSans-108"
             transform="translate(202.929688 0.336875)" />
          <use
             id="use368"
             xlink:href="#DejaVuSans-105"
             transform="translate(230.712891 0.336875)" />
          <use
             id="use370"
             xlink:href="#DejaVuSans-104"
             transform="translate(258.496094 0.336875)" />
          <use
             id="use372"
             xlink:href="#DejaVuSans-111"
             transform="translate(321.875 0.336875)" />
          <use
             id="use374"
             xlink:href="#DejaVuSans-111"
             transform="translate(383.056641 0.336875)" />
          <use
             id="use376"
             xlink:href="#DejaVuSans-100"
             transform="translate(444.238281 0.336875)" />
          <use
             id="use378"
             xlink:href="#DejaVuSans-32"
             transform="translate(507.714844 0.336875)" />
          <use
             id="use380"
             xlink:href="#DejaVuSans-102"
             transform="translate(539.501953 0.336875)" />
          <use
             id="use382"
             xlink:href="#DejaVuSans-117"
             transform="translate(574.707031 0.336875)" />
          <use
             id="use384"
             xlink:href="#DejaVuSans-110"
             transform="translate(638.085938 0.336875)" />
          <use
             id="use386"
             xlink:href="#DejaVuSans-99"
             transform="translate(701.464844 0.336875)" />
          <use
             id="use388"
             xlink:href="#DejaVuSans-116"
             transform="translate(756.445312 0.336875)" />
          <use
             id="use390"
             xlink:href="#DejaVuSans-105"
             transform="translate(795.654297 0.336875)" />
          <use
             id="use392"
             xlink:href="#DejaVuSans-111"
             transform="translate(823.4375 0.336875)" />
          <use
             id="use394"
             xlink:href="#DejaVuSans-110"
             transform="translate(884.619141 0.336875)" />
          <use
             id="use396"
             xlink:href="#DejaVuSans-32"
             transform="translate(947.998047 0.336875)" />
          <use
             id="use398"
             xlink:href="#DejaVuSans-Oblique-76"
             transform="translate(979.785156 0.336875)" />
          <use
             id="use400"
             xlink:href="#DejaVuSans-40"
             transform="translate(1035.498047 0.336875)" />
          <use
             id="use402"
             xlink:href="#DejaVuSans-Oblique-952"
             transform="translate(1074.511719 0.336875)" />
          <use
             id="use404"
             xlink:href="#DejaVuSans-41"
             transform="translate(1135.693359 0.336875)" />
          <use
             id="use406"
             xlink:href="#DejaVuSans-61"
             transform="translate(1194.189453 0.336875)" />
          <use
             id="use408"
             xlink:href="#DejaVuSans-124"
             transform="translate(1297.460938 0.336875)" />
          <use
             id="use410"
             xlink:href="#DejaVuSans-Oblique-82"
             transform="translate(1331.152344 0.336875)" />
          <use
             id="use412"
             xlink:href="#DejaVuSans-124"
             transform="translate(1400.634766 0.336875)" />
          <use
             id="use414"
             xlink:href="#DejaVuSans-49"
             transform="translate(1443.283203 69.275937)scale(0.49)" />
          <use
             id="use416"
             xlink:href="#DejaVuSans-Oblique-109"
             transform="translate(1435.283203 19.960938)scale(0.49)" />
          <path
             id="path418"
             d="M 1435.283203 51.775937  L 1435.283203 56.150937  L 1483.015137 56.150937  L 1483.015137 51.775937  L 1435.283203 51.775937  z " />
        </g>
      </g>
    </g>
  </g>
  <defs
     id="defs428">
    <clipPath
       id="p5e3319a930">
      <rect
         id="rect425"
         y="41.472"
         x="57.6"
         width="357.12"
         height="266.112" />
    </clipPath>
  </defs>
</svg>
