<?xml version="1.0" encoding="UTF-8" standalone="no"?>
<svg
   xmlns:dc="http://purl.org/dc/elements/1.1/"
   xmlns:cc="http://creativecommons.org/ns#"
   xmlns:rdf="http://www.w3.org/1999/02/22-rdf-syntax-ns#"
   xmlns:svg="http://www.w3.org/2000/svg"
   xmlns="http://www.w3.org/2000/svg"
   xmlns:sodipodi="http://sodipodi.sourceforge.net/DTD/sodipodi-0.dtd"
   xmlns:inkscape="http://www.inkscape.org/namespaces/inkscape"
   sodipodi:docname="c3splitter_control_structure.svg"
   inkscape:version="1.0 (4035a4fb49, 2020-05-01)"
   id="svg8"
   version="1.1"
   viewBox="0 0 210 297"
   height="297mm"
   width="210mm">
  <defs
     id="defs2">
    <clipPath
       clipPathUnits="userSpaceOnUse"
       id="clipPath849">
      <path
         d="M 0,0 H 1591.6666 V 1699.5763 H 0 Z"
         clip-rule="evenodd"
         id="path847" />
    </clipPath>
    <clipPath
       clipPathUnits="userSpaceOnUse"
       id="clipPath861">
      <path
         d="M 0,0 H 1591.6666 V 1696.5787 H 0 Z"
         clip-rule="evenodd"
         id="path859" />
    </clipPath>
    <linearGradient
       x1="0"
       y1="0"
       x2="0"
       y2="1"
       gradientUnits="userSpaceOnUse"
       gradientTransform="matrix(2.4000001,0,0,-0.51600023,106.66001,106.75392)"
       spreadMethod="pad"
       id="linearGradient877">
      <stop
         style="stop-opacity:1;stop-color:#f5f5f5"
         offset="0"
         id="stop873" />
      <stop
         style="stop-opacity:1;stop-color:#b3b3b3"
         offset="1"
         id="stop875" />
    </linearGradient>
    <linearGradient
       x1="0"
       y1="0"
       x2="0"
       y2="1"
       gradientUnits="userSpaceOnUse"
       gradientTransform="matrix(4.7999999,0,0,-2.8800002,105.46001,105.37393)"
       spreadMethod="pad"
       id="linearGradient887">
      <stop
         style="stop-opacity:1;stop-color:#f5f5f5"
         offset="0"
         id="stop883" />
      <stop
         style="stop-opacity:1;stop-color:#b3b3b3"
         offset="1"
         id="stop885" />
    </linearGradient>
    <linearGradient
       x1="0"
       y1="0"
       x2="0"
       y2="1"
       gradientUnits="userSpaceOnUse"
       gradientTransform="matrix(9.0000003,0,0,9.0000003,58.960001,111.55393)"
       spreadMethod="pad"
       id="linearGradient899">
      <stop
         style="stop-opacity:1;stop-color:#f5f5f5"
         offset="0"
         id="stop895" />
      <stop
         style="stop-opacity:1;stop-color:#b3b3b3"
         offset="1"
         id="stop897" />
    </linearGradient>
    <linearGradient
       x1="0"
       y1="0"
       x2="0"
       y2="1"
       gradientUnits="userSpaceOnUse"
       gradientTransform="matrix(12,0,0,12,57.460003,110.05393)"
       spreadMethod="pad"
       id="linearGradient909">
      <stop
         style="stop-opacity:1;stop-color:#f5f5f5"
         offset="0"
         id="stop905" />
      <stop
         style="stop-opacity:1;stop-color:#b3b3b3"
         offset="1"
         id="stop907" />
    </linearGradient>
    <linearGradient
       x1="0"
       y1="0"
       x2="0"
       y2="1"
       gradientUnits="userSpaceOnUse"
       gradientTransform="matrix(12,0,0,-63.6,34.659998,110.93472)"
       spreadMethod="pad"
       id="linearGradient921">
      <stop
         style="stop-opacity:1;stop-color:#f5f5f5"
         offset="0"
         id="stop917" />
      <stop
         style="stop-opacity:1;stop-color:#b3b3b3"
         offset="1"
         id="stop919" />
    </linearGradient>
    <linearGradient
       x1="0"
       y1="0"
       x2="0"
       y2="1"
       gradientUnits="userSpaceOnUse"
       gradientTransform="matrix(0,-8.3999998,-19.2,0,104.86,120.25392)"
       spreadMethod="pad"
       id="linearGradient937">
      <stop
         style="stop-opacity:1;stop-color:#f5f5f5"
         offset="0"
         id="stop933" />
      <stop
         style="stop-opacity:1;stop-color:#b3b3b3"
         offset="1"
         id="stop935" />
    </linearGradient>
    <linearGradient
       x1="0"
       y1="0"
       x2="0"
       y2="1"
       gradientUnits="userSpaceOnUse"
       gradientTransform="matrix(5.1431982,0,0,-1.2576013,82.796799,101.83152)"
       spreadMethod="pad"
       id="linearGradient963">
      <stop
         style="stop-opacity:1;stop-color:#f5f5f5"
         offset="0"
         id="stop959" />
      <stop
         style="stop-opacity:1;stop-color:#b3b3b3"
         offset="1"
         id="stop961" />
    </linearGradient>
    <linearGradient
       x1="0"
       y1="0"
       x2="0"
       y2="1"
       gradientUnits="userSpaceOnUse"
       gradientTransform="matrix(5.9496018,0,0,-5.8101858,81.939999,107.05392)"
       spreadMethod="pad"
       id="linearGradient973">
      <stop
         style="stop-opacity:1;stop-color:#f5f5f5"
         offset="0"
         id="stop969" />
      <stop
         style="stop-opacity:1;stop-color:#b3b3b3"
         offset="1"
         id="stop971" />
    </linearGradient>
    <linearGradient
       x1="0"
       y1="0"
       x2="0"
       y2="1"
       gradientUnits="userSpaceOnUse"
       gradientTransform="matrix(2.4000001,0,0,-0.51600023,66.100001,109.03392)"
       spreadMethod="pad"
       id="linearGradient999">
      <stop
         style="stop-opacity:1;stop-color:#f5f5f5"
         offset="0"
         id="stop995" />
      <stop
         style="stop-opacity:1;stop-color:#b3b3b3"
         offset="1"
         id="stop997" />
    </linearGradient>
    <linearGradient
       x1="0"
       y1="0"
       x2="0"
       y2="1"
       gradientUnits="userSpaceOnUse"
       gradientTransform="matrix(4.7999999,0,0,-2.8800002,64.9,107.65392)"
       spreadMethod="pad"
       id="linearGradient1009">
      <stop
         style="stop-opacity:1;stop-color:#f5f5f5"
         offset="0"
         id="stop1005" />
      <stop
         style="stop-opacity:1;stop-color:#b3b3b3"
         offset="1"
         id="stop1007" />
    </linearGradient>
    <linearGradient
       x1="0"
       y1="0"
       x2="0"
       y2="1"
       gradientUnits="userSpaceOnUse"
       gradientTransform="matrix(-21.839999,0,0,-7.2000001,74.379991,44.053924)"
       spreadMethod="pad"
       id="linearGradient1033">
      <stop
         style="stop-opacity:1;stop-color:#f5f5f5"
         offset="0"
         id="stop1029" />
      <stop
         style="stop-opacity:1;stop-color:#b3b3b3"
         offset="1"
         id="stop1031" />
    </linearGradient>
    <linearGradient
       x1="0"
       y1="0"
       x2="0"
       y2="1"
       gradientUnits="userSpaceOnUse"
       gradientTransform="matrix(-0.71519996,0,0,-5.0400001,70.441591,41.173919)"
       spreadMethod="pad"
       id="linearGradient1043">
      <stop
         style="stop-opacity:1;stop-color:#f5f5f5"
         offset="0"
         id="stop1039" />
      <stop
         style="stop-opacity:1;stop-color:#b3b3b3"
         offset="1"
         id="stop1041" />
    </linearGradient>
    <linearGradient
       x1="0"
       y1="0"
       x2="0"
       y2="1"
       gradientUnits="userSpaceOnUse"
       gradientTransform="matrix(2.4000001,0,0,-0.5160059,83.739999,51.594725)"
       spreadMethod="pad"
       id="linearGradient1065">
      <stop
         style="stop-opacity:1;stop-color:#f5f5f5"
         offset="0"
         id="stop1061" />
      <stop
         style="stop-opacity:1;stop-color:#b3b3b3"
         offset="1"
         id="stop1063" />
    </linearGradient>
    <linearGradient
       x1="0"
       y1="0"
       x2="0"
       y2="1"
       gradientUnits="userSpaceOnUse"
       gradientTransform="matrix(4.7999999,0,0,-2.8800002,82.539998,50.214725)"
       spreadMethod="pad"
       id="linearGradient1075">
      <stop
         style="stop-opacity:1;stop-color:#f5f5f5"
         offset="0"
         id="stop1071" />
      <stop
         style="stop-opacity:1;stop-color:#b3b3b3"
         offset="1"
         id="stop1073" />
    </linearGradient>
    <linearGradient
       x1="0"
       y1="0"
       x2="0"
       y2="1"
       gradientUnits="userSpaceOnUse"
       gradientTransform="matrix(1.6970561,-1.6970561,-0.36486739,-0.36486739,56.726685,126.61767)"
       spreadMethod="pad"
       id="linearGradient1107">
      <stop
         style="stop-opacity:1;stop-color:#f5f5f5"
         offset="0"
         id="stop1103" />
      <stop
         style="stop-opacity:1;stop-color:#b3b3b3"
         offset="1"
         id="stop1105" />
    </linearGradient>
    <linearGradient
       x1="0"
       y1="0"
       x2="0"
       y2="1"
       gradientUnits="userSpaceOnUse"
       gradientTransform="matrix(3.3941125,-3.3941125,-2.0364675,-2.0364675,54.902349,126.49038)"
       spreadMethod="pad"
       id="linearGradient1117">
      <stop
         style="stop-opacity:1;stop-color:#f5f5f5"
         offset="0"
         id="stop1113" />
      <stop
         style="stop-opacity:1;stop-color:#b3b3b3"
         offset="1"
         id="stop1115" />
    </linearGradient>
    <linearGradient
       x1="0"
       y1="0"
       x2="0"
       y2="1"
       gradientUnits="userSpaceOnUse"
       gradientTransform="matrix(2.4000001,0,0,-0.51599856,17.14,83.586724)"
       spreadMethod="pad"
       id="linearGradient1137">
      <stop
         style="stop-opacity:1;stop-color:#f5f5f5"
         offset="0"
         id="stop1133" />
      <stop
         style="stop-opacity:1;stop-color:#b3b3b3"
         offset="1"
         id="stop1135" />
    </linearGradient>
    <linearGradient
       x1="0"
       y1="0"
       x2="0"
       y2="1"
       gradientUnits="userSpaceOnUse"
       gradientTransform="matrix(4.7999999,0,0,-2.8800002,15.940001,82.206722)"
       spreadMethod="pad"
       id="linearGradient1147">
      <stop
         style="stop-opacity:1;stop-color:#f5f5f5"
         offset="0"
         id="stop1143" />
      <stop
         style="stop-opacity:1;stop-color:#b3b3b3"
         offset="1"
         id="stop1145" />
    </linearGradient>
    <linearGradient
       x1="0"
       y1="0"
       x2="0"
       y2="1"
       gradientUnits="userSpaceOnUse"
       gradientTransform="matrix(2.4000001,0,0,-0.51599856,83.739999,18.073926)"
       spreadMethod="pad"
       id="linearGradient1185">
      <stop
         style="stop-opacity:1;stop-color:#f5f5f5"
         offset="0"
         id="stop1181" />
      <stop
         style="stop-opacity:1;stop-color:#b3b3b3"
         offset="1"
         id="stop1183" />
    </linearGradient>
    <linearGradient
       x1="0"
       y1="0"
       x2="0"
       y2="1"
       gradientUnits="userSpaceOnUse"
       gradientTransform="matrix(4.7999999,0,0,-2.8800002,82.539998,16.693926)"
       spreadMethod="pad"
       id="linearGradient1195">
      <stop
         style="stop-opacity:1;stop-color:#f5f5f5"
         offset="0"
         id="stop1191" />
      <stop
         style="stop-opacity:1;stop-color:#b3b3b3"
         offset="1"
         id="stop1193" />
    </linearGradient>
  </defs>
  <sodipodi:namedview
     inkscape:window-maximized="1"
     inkscape:window-y="-8"
     inkscape:window-x="-8"
     inkscape:window-height="1017"
     inkscape:window-width="1920"
     showgrid="false"
     inkscape:document-rotation="0"
     inkscape:current-layer="layer1"
     inkscape:document-units="mm"
     inkscape:cy="593.69996"
     inkscape:cx="446.1612"
     inkscape:zoom="0.7"
     inkscape:pageshadow="2"
     inkscape:pageopacity="0.0"
     borderopacity="1.0"
     bordercolor="#666666"
     pagecolor="#ffffff"
     id="base" />
  <metadata
     id="metadata5">
    <rdf:RDF>
      <cc:Work
         rdf:about="">
        <dc:format>image/svg+xml</dc:format>
        <dc:type
           rdf:resource="http://purl.org/dc/dcmitype/StillImage" />
        <dc:title></dc:title>
      </cc:Work>
    </rdf:RDF>
  </metadata>
  <g
     id="layer1"
     inkscape:groupmode="layer"
     inkscape:label="Layer 1">
    <g
       id="g841"
       inkscape:label="c3splitter_control_structure"
       transform="matrix(0.12384953,0,0,0.14137723,6.7027853,24.057229)">
      <g
         id="g843">
        <g
           id="g845"
           clip-path="url(#clipPath849)">
          <g
             id="g851"
             transform="scale(2.997489)">
            <path
               d="M 0,0 H 531 V 567 H 0 Z"
               style="fill:#ffffff;fill-opacity:1;fill-rule:nonzero;stroke:none"
               id="path853" />
          </g>
        </g>
      </g>
      <g
         id="g855">
        <g
           id="g857"
           clip-path="url(#clipPath861)">
          <g
             id="g863"
             transform="matrix(2.997489,0,0,2.997489,1.4987445,1.4987445)">
            <path
               d="M 171,367.32999 V 451 c 0,6.66666 3.33333,10 10,10 h 96 c 6.66666,0 10,-3.33334 10,-10 v -33.63"
               style="fill:none;stroke:#000000;stroke-width:1;stroke-linecap:butt;stroke-linejoin:miter;stroke-miterlimit:10;stroke-dasharray:none;stroke-opacity:1"
               id="path865" />
            <path
               d="m 287,412.12 3.5,7 -3.5,-1.75 -3.5,1.75 z"
               style="fill:#000000;fill-opacity:1;fill-rule:nonzero;stroke:none"
               id="path867" />
            <path
               d="m 287,412.12 3.5,7 -3.5,-1.75 -3.5,1.75 z"
               style="fill:none;stroke:#000000;stroke-width:1;stroke-linecap:butt;stroke-linejoin:miter;stroke-miterlimit:10;stroke-dasharray:none;stroke-opacity:1"
               id="path869" />
            <path
               d="m 451,121.9 v 9.6"
               style="fill:none;stroke:#000000;stroke-width:1;stroke-linecap:butt;stroke-linejoin:miter;stroke-miterlimit:10;stroke-dasharray:none;stroke-opacity:1"
               id="path871" />
            <path
               d="m 446,121.9 c 1.10999,-1.34 2.98999,-2.15 5,-2.15 2.01001,0 3.89001,0.81 5,2.15 z"
               style="fill:url(#linearGradient877);fill-opacity:1;fill-rule:nonzero;stroke:none"
               id="path879" />
            <path
               d="m 446,121.9 c 1.10999,-1.34 2.98999,-2.15 5,-2.15 2.01001,0 3.89001,0.81 5,2.15 z"
               style="fill:none;stroke:#000000;stroke-width:1;stroke-linecap:butt;stroke-linejoin:miter;stroke-miterlimit:10;stroke-dasharray:none;stroke-opacity:1"
               id="path881" />
            <path
               d="m 441,125.5 10,6 -10,6 z m 20,0 -10,6 10,6 z"
               style="fill:url(#linearGradient887);fill-opacity:1;fill-rule:nonzero;stroke:none"
               id="path889" />
            <path
               d="m 441,125.5 10,6 -10,6 z m 20,0 -10,6 10,6 z"
               style="fill:none;stroke:#000000;stroke-width:1;stroke-linecap:butt;stroke-linejoin:miter;stroke-miterlimit:10;stroke-dasharray:none;stroke-opacity:1"
               id="path891" />
          </g>
          <g
             id="g893"
             transform="matrix(2.997489,0,0,-2.997489,1.4987445,487.09195)">
            <path
               d="m 284.75,81 c -3e-5,1.23114 -0.12012,2.450455 -0.36029,3.657944 -0.2402,1.207481 -0.59586,2.379936 -1.06702,3.517364 -0.47116,1.137429 -1.0487,2.217972 -1.73269,3.241623 -0.68399,1.023659 -1.46128,1.970764 -2.33179,2.841316 -0.87058,0.870545 -1.81766,1.647812 -2.84131,2.331795 -1.02365,0.683983 -2.10419,1.261551 -3.24161,1.732689 -1.13742,0.471138 -2.30987,0.826805 -3.51736,1.066986 C 268.45044,99.629906 267.23114,99.75 266,99.75 c -1.23114,0 -2.45047,-0.120094 -3.65796,-0.360283 -1.20749,-0.240181 -2.37997,-0.595848 -3.51739,-1.066986 -1.13742,-0.471138 -2.21799,-1.048706 -3.24164,-1.732689 -1.02365,-0.683983 -1.97075,-1.46125 -2.84128,-2.331795 -0.87056,-0.870552 -1.64783,-1.817649 -2.3318,-2.841308 -0.68399,-1.023659 -1.26155,-2.104202 -1.7327,-3.241631 -0.47113,-1.137428 -0.82678,-2.309883 -1.06697,-3.517364 C 247.37007,83.450455 247.24998,82.23114 247.25,81 c -2e-5,-1.23114 0.12007,-2.450455 0.36026,-3.657951 0.24017,-1.207482 0.59583,-2.379944 1.06696,-3.517372 0.47114,-1.137429 1.0487,-2.217965 1.73271,-3.241623 0.68397,-1.023659 1.46124,-1.970765 2.3318,-2.841309 0.87053,-0.870544 1.81763,-1.647812 2.84129,-2.331802 1.02367,-0.683983 2.10421,-1.261551 3.24163,-1.732693 1.13742,-0.471134 2.3099,-0.826794 3.51739,-1.066979 C 263.54953,62.37009 264.76886,62.25 266,62.25 c 1.23114,0 2.45044,0.12009 3.65793,0.360275 1.20746,0.240185 2.37991,0.595845 3.51733,1.066979 1.13742,0.471138 2.21799,1.048706 3.24164,1.732689 1.02365,0.68399 1.97073,1.461258 2.84131,2.331802 0.87051,0.870544 1.64777,1.81765 2.33176,2.841309 0.68399,1.023658 1.26156,2.104194 1.73272,3.241623 0.47116,1.137428 0.82682,2.30989 1.06702,3.517372 0.24017,1.207496 0.36026,2.426811 0.36029,3.657951 z"
               style="fill:url(#linearGradient899);fill-opacity:1;fill-rule:nonzero;stroke:none"
               id="path901" />
            <path
               d="m 284.75,81 c -3e-5,1.23114 -0.12012,2.450455 -0.36029,3.657944 -0.2402,1.207481 -0.59586,2.379936 -1.06702,3.517364 -0.47116,1.137429 -1.0487,2.217972 -1.73269,3.241623 -0.68399,1.023659 -1.46128,1.970764 -2.33179,2.841316 -0.87058,0.870545 -1.81766,1.647812 -2.84131,2.331795 -1.02365,0.683983 -2.10419,1.261551 -3.24161,1.732689 -1.13742,0.471138 -2.30987,0.826805 -3.51736,1.066986 C 268.45044,99.629906 267.23114,99.75 266,99.75 c -1.23114,0 -2.45047,-0.120094 -3.65796,-0.360283 -1.20749,-0.240181 -2.37997,-0.595848 -3.51739,-1.066986 -1.13742,-0.471138 -2.21799,-1.048706 -3.24164,-1.732689 -1.02365,-0.683983 -1.97075,-1.46125 -2.84128,-2.331795 -0.87056,-0.870552 -1.64783,-1.817649 -2.3318,-2.841308 -0.68399,-1.023659 -1.26155,-2.104202 -1.7327,-3.241631 -0.47113,-1.137428 -0.82678,-2.309883 -1.06697,-3.517364 C 247.37007,83.450455 247.24998,82.23114 247.25,81 c -2e-5,-1.23114 0.12007,-2.450455 0.36026,-3.657951 0.24017,-1.207482 0.59583,-2.379944 1.06696,-3.517372 0.47114,-1.137429 1.0487,-2.217965 1.73271,-3.241623 0.68397,-1.023659 1.46124,-1.970765 2.3318,-2.841309 0.87053,-0.870544 1.81763,-1.647812 2.84129,-2.331802 1.02367,-0.683983 2.10421,-1.261551 3.24163,-1.732693 1.13742,-0.471134 2.3099,-0.826794 3.51739,-1.066979 C 263.54953,62.37009 264.76886,62.25 266,62.25 c 1.23114,0 2.45044,0.12009 3.65793,0.360275 1.20746,0.240185 2.37991,0.595845 3.51733,1.066979 1.13742,0.471138 2.21799,1.048706 3.24164,1.732689 1.02365,0.68399 1.97073,1.461258 2.84131,2.331802 0.87051,0.870544 1.64777,1.81765 2.33176,2.841309 0.68399,1.023658 1.26156,2.104194 1.73272,3.241623 0.47116,1.137428 0.82682,2.30989 1.06702,3.517372 0.24017,1.207496 0.36026,2.426811 0.36029,3.657951 z"
               style="fill:none;stroke:#000000;stroke-width:1;stroke-linecap:butt;stroke-linejoin:miter;stroke-miterlimit:10;stroke-dasharray:none;stroke-opacity:1"
               id="path903" />
            <path
               d="m 247.25,81 h 6.25 l 6.25,-9.370003 12.5,18.75 L 278.5,81 h 6.25 M 291,56 241,106 M 284.75,58.810001 291,56 l -2.81,6.25 -0.31,-3.119999 z"
               style="fill:url(#linearGradient909);fill-opacity:1;fill-rule:nonzero;stroke:none"
               id="path911" />
            <path
               d="m 247.25,81 h 6.25 l 6.25,-9.370003 12.5,18.75 L 278.5,81 h 6.25 M 291,56 241,106 M 284.75,58.810001 291,56 l -2.81,6.25 -0.31,-3.119999 z"
               style="fill:none;stroke:#000000;stroke-width:1;stroke-linecap:butt;stroke-linejoin:miter;stroke-miterlimit:10;stroke-dasharray:none;stroke-opacity:1"
               id="path913" />
          </g>
          <g
             id="g915"
             transform="matrix(2.997489,0,0,2.997489,1.4987445,1.4987445)">
            <path
               d="m 146,117.33 c 0,-8.28 11.19,-15 25,-15 13.81,0 25,6.72 25,15 v 234.99999 c 0,8.28 -11.19,15 -25,15 -13.81,0 -25,-6.72 -25,-15 z"
               style="fill:url(#linearGradient921);fill-opacity:1;fill-rule:nonzero;stroke:none"
               id="path923" />
            <path
               d="m 146,117.33 c 0,-8.28 11.19,-15 25,-15 13.81,0 25,6.72 25,15 v 234.99999 c 0,8.28 -11.19,15 -25,15 -13.81,0 -25,-6.72 -25,-15 z"
               style="fill:none;stroke:#000000;stroke-width:1;stroke-linecap:butt;stroke-linejoin:miter;stroke-miterlimit:10;stroke-dasharray:none;stroke-opacity:1"
               id="path925" />
            <path
               d="m 146,126.83 h 3 v 1 h -3 z m 6,0 h 3 v 1 h -3 z m 6,0 h 3 v 1 h -3 z m 6,0 h 3 v 1 h -3 z m 6,0 h 3 v 1 h -3 z m 6,0 h 3 v 1 h -3 z m 6,0 h 3 v 1 h -3 z m 6,0 h 3 v 1 h -3 z m 6,0 h 2 v 1 h -2 z m -48,214.99999 h 3 v 1 h -3 z m 6,0 h 3 v 1 h -3 z m 6,0 h 3 v 1 h -3 z m 6,0 h 3 v 1 h -3 z m 6,0 h 3 v 1 h -3 z m 6,0 h 3 v 1 h -3 z m 6,0 h 3 v 1 h -3 z m 6,0 h 3 v 1 h -3 z m 6,0 h 2 v 1 h -2 z"
               style="fill:#000000;fill-opacity:1;fill-rule:nonzero;stroke:none"
               id="path927" />
            <path
               d="m 146,136.83 h 3 v 1 h -3 z m 6,0 h 3 v 1 h -3 z m 6,0 h 3 v 1 h -3 z m 6,0 h 3 v 1 h -3 z m 6,0 h 3 v 1 h -3 z m 6,0 h 3 v 1 h -3 z m 6,0 h 3 v 1 h -3 z m 6,0 h 3 v 1 h -3 z m -36.5,5.5 v 3 h -1 v -3 z m 0.5,4.5 h 3 v 1 h -3 z m 6,0 h 3 v 1 h -3 z m 6,0 h 3 v 1 h -3 z m 6,0 h 3 v 1 h -3 z m 6,0 h 3 v 1 h -3 z m 6,0 h 3 v 1 h -3 z m 6,0 h 3 v 1 h -3 z m 6,0 h 2 v 1 h -2 z m -48,10 h 3 v 1 h -3 z m 6,0 h 3 v 1 h -3 z m 6,0 h 3 v 1 h -3 z m 6,0 h 3 v 1 h -3 z m 6,0 h 3 v 1 h -3 z m 6,0 h 3 v 1 h -3 z m 6,0 h 3 v 1 h -3 z m 6,0 h 3 v 1 h -3 z m -36.5,5.5 v 3 h -1 v -3 z m 0.5,4.5 h 3 v 1 h -3 z m 6,0 h 3 v 1 h -3 z m 6,0 h 3 v 1 h -3 z m 6,0 h 3 v 1 h -3 z m 6,0 h 3 v 1 h -3 z m 6,0 h 3 v 1 h -3 z m 6,0 h 3 v 1 h -3 z m 6,0 h 2 v 1 h -2 z m -48,10 h 3 v 1 h -3 z m 6,0 h 3 v 1 h -3 z m 6,0 h 3 v 1 h -3 z m 6,0 h 3 v 1 h -3 z m 6,0 h 3 v 1 h -3 z m 6,0 h 3 v 1 h -3 z m 6,0 h 3 v 1 h -3 z m 6,0 h 3 v 1 h -3 z m -36.5,5.5 v 3 h -1 v -3 z m 0.5,4.5 h 3 v 1 h -3 z m 6,0 h 3 v 1 h -3 z m 6,0 h 3 v 1 h -3 z m 6,0 h 3 v 1 h -3 z m 6,0 h 3 v 1 h -3 z m 6,0 h 3 v 1 h -3 z m 6,0 h 3 v 1 h -3 z m 6,0 h 2 v 1 h -2 z m -48,10 h 3 v 1 h -3 z m 6,0 h 3 v 1 h -3 z m 6,0 h 3 v 1 h -3 z m 6,0 h 3 v 1 h -3 z m 6,0 h 3 v 1 h -3 z m 6,0 h 3 v 1 h -3 z m 6,0 h 3 v 1 h -3 z m 6,0 h 3 v 1 h -3 z m -36.5,5.5 v 3 h -1 v -3 z m 0.5,4.5 h 3 v 1 h -3 z m 6,0 h 3 v 1 h -3 z m 6,0 h 3 v 1 h -3 z m 6,0 h 3 v 1 h -3 z m 6,0 h 3 v 1 h -3 z m 6,0 h 3 v 1 h -3 z m 6,0 h 3 v 1 h -3 z m 6,0 h 2 v 1 h -2 z m -48,10 h 3 v 1 h -3 z m 6,0 h 3 v 1 h -3 z m 6,0 h 3 v 1 h -3 z m 6,0 h 3 v 1 h -3 z m 6,0 h 3 v 1 h -3 z m 6,0 h 3 v 1 h -3 z m 6,0 h 3 v 1 h -3 z m 6,0 h 3 v 1 h -3 z m -36.5,5.5 v 3 h -1 v -3 z m 0.5,4.5 h 3 v 1 h -3 z m 6,0 h 3 v 1 h -3 z m 6,0 h 3 v 1 h -3 z m 6,0 h 3 v 1 h -3 z m 6,0 h 3 v 1 h -3 z m 6,0 h 3 v 1 h -3 z m 6,0 h 3 v 1 h -3 z m 6,0 h 2 v 1 h -2 z m -48,10 h 3 v 1 h -3 z m 6,0 h 3 v 1 h -3 z m 6,0 h 3 v 1 h -3 z m 6,0 h 3 v 1 h -3 z m 6,0 h 3 v 1 h -3 z m 6,0 h 3 v 1 h -3 z m 6,0 h 3 v 1 h -3 z m 6,0 h 3 v 1 h -3 z m -36.5,5.5 v 3 h -1 v -3 z m 0.5,4.5 h 3 v 1 h -3 z m 6,0 h 3 v 1 h -3 z m 6,0 h 3 v 1 h -3 z m 6,0 h 3 v 1 h -3 z m 6,0 h 3 v 1 h -3 z m 6,0 h 3 v 1 h -3 z m 6,0 h 3 v 1 h -3 z m 6,0 h 2 v 1 h -2 z m -48,9.99999 h 3 v 1 h -3 z m 6,0 h 3 v 1 h -3 z m 6,0 h 3 v 1 h -3 z m 6,0 h 3 v 1 h -3 z m 6,0 h 3 v 1 h -3 z m 6,0 h 3 v 1 h -3 z m 6,0 h 3 v 1 h -3 z m 6,0 h 3 v 1 h -3 z m -36.5,5.5 v 3 h -1 v -3 z m 0.5,4.5 h 3 v 1 h -3 z m 6,0 h 3 v 1 h -3 z m 6,0 h 3 v 1 h -3 z m 6,0 h 3 v 1 h -3 z m 6,0 h 3 v 1 h -3 z m 6,0 h 3 v 1 h -3 z m 6,0 h 3 v 1 h -3 z m 6,0 h 2 v 1 h -2 z m -48,10 h 3 v 1 h -3 z m 6,0 h 3 v 1 h -3 z m 6,0 h 3 v 1 h -3 z m 6,0 h 3 v 1 h -3 z m 6,0 h 3 v 1 h -3 z m 6,0 h 3 v 1 h -3 z m 6,0 h 3 v 1 h -3 z m 6,0 h 3 v 1 h -3 z m -36.5,5.5 v 3 h -1 v -3 z m 0.5,4.5 h 3 v 1 h -3 z m 6,0 h 3 v 1 h -3 z m 6,0 h 3 v 1 h -3 z m 6,0 h 3 v 1 h -3 z m 6,0 h 3 v 1 h -3 z m 6,0 h 3 v 1 h -3 z m 6,0 h 3 v 1 h -3 z m 6,0 h 2 v 1 h -2 z m -48,10 h 3 v 1 h -3 z m 6,0 h 3 v 1 h -3 z m 6,0 h 3 v 1 h -3 z m 6,0 h 3 v 1 h -3 z m 6,0 h 3 v 1 h -3 z m 6,0 h 3 v 1 h -3 z m 6,0 h 3 v 1 h -3 z m 6,0 h 3 v 1 h -3 z m -36.5,5.5 v 3 h -1 v -3 z m 0.5,4.5 h 3 v 1 h -3 z m 6,0 h 3 v 1 h -3 z m 6,0 h 3 v 1 h -3 z m 6,0 h 3 v 1 h -3 z m 6,0 h 3 v 1 h -3 z m 6,0 h 3 v 1 h -3 z m 6,0 h 3 v 1 h -3 z m 6,0 h 2 v 1 h -2 z m -48,10 h 3 v 1 h -3 z m 6,0 h 3 v 1 h -3 z m 6,0 h 3 v 1 h -3 z m 6,0 h 3 v 1 h -3 z m 6,0 h 3 v 1 h -3 z m 6,0 h 3 v 1 h -3 z m 6,0 h 3 v 1 h -3 z m 6,0 h 3 v 1 h -3 z m -36.5,5.5 v 3 h -1 v -3 z m 0.5,4.5 h 3 v 1 h -3 z m 6,0 h 3 v 1 h -3 z m 6,0 h 3 v 1 h -3 z m 6,0 h 3 v 1 h -3 z m 6,0 h 3 v 1 h -3 z m 6,0 h 3 v 1 h -3 z m 6,0 h 3 v 1 h -3 z m 6,0 h 2 v 1 h -2 z"
               style="fill:#000000;fill-opacity:1;fill-rule:nonzero;stroke:none"
               id="path929" />
          </g>
          <g
             id="g931"
             transform="matrix(0,2.997489,-2.997489,0,1438.7947,-950.20398)">
            <path
               d="m 381,56 c 0,-8.279999 7.84,-15 17.5,-15 9.66,0 17.5,6.720001 17.5,15 v 50 c 0,8.28 -7.84,15 -17.5,15 -9.66,0 -17.5,-6.72 -17.5,-15 z"
               style="fill:url(#linearGradient937);fill-opacity:1;fill-rule:nonzero;stroke:none"
               id="path939" />
            <path
               d="m 381,56 c 0,-8.279999 7.84,-15 17.5,-15 9.66,0 17.5,6.720001 17.5,15 v 50 c 0,8.28 -7.84,15 -17.5,15 -9.66,0 -17.5,-6.72 -17.5,-15 z"
               style="fill:none;stroke:#000000;stroke-width:1;stroke-linecap:butt;stroke-linejoin:miter;stroke-miterlimit:10;stroke-dasharray:none;stroke-opacity:1"
               id="path941" />
          </g>
          <g
             id="g943"
             transform="matrix(2.997489,0,0,2.997489,1.4987445,1.4987445)">
            <path
               d="m 438.5,84 c -6.33334,0 -12.83334,-2.5 -19.5,-7.5 -6.66666,-5 -13.33334,-3.333336 -20,5 -6.66666,8.333336 -20,7.5 -40,-2.5"
               style="fill:none;stroke:#000000;stroke-width:1;stroke-linecap:butt;stroke-linejoin:miter;stroke-miterlimit:10;stroke-dasharray:none;stroke-opacity:1"
               id="path945" />
            <path
               d="m 196,353 c 0,0 -2.5,-2 -7.5,-6 -5,-4 -10,-2.66666 -15,4 -5,6.66666 -14.16667,7.33334 -27.5,2"
               style="fill:none;stroke:#000000;stroke-width:1;stroke-linecap:butt;stroke-linejoin:miter;stroke-miterlimit:10;stroke-dasharray:none;stroke-opacity:1"
               id="path947" />
            <path
               d="M 171,101 V 91 c 0,-6.666664 3.33333,-10 10,-10 h 66.2"
               style="fill:none;stroke:#000000;stroke-width:1;stroke-linecap:butt;stroke-linejoin:miter;stroke-miterlimit:10;stroke-dasharray:none;stroke-opacity:1"
               id="path949" />
            <path
               d="M 284.79999,81 H 352.13"
               style="fill:none;stroke:#000000;stroke-width:1;stroke-linecap:butt;stroke-linejoin:miter;stroke-miterlimit:10;stroke-dasharray:none;stroke-opacity:1"
               id="path951" />
            <path
               d="m 357.38,81 -7,3.5 1.75,-3.5 -1.75,-3.5 z"
               style="fill:#000000;fill-opacity:1;fill-rule:nonzero;stroke:none"
               id="path953" />
            <path
               d="m 357.38,81 -7,3.5 1.75,-3.5 -1.75,-3.5 z"
               style="fill:none;stroke:#000000;stroke-width:1;stroke-linecap:butt;stroke-linejoin:miter;stroke-miterlimit:10;stroke-dasharray:none;stroke-opacity:1"
               id="path955" />
            <path
               d="M 399,131 398.67999,98.5"
               style="fill:none;stroke:#000000;stroke-width:1;stroke-linecap:butt;stroke-linejoin:miter;stroke-miterlimit:10;stroke-dasharray:none;stroke-opacity:1"
               id="path957" />
            <path
               d="M 350.85999,140.25999 346.57001,145.5 H 368 l -4.29001,-5.24001"
               style="fill:url(#linearGradient963);fill-opacity:1;fill-rule:nonzero;stroke:none"
               id="path965" />
            <path
               d="M 350.85999,140.25999 346.57001,145.5 H 368 l -4.29001,-5.24001"
               style="fill:none;stroke:#000000;stroke-width:1;stroke-linecap:butt;stroke-linejoin:miter;stroke-miterlimit:10;stroke-dasharray:none;stroke-opacity:1"
               id="path967" />
            <path
               d="M 367.79001,128.57001 C 366.92001,122.78 362.48999,118.54 357.29001,118.5 H 343 v 8.06 h 4.13 c -1.36999,4.30999 -0.45999,9.11999 2.35001,12.42 2.79999,3.30999 7.01999,4.54 10.89999,3.19 3.87,-1.34999 6.74,-5.05001 7.41001,-9.56999"
               style="fill:url(#linearGradient973);fill-opacity:1;fill-rule:nonzero;stroke:none"
               id="path975" />
            <path
               d="M 367.79001,128.57001 C 366.92001,122.78 362.48999,118.54 357.29001,118.5 H 343 v 8.06 h 4.13 c -1.36999,4.30999 -0.45999,9.11999 2.35001,12.42 2.79999,3.30999 7.01999,4.54 10.89999,3.19 3.87,-1.34999 6.74,-5.05001 7.41001,-9.56999"
               style="fill:none;stroke:#000000;stroke-width:1;stroke-linecap:butt;stroke-linejoin:miter;stroke-miterlimit:10;stroke-dasharray:none;stroke-opacity:1"
               id="path977" />
            <path
               d="M 360.35999,128.57001 C 359.54999,127 357.89999,126.22 356.34,126.7 c -1.56,0.47 -2.65,2.07 -2.65,3.89 0,1.82 1.09,3.41999 2.65,3.89 1.55999,0.47 3.20999,-0.30001 4.01999,-1.87999"
               style="fill:none;stroke:#000000;stroke-width:1;stroke-linecap:butt;stroke-linejoin:miter;stroke-miterlimit:10;stroke-dasharray:none;stroke-opacity:1"
               id="path979" />
            <path
               d="m 375.37,130.61999 59.26,0.34002"
               style="fill:none;stroke:#000000;stroke-width:1;stroke-linecap:butt;stroke-linejoin:miter;stroke-miterlimit:10;stroke-dasharray:none;stroke-opacity:1"
               id="path981" />
            <path
               d="m 370.12,130.59 7.02001,-3.46 -1.77001,3.48999 1.73001,3.51001 z"
               style="fill:#000000;fill-opacity:1;fill-rule:nonzero;stroke:none"
               id="path983" />
            <path
               d="m 370.12,130.59 7.02001,-3.46 -1.77001,3.48999 1.73001,3.51001 z"
               style="fill:none;stroke:#000000;stroke-width:1;stroke-linecap:butt;stroke-linejoin:miter;stroke-miterlimit:10;stroke-dasharray:none;stroke-opacity:1"
               id="path985" />
            <path
               d="m 439.88,130.99 -7.02001,3.46 1.77001,-3.48999 -1.73001,-3.51001 z"
               style="fill:#000000;fill-opacity:1;fill-rule:nonzero;stroke:none"
               id="path987" />
            <path
               d="m 439.88,130.99 -7.02001,3.46 1.77001,-3.48999 -1.73001,-3.51001 z"
               style="fill:none;stroke:#000000;stroke-width:1;stroke-linecap:butt;stroke-linejoin:miter;stroke-miterlimit:10;stroke-dasharray:none;stroke-opacity:1"
               id="path989" />
            <path
               d="m 293,122 h 50"
               style="fill:none;stroke:#000000;stroke-width:1;stroke-linecap:butt;stroke-linejoin:miter;stroke-miterlimit:10;stroke-dasharray:none;stroke-opacity:1"
               id="path991" />
            <path
               d="M 282,112.4 V 122"
               style="fill:none;stroke:#000000;stroke-width:1;stroke-linecap:butt;stroke-linejoin:miter;stroke-miterlimit:10;stroke-dasharray:none;stroke-opacity:1"
               id="path993" />
            <path
               d="m 277,112.4 c 1.10999,-1.34 2.98999,-2.15 5,-2.15 2.01001,0 3.89001,0.81 5,2.15 z"
               style="fill:url(#linearGradient999);fill-opacity:1;fill-rule:nonzero;stroke:none"
               id="path1001" />
            <path
               d="m 277,112.4 c 1.10999,-1.34 2.98999,-2.15 5,-2.15 2.01001,0 3.89001,0.81 5,2.15 z"
               style="fill:none;stroke:#000000;stroke-width:1;stroke-linecap:butt;stroke-linejoin:miter;stroke-miterlimit:10;stroke-dasharray:none;stroke-opacity:1"
               id="path1003" />
            <path
               d="m 272,116 10,6 -10,6 z m 20,0 -10,6 10,6 z"
               style="fill:url(#linearGradient1009);fill-opacity:1;fill-rule:nonzero;stroke:none"
               id="path1011" />
            <path
               d="m 272,116 10,6 -10,6 z m 20,0 -10,6 10,6 z"
               style="fill:none;stroke:#000000;stroke-width:1;stroke-linecap:butt;stroke-linejoin:miter;stroke-miterlimit:10;stroke-dasharray:none;stroke-opacity:1"
               id="path1013" />
            <path
               d="M 202.02,122.19 272,122"
               style="fill:none;stroke:#000000;stroke-width:1;stroke-linecap:butt;stroke-linejoin:miter;stroke-miterlimit:10;stroke-dasharray:none;stroke-opacity:1"
               id="path1015" />
            <path
               d="m 196.77,122.2 6.98999,-3.52 -1.73999,3.51 1.76,3.49 z"
               style="fill:#000000;fill-opacity:1;fill-rule:nonzero;stroke:none"
               id="path1017" />
            <path
               d="m 196.77,122.2 6.98999,-3.52 -1.73999,3.51 1.76,3.49 z"
               style="fill:none;stroke:#000000;stroke-width:1;stroke-linecap:butt;stroke-linejoin:miter;stroke-miterlimit:10;stroke-dasharray:none;stroke-opacity:1"
               id="path1019" />
            <path
               d="m 461,131.58 h 53.63"
               style="fill:none;stroke:#000000;stroke-width:1;stroke-linecap:butt;stroke-linejoin:miter;stroke-miterlimit:10;stroke-dasharray:none;stroke-opacity:1"
               id="path1021" />
            <path
               d="m 519.88,131.58 -7,3.5 1.75,-3.5 -1.75,-3.5 z"
               style="fill:#000000;fill-opacity:1;fill-rule:nonzero;stroke:none"
               id="path1023" />
            <path
               d="m 519.88,131.58 -7,3.5 1.75,-3.5 -1.75,-3.5 z"
               style="fill:none;stroke:#000000;stroke-width:1;stroke-linecap:butt;stroke-linejoin:miter;stroke-miterlimit:10;stroke-dasharray:none;stroke-opacity:1"
               id="path1025" />
          </g>
          <g
             id="g1027"
             transform="matrix(-2.997489,0,0,2.997489,1596.1628,1.4987445)">
            <path
               d="m 224.98,396 h 11.93 v 15 h -11.93 c -2.48,0 -4.48,-3.35999 -4.48,-7.5 0,-4.14001 2,-7.5 4.48,-7.5 m 14.91,0 h 6.97 l 14.90999,-15 H 306.53 c 2.73999,0 4.97,6.72 4.97,15 0,8.28 -2.23001,15 -4.97,15 h -66.64 z m -14.91,0 v 15 m 36.78999,-30 v 30 M 306.53,381 v 30"
               style="fill:url(#linearGradient1033);fill-opacity:1;fill-rule:nonzero;stroke:none"
               id="path1035" />
            <path
               d="m 224.98,396 h 11.93 v 15 h -11.93 c -2.48,0 -4.48,-3.35999 -4.48,-7.5 0,-4.14001 2,-7.5 4.48,-7.5 m 14.91,0 h 6.97 l 14.90999,-15 H 306.53 c 2.73999,0 4.97,6.72 4.97,15 0,8.28 -2.23001,15 -4.97,15 h -66.64 z m -14.91,0 v 15 m 36.78999,-30 v 30 M 306.53,381 v 30"
               style="fill:none;stroke:#000000;stroke-width:1;stroke-linecap:butt;stroke-linejoin:miter;stroke-miterlimit:10;stroke-dasharray:none;stroke-opacity:1"
               id="path1037" />
            <path
               d="m 236.91,393 h 2.98 v 21 h -2.98 z"
               style="fill:url(#linearGradient1043);fill-opacity:1;fill-rule:nonzero;stroke:none"
               id="path1045" />
            <path
               d="m 236.91,393 h 2.98 v 21 h -2.98 z"
               style="fill:none;stroke:#000000;stroke-width:1;stroke-linecap:butt;stroke-linejoin:miter;stroke-miterlimit:10;stroke-dasharray:none;stroke-opacity:1"
               id="path1047" />
          </g>
          <g
             id="g1049"
             transform="matrix(2.997489,0,0,2.997489,1.4987445,1.4987445)">
            <path
               d="m 226,381 v -30 c 0,-6.66666 -3.33333,-10 -10,-10 h -13.63"
               style="fill:none;stroke:#000000;stroke-width:1;stroke-linecap:butt;stroke-linejoin:miter;stroke-miterlimit:10;stroke-dasharray:none;stroke-opacity:1"
               id="path1051" />
            <path
               d="m 197.12,341 7,-3.5 -1.75,3.5 1.75,3.5 z"
               style="fill:#000000;fill-opacity:1;fill-rule:nonzero;stroke:none"
               id="path1053" />
            <path
               d="m 197.12,341 7,-3.5 -1.75,3.5 1.75,3.5 z"
               style="fill:none;stroke:#000000;stroke-width:1;stroke-linecap:butt;stroke-linejoin:miter;stroke-miterlimit:10;stroke-dasharray:none;stroke-opacity:1"
               id="path1055" />
            <path
               d="m 291,406 c 0,0 -4.16666,-2 -12.5,-6 -8.33334,-4 -15,-4 -20,0 -5,4 -17.66667,2.67001 -38,-3.98999"
               style="fill:none;stroke:#000000;stroke-width:1;stroke-linecap:butt;stroke-linejoin:miter;stroke-miterlimit:10;stroke-dasharray:none;stroke-opacity:1"
               id="path1057" />
            <path
               d="m 355.5,351.73001 v 9.59998"
               style="fill:none;stroke:#000000;stroke-width:1;stroke-linecap:butt;stroke-linejoin:miter;stroke-miterlimit:10;stroke-dasharray:none;stroke-opacity:1"
               id="path1059" />
            <path
               d="m 350.5,351.73001 c 1.10999,-1.34 2.98999,-2.15002 5,-2.15002 2.01001,0 3.89001,0.81002 5,2.15002 z"
               style="fill:url(#linearGradient1065);fill-opacity:1;fill-rule:nonzero;stroke:none"
               id="path1067" />
            <path
               d="m 350.5,351.73001 c 1.10999,-1.34 2.98999,-2.15002 5,-2.15002 2.01001,0 3.89001,0.81002 5,2.15002 z"
               style="fill:none;stroke:#000000;stroke-width:1;stroke-linecap:butt;stroke-linejoin:miter;stroke-miterlimit:10;stroke-dasharray:none;stroke-opacity:1"
               id="path1069" />
            <path
               d="m 345.5,355.32999 10,6 -10,6 z m 20,0 -10,6 10,6 z"
               style="fill:url(#linearGradient1075);fill-opacity:1;fill-rule:nonzero;stroke:none"
               id="path1077" />
            <path
               d="m 345.5,355.32999 10,6 -10,6 z m 20,0 -10,6 10,6 z"
               style="fill:none;stroke:#000000;stroke-width:1;stroke-linecap:butt;stroke-linejoin:miter;stroke-miterlimit:10;stroke-dasharray:none;stroke-opacity:1"
               id="path1079" />
            <path
               d="M 302,389.63 V 371 c 0,-6.66666 3.33334,-9.99335 10,-9.98001 l 33,0.07"
               style="fill:none;stroke:#000000;stroke-width:1;stroke-linecap:butt;stroke-linejoin:miter;stroke-miterlimit:10;stroke-dasharray:none;stroke-opacity:1"
               id="path1081" />
            <path
               d="m 302,394.88 -3.5,-7 3.5,1.75 3.5,-1.75 z"
               style="fill:#000000;fill-opacity:1;fill-rule:nonzero;stroke:none"
               id="path1083" />
            <path
               d="m 302,394.88 -3.5,-7 3.5,1.75 3.5,-1.75 z"
               style="fill:none;stroke:#000000;stroke-width:1;stroke-linecap:butt;stroke-linejoin:miter;stroke-miterlimit:10;stroke-dasharray:none;stroke-opacity:1"
               id="path1085" />
            <path
               d="M 334.63,451 H 312 c -6.66666,0 -10,-3.33334 -10,-10 v -30"
               style="fill:none;stroke:#000000;stroke-width:1;stroke-linecap:butt;stroke-linejoin:miter;stroke-miterlimit:10;stroke-dasharray:none;stroke-opacity:1"
               id="path1087" />
            <path
               d="m 339.88,451 -7,3.5 1.75,-3.5 -1.75,-3.5 z"
               style="fill:#000000;fill-opacity:1;fill-rule:nonzero;stroke:none"
               id="path1089" />
            <path
               d="m 339.88,451 -7,3.5 1.75,-3.5 -1.75,-3.5 z"
               style="fill:none;stroke:#000000;stroke-width:1;stroke-linecap:butt;stroke-linejoin:miter;stroke-miterlimit:10;stroke-dasharray:none;stroke-opacity:1"
               id="path1091" />
            <path
               d="M 372.37,362.38 419,362.09"
               style="fill:none;stroke:#000000;stroke-width:1;stroke-linecap:butt;stroke-linejoin:miter;stroke-miterlimit:10;stroke-dasharray:none;stroke-opacity:1"
               id="path1093" />
            <path
               d="m 367.12,362.41 6.98001,-3.54 -1.73001,3.51 1.77001,3.49 z"
               style="fill:#000000;fill-opacity:1;fill-rule:nonzero;stroke:none"
               id="path1095" />
            <path
               d="m 367.12,362.41 6.98001,-3.54 -1.73001,3.51 1.77001,3.49 z"
               style="fill:none;stroke:#000000;stroke-width:1;stroke-linecap:butt;stroke-linejoin:miter;stroke-miterlimit:10;stroke-dasharray:none;stroke-opacity:1"
               id="path1097" />
          </g>
          <g
             id="g1099"
             transform="matrix(2.1195447,2.1195447,-2.1195447,2.1195447,306.19263,-458.3284)">
            <path
               d="M 236,40.400002 V 50"
               style="fill:none;stroke:#000000;stroke-width:1;stroke-linecap:butt;stroke-linejoin:miter;stroke-miterlimit:10;stroke-dasharray:none;stroke-opacity:1"
               id="path1101" />
            <path
               d="m 231,40.400002 c 1.11,-1.340001 2.99001,-2.150002 5,-2.150002 2.00999,0 3.89,0.810001 5,2.150002 z"
               style="fill:url(#linearGradient1107);fill-opacity:1;fill-rule:nonzero;stroke:none"
               id="path1109" />
            <path
               d="m 231,40.400002 c 1.11,-1.340001 2.99001,-2.150002 5,-2.150002 2.00999,0 3.89,0.810001 5,2.150002 z"
               style="fill:none;stroke:#000000;stroke-width:1;stroke-linecap:butt;stroke-linejoin:miter;stroke-miterlimit:10;stroke-dasharray:none;stroke-opacity:1"
               id="path1111" />
            <path
               d="m 226,44 10,6 -10,6 z m 20,0 -10,6 10,6 z"
               style="fill:url(#linearGradient1117);fill-opacity:1;fill-rule:nonzero;stroke:none"
               id="path1119" />
            <path
               d="m 226,44 10,6 -10,6 z m 20,0 -10,6 10,6 z"
               style="fill:none;stroke:#000000;stroke-width:1;stroke-linecap:butt;stroke-linejoin:miter;stroke-miterlimit:10;stroke-dasharray:none;stroke-opacity:1"
               id="path1121" />
          </g>
          <g
             id="g1123"
             transform="matrix(2.997489,0,0,2.997489,1.4987445,1.4987445)">
            <path
               d="m 205.5,21 16.55,16.689999"
               style="fill:none;stroke:#000000;stroke-width:1;stroke-linecap:butt;stroke-linejoin:miter;stroke-miterlimit:10;stroke-dasharray:none;stroke-opacity:1"
               id="path1125" />
            <path
               d="M 225.75,41.419998 218.34,38.91 l 3.71,-1.220001 1.26,-3.699997 z"
               style="fill:#000000;fill-opacity:1;fill-rule:nonzero;stroke:none"
               id="path1127" />
            <path
               d="M 225.75,41.419998 218.34,38.91 l 3.71,-1.220001 1.26,-3.699997 z"
               style="fill:none;stroke:#000000;stroke-width:1;stroke-linecap:butt;stroke-linejoin:miter;stroke-miterlimit:10;stroke-dasharray:none;stroke-opacity:1"
               id="path1129" />
            <path
               d="M 78,218.42999 V 228.03"
               style="fill:none;stroke:#000000;stroke-width:1;stroke-linecap:butt;stroke-linejoin:miter;stroke-miterlimit:10;stroke-dasharray:none;stroke-opacity:1"
               id="path1131" />
            <path
               d="M 73,218.42999 C 74.110001,217.09 75.989998,216.28 78,216.28 c 2.010002,0 3.889999,0.81 5,2.14999 z"
               style="fill:url(#linearGradient1137);fill-opacity:1;fill-rule:nonzero;stroke:none"
               id="path1139" />
            <path
               d="M 73,218.42999 C 74.110001,217.09 75.989998,216.28 78,216.28 c 2.010002,0 3.889999,0.81 5,2.14999 z"
               style="fill:none;stroke:#000000;stroke-width:1;stroke-linecap:butt;stroke-linejoin:miter;stroke-miterlimit:10;stroke-dasharray:none;stroke-opacity:1"
               id="path1141" />
            <path
               d="m 68,222.03 10,6 -10,6 z m 20,0 -10,6 10,6 z"
               style="fill:url(#linearGradient1147);fill-opacity:1;fill-rule:nonzero;stroke:none"
               id="path1149" />
            <path
               d="m 68,222.03 10,6 -10,6 z m 20,0 -10,6 10,6 z"
               style="fill:none;stroke:#000000;stroke-width:1;stroke-linecap:butt;stroke-linejoin:miter;stroke-miterlimit:10;stroke-dasharray:none;stroke-opacity:1"
               id="path1151" />
            <path
               d="M 8,227.69 H 61.630001"
               style="fill:none;stroke:#000000;stroke-width:1;stroke-linecap:butt;stroke-linejoin:miter;stroke-miterlimit:10;stroke-dasharray:none;stroke-opacity:1"
               id="path1153" />
            <path
               d="m 66.879997,227.69 -6.999996,3.5 1.75,-3.5 -1.75,-3.5 z"
               style="fill:#000000;fill-opacity:1;fill-rule:nonzero;stroke:none"
               id="path1155" />
            <path
               d="m 66.879997,227.69 -6.999996,3.5 1.75,-3.5 -1.75,-3.5 z"
               style="fill:none;stroke:#000000;stroke-width:1;stroke-linecap:butt;stroke-linejoin:miter;stroke-miterlimit:10;stroke-dasharray:none;stroke-opacity:1"
               id="path1157" />
            <path
               d="m 88,228 52.63,-0.05"
               style="fill:none;stroke:#000000;stroke-width:1;stroke-linecap:butt;stroke-linejoin:miter;stroke-miterlimit:10;stroke-dasharray:none;stroke-opacity:1"
               id="path1159" />
            <path
               d="m 145.88,227.94 -6.99,3.51 1.74,-3.5 -1.75,-3.5 z"
               style="fill:#000000;fill-opacity:1;fill-rule:nonzero;stroke:none"
               id="path1161" />
            <path
               d="m 145.88,227.94 -6.99,3.51 1.74,-3.5 -1.75,-3.5 z"
               style="fill:none;stroke:#000000;stroke-width:1;stroke-linecap:butt;stroke-linejoin:miter;stroke-miterlimit:10;stroke-dasharray:none;stroke-opacity:1"
               id="path1163" />
          </g>
          <g
             id="g1165"
             transform="scale(2.997489)">
            <text
               transform="translate(231.17188,336)"
               style="font-variant:normal;font-weight:bold;font-size:16px;font-family:Helvetica;-inkscape-font-specification:Helvetica-Bold;writing-mode:lr-tb;fill:#000000;fill-opacity:1;fill-rule:nonzero;stroke:none"
               id="text1169"><tspan
                 x="0"
                 y="0"
                 id="tspan1167">V</tspan></text>
            <text
               transform="translate(231.60938,143)"
               style="font-variant:normal;font-weight:bold;font-size:16px;font-family:Helvetica;-inkscape-font-specification:Helvetica-Bold;writing-mode:lr-tb;fill:#000000;fill-opacity:1;fill-rule:nonzero;stroke:none"
               id="text1173"><tspan
                 x="0"
                 y="0"
                 id="tspan1171">L</tspan></text>
          </g>
          <g
             id="g1175"
             transform="matrix(2.997489,0,0,2.997489,1.4987445,1.4987445)">
            <path
               d="M 344.67999,500.23999 249,500.92999 c -6.66667,0.0467 -10.00999,-3.26333 -10.03,-9.92999 l -0.09,-27 m -0.02,-6 -0.16,-46.47"
               style="fill:none;stroke:#000000;stroke-width:1;stroke-linecap:butt;stroke-linejoin:miter;stroke-miterlimit:10;stroke-dasharray:none;stroke-opacity:1"
               id="path1177" />
            <path
               d="M 355.5,491.39999 V 501"
               style="fill:none;stroke:#000000;stroke-width:1;stroke-linecap:butt;stroke-linejoin:miter;stroke-miterlimit:10;stroke-dasharray:none;stroke-opacity:1"
               id="path1179" />
            <path
               d="m 350.5,491.39999 c 1.10999,-1.33999 2.98999,-2.14999 5,-2.14999 2.01001,0 3.89001,0.81 5,2.14999 z"
               style="fill:url(#linearGradient1185);fill-opacity:1;fill-rule:nonzero;stroke:none"
               id="path1187" />
            <path
               d="m 350.5,491.39999 c 1.10999,-1.33999 2.98999,-2.14999 5,-2.14999 2.01001,0 3.89001,0.81 5,2.14999 z"
               style="fill:none;stroke:#000000;stroke-width:1;stroke-linecap:butt;stroke-linejoin:miter;stroke-miterlimit:10;stroke-dasharray:none;stroke-opacity:1"
               id="path1189" />
            <path
               d="m 345.5,495 10,6 -10,6 z m 20,0 -10,6 10,6 z"
               style="fill:url(#linearGradient1195);fill-opacity:1;fill-rule:nonzero;stroke:none"
               id="path1197" />
            <path
               d="m 345.5,495 10,6 -10,6 z m 20,0 -10,6 10,6 z"
               style="fill:none;stroke:#000000;stroke-width:1;stroke-linecap:butt;stroke-linejoin:miter;stroke-miterlimit:10;stroke-dasharray:none;stroke-opacity:1"
               id="path1199" />
            <path
               d="M 365.5,501.70999 414.63,501.97"
               style="fill:none;stroke:#000000;stroke-width:1;stroke-linecap:butt;stroke-linejoin:miter;stroke-miterlimit:10;stroke-dasharray:none;stroke-opacity:1"
               id="path1201" />
            <path
               d="m 419.88,501.98999 -7.02001,3.47 1.77001,-3.48999 -1.73001,-3.51001 z"
               style="fill:#000000;fill-opacity:1;fill-rule:nonzero;stroke:none"
               id="path1203" />
            <path
               d="m 419.88,501.98999 -7.02001,3.47 1.77001,-3.48999 -1.73001,-3.51001 z"
               style="fill:none;stroke:#000000;stroke-width:1;stroke-linecap:butt;stroke-linejoin:miter;stroke-miterlimit:10;stroke-dasharray:none;stroke-opacity:1"
               id="path1205" />
          </g>
          <g
             id="g1207"
             transform="scale(2.997489)">
            <text
               transform="translate(375.71875,526)"
               style="font-variant:normal;font-weight:bold;font-size:16px;font-family:Helvetica;-inkscape-font-specification:Helvetica-Bold;writing-mode:lr-tb;fill:#000000;fill-opacity:1;fill-rule:nonzero;stroke:none"
               id="text1211"><tspan
                 x="0"
                 y="0"
                 id="tspan1209">B</tspan></text>
            <text
               transform="translate(31.609375,212)"
               style="font-variant:normal;font-weight:bold;font-size:16px;font-family:Helvetica;-inkscape-font-specification:Helvetica-Bold;writing-mode:lr-tb;fill:#000000;fill-opacity:1;fill-rule:nonzero;stroke:none"
               id="text1215"><tspan
                 x="0"
                 y="0"
                 id="tspan1213">F</tspan></text>
            <text
               transform="translate(450.71875,153)"
               style="font-variant:normal;font-weight:bold;font-size:16px;font-family:Helvetica;-inkscape-font-specification:Helvetica-Bold;writing-mode:lr-tb;fill:#000000;fill-opacity:1;fill-rule:nonzero;stroke:none"
               id="text1219"><tspan
                 x="0"
                 y="0"
                 id="tspan1217">D</tspan></text>
          </g>
          <g
             id="g1221"
             transform="matrix(2.997489,0,0,2.997489,1.4987445,1.4987445)">
            <path
               d="m 148.00034,131.45 -3,0.002 -6.8e-4,-1 3,-0.002 z m -6,0.004 -3,0.002 -6.8e-4,-1 3,-0.002 z m -6,0.004 -3,0.002 -6.8e-4,-1 3,-0.002 z m -6,0.004 -3,0.002 -6.7e-4,-1 2.99999,-0.002 z m -6,0.004 -3,0.002 -6.7e-4,-1 3,-0.002 z m -6,0.004 -2.99999,0.002 -6.7e-4,-1 2.99999,-0.002 z m -6,0.004 -3,0.002 -6.7e-4,-1 3,-0.002 z m -5.99999,0.004 -3,0.002 -6.7e-4,-1 3,-0.002 z m -6,0.004 -2.999999,0.002 -6.71e-4,-1 3,-0.002 z m -5.999999,0.004 -3,0.002 -6.71e-4,-1 3,-0.002 z m -5.99984,0.004 c -1.165184,0.001 -2.234077,-0.0971 -3.206672,-0.29501 l 0.19934,-0.97992 c 0.906464,0.1844 1.908577,0.27605 3.00634,0.27493 z m -6.129097,-1.3428 c -0.940185,-0.52455 -1.730087,-1.20088 -2.369705,-2.02901 l 0.791428,-0.61126 c 0.556121,0.72003 1.244613,1.30902 2.065475,1.76698 z m -3.805603,-4.88092 c -0.275047,-0.90375 -0.449806,-1.90443 -0.524292,-3.00203 l 0.997711,-0.0677 c 0.06933,1.02155 0.230416,1.94775 0.483261,2.77858 z M 77.5,119.12309 v -3 h 1 v 3 z m 0,-6 v -3 h 1 v 3 z"
               style="fill:#000000;fill-opacity:1;fill-rule:nonzero;stroke:none"
               id="path1223" />
            <path
               d="m 77.5,65 v -3 h 1 v 3 z m 0,-6 v -3 h 1 v 3 z m 0.229584,-6.206219 c 0.202003,-1.097374 0.537338,-2.072521 1.005989,-2.925438 l 0.876404,0.481575 c -0.416787,0.758507 -0.716423,1.633473 -0.898919,2.624894 z m 3.050125,-5.302902 c 0.811729,-0.615501 1.770088,-1.08614 2.875091,-1.411919 l 0.282792,0.959183 c -0.987954,0.291271 -1.83918,0.707791 -2.553666,1.249558 z m 5.859375,-1.918858 c 0.438385,-0.02942 0.892525,-0.04343 1.362419,-0.04202 l 1.786758,0.006 -0.0033,0.999993 -1.786438,-0.006 c -0.446487,-0.0013 -0.877304,0.01192 -1.292442,0.03978 l -0.06697,-0.997757 z m 6.149162,-0.02606 2.999985,0.01 -0.0033,0.999992 -2.999984,-0.01 0.0033,-0.999993 z m 5.99997,0.02 2.999984,0.01 -0.003,0.999993 -2.999981,-0.01 0.0033,-0.999992 z m 5.999964,0.02 2.99998,0.01 -0.003,0.999992 -2.99999,-0.01 0.003,-0.999992 z m 5.99997,0.02 2.99998,0.01 -0.003,0.999993 -2.99999,-0.01 0.003,-0.999992 z m 5.99997,0.02 2.99998,0.01 -0.003,0.999992 -2.99998,-0.01 0.003,-0.999993 z m 5.99997,0.02 2.99998,0.01 -0.003,0.999993 -2.99998,-0.01 0.003,-0.999992 z m 5.99996,0.02 2.99999,0.01 -0.003,0.999992 -2.99998,-0.01 0.003,-0.999993 z m 5.99996,0.02 2.99998,0.01 -0.003,0.999993 -2.99999,-0.01 0.003,-0.999992 z m 5.99997,0.02 2.99998,0.01 -0.003,0.999992 -2.99999,-0.01 0.003,-0.999993 z m 5.99997,0.02 2.99998,0.01 -0.003,0.999992 -2.99999,-0.01 0.003,-0.999992 z m 5.99997,0.02 2.99998,0.01 -0.003,0.999992 -2.99999,-0.01 0.003,-0.999993 z m 5.99997,0.02 2.99997,0.01 -0.003,0.999992 -2.99997,-0.01 z m 5.99997,0.02 2.99997,0.01 -0.003,0.999993 -2.99997,-0.01 z m 5.99997,0.02 2.99997,0.01 -0.003,0.999992 -2.99997,-0.01 z m 5.99997,0.02 2.99997,0.01 -0.003,0.999992 -2.99997,-0.01 0.003,-0.999993 z m 5.99997,0.02 2.99996,0.01 -0.003,0.999992 -2.99997,-0.01 0.003,-0.999992 z m 5.99995,0.02 2.99998,0.01 -0.003,0.999993 -2.99999,-0.01 0.003,-0.999993 z m 5.99997,0.02 2.99998,0.01 -0.003,0.999992 -2.99999,-0.01 0.003,-0.999992 z m 5.99995,0.02 3,0.01 -0.003,0.999993 -3,-0.01 0.003,-0.999992 z m 5.99997,0.02 2.99999,0.01 -0.003,0.999992 -2.99998,-0.01 0.003,-0.999992 z m 5.99997,0.02 3,0.01 -0.003,0.999993 -3,-0.01 z m 5.99997,0.02 2.99999,0.01 -0.003,0.999992 -2.99998,-0.01 0.003,-0.999992 z m 5.99997,0.02 1.21414,0.004 -0.003,0.999993 -1.21415,-0.004 0.003,-0.999992 z"
               style="fill:#000000;fill-opacity:1;fill-rule:nonzero;stroke:none"
               id="path1225" />
            <path
               d="m 99.5,87.5 c 0,1.411705 -0.137711,2.809853 -0.413124,4.194443 -0.275414,1.384582 -0.683243,2.728996 -1.22348,4.033241 -0.540245,1.304253 -1.202515,2.543274 -1.986817,3.717072 -0.784309,1.173794 -1.675575,2.259814 -2.673797,3.258044 -0.998238,0.99822 -2.084252,1.88949 -3.258042,2.67379 -1.17379,0.78431 -2.412811,1.44658 -3.717064,1.98681 -1.304245,0.54025 -2.648658,0.94807 -4.033241,1.22348 C 80.809845,108.8623 79.411705,109 78,109 c -1.411713,0 -2.80986,-0.1377 -4.194443,-0.41312 -1.384582,-0.27541 -2.728996,-0.68323 -4.033249,-1.22348 -1.304252,-0.54023 -2.543281,-1.2025 -3.717071,-1.98681 -1.17379,-0.7843 -2.259804,-1.67557 -3.258034,-2.67379 -0.99823,-0.99823 -1.8895,-2.08425 -2.673805,-3.258044 C 59.339092,98.270958 58.676823,97.031937 58.136585,95.727684 57.596344,94.423439 57.188522,93.079025 56.913113,91.694443 56.637703,90.309853 56.5,88.911705 56.5,87.5 c 0,-1.411713 0.137703,-2.80986 0.413113,-4.19445 0.275409,-1.384591 0.683231,-2.729012 1.223472,-4.033257 0.540238,-1.304253 1.202511,-2.543274 1.986817,-3.717064 0.784305,-1.17379 1.675571,-2.259804 2.673801,-3.258026 0.99823,-0.99823 2.084244,-1.889503 3.258034,-2.673813 1.17379,-0.784294 2.412819,-1.446564 3.717071,-1.986809 1.304253,-0.540237 2.648667,-0.948059 4.033249,-1.223472 C 75.19014,66.137703 76.588287,66 78,66 c 1.411705,0 2.809845,0.137703 4.194435,0.413109 1.384583,0.275413 2.728996,0.683235 4.033241,1.223472 1.304253,0.540245 2.543274,1.202515 3.717072,1.986817 1.17379,0.784309 2.259796,1.675575 3.258034,2.673805 0.998222,0.998222 1.889488,2.084236 2.673797,3.258026 0.784302,1.17379 1.446572,2.412811 1.986817,3.717064 0.540237,1.304245 0.948059,2.648666 1.223472,4.033257 C 99.362289,84.69014 99.5,86.088287 99.5,87.5 Z"
               style="fill:#ffffff;fill-opacity:1;fill-rule:nonzero;stroke:none"
               id="path1227" />
            <path
               d="m 99.5,87.5 c 0,1.411705 -0.137711,2.809853 -0.413124,4.194443 -0.275414,1.384582 -0.683243,2.728996 -1.22348,4.033241 -0.540245,1.304253 -1.202515,2.543274 -1.986817,3.717072 -0.784309,1.173794 -1.675575,2.259814 -2.673797,3.258044 -0.998238,0.99822 -2.084252,1.88949 -3.258042,2.67379 -1.17379,0.78431 -2.412811,1.44658 -3.717064,1.98681 -1.304245,0.54025 -2.648658,0.94807 -4.033241,1.22348 C 80.809845,108.8623 79.411705,109 78,109 c -1.411713,0 -2.80986,-0.1377 -4.194443,-0.41312 -1.384582,-0.27541 -2.728996,-0.68323 -4.033249,-1.22348 -1.304252,-0.54023 -2.543281,-1.2025 -3.717071,-1.98681 -1.17379,-0.7843 -2.259804,-1.67557 -3.258034,-2.67379 -0.99823,-0.99823 -1.8895,-2.08425 -2.673805,-3.258044 C 59.339092,98.270958 58.676823,97.031937 58.136585,95.727684 57.596344,94.423439 57.188522,93.079025 56.913113,91.694443 56.637703,90.309853 56.5,88.911705 56.5,87.5 c 0,-1.411713 0.137703,-2.80986 0.413113,-4.19445 0.275409,-1.384591 0.683231,-2.729012 1.223472,-4.033257 0.540238,-1.304253 1.202511,-2.543274 1.986817,-3.717064 0.784305,-1.17379 1.675571,-2.259804 2.673801,-3.258026 0.99823,-0.99823 2.084244,-1.889503 3.258034,-2.673813 1.17379,-0.784294 2.412819,-1.446564 3.717071,-1.986809 1.304253,-0.540237 2.648667,-0.948059 4.033249,-1.223472 C 75.19014,66.137703 76.588287,66 78,66 c 1.411705,0 2.809845,0.137703 4.194435,0.413109 1.384583,0.275413 2.728996,0.683235 4.033241,1.223472 1.304253,0.540245 2.543274,1.202515 3.717072,1.986817 1.17379,0.784309 2.259796,1.675575 3.258034,2.673805 0.998222,0.998222 1.889488,2.084236 2.673797,3.258026 0.784302,1.17379 1.446572,2.412811 1.986817,3.717064 0.540237,1.304245 0.948059,2.648666 1.223472,4.033257 C 99.362289,84.69014 99.5,86.088287 99.5,87.5 Z"
               style="fill:none;stroke:#000000;stroke-width:1;stroke-linecap:butt;stroke-linejoin:miter;stroke-miterlimit:10;stroke-dasharray:none;stroke-opacity:1"
               id="path1229" />
            <path
               d="m 55.5,86.470001 7.5,-0.11 c 5,-0.06667 10.833336,-0.1 17.5,-0.1 h 20"
               style="fill:none;stroke:#000000;stroke-width:1;stroke-linecap:butt;stroke-linejoin:miter;stroke-miterlimit:10;stroke-dasharray:none;stroke-opacity:1"
               id="path1231" />
          </g>
          <g
             id="g1233"
             transform="scale(2.997489)">
            <text
               transform="translate(70.171875,81)"
               style="font-variant:normal;font-weight:normal;font-size:12px;font-family:Helvetica;-inkscape-font-specification:Helvetica;writing-mode:lr-tb;fill:#000000;fill-opacity:1;fill-rule:nonzero;stroke:none"
               id="text1237"><tspan
                 x="0 8.0039062"
                 y="0"
                 sodipodi:role="line"
                 id="tspan1235">PC</tspan></text>
          </g>
          <g
             id="g1239"
             transform="matrix(2.997489,0,0,2.997489,1.4987445,1.4987445)">
            <path
               d="m 221,543.5 c -2e-5,1.41168 -0.13773,2.80981 -0.41313,4.1944 -0.27544,1.38458 -0.68326,2.72894 -1.2235,4.0332 -0.54023,1.30426 -1.2025,2.54334 -1.98681,3.71716 -0.78429,1.17377 -1.67556,2.25977 -2.67377,3.258 -0.99823,0.99817 -2.08424,1.8894 -3.25806,2.6737 -1.17378,0.78437 -2.41281,1.44666 -3.71705,1.98688 -1.30425,0.54022 -2.64867,0.94806 -4.03325,1.22351 -1.38459,0.27539 -2.78273,0.41309 -4.19443,0.41315 -1.41173,-6e-5 -2.80988,-0.13776 -4.19446,-0.41315 -1.3846,-0.27545 -2.72903,-0.68329 -4.03328,-1.22351 -1.30424,-0.54022 -2.54327,-1.20251 -3.71705,-1.98688 -1.1738,-0.7843 -2.25982,-1.67553 -3.25803,-2.6737 -0.99823,-0.99823 -1.8895,-2.08423 -2.67381,-3.258 -0.78432,-1.17376 -1.44658,-2.41284 -1.98682,-3.7171 -0.54024,-1.30426 -0.94804,-2.64868 -1.22345,-4.03326 C 178.1377,546.30981 178,544.91168 178,543.5 c 0,-1.41174 0.1377,-2.80988 0.4131,-4.19446 0.27541,-1.38458 0.68321,-2.729 1.22345,-4.03326 0.54024,-1.30426 1.2025,-2.54334 1.98682,-3.7171 0.78431,-1.17377 1.67558,-2.25977 2.67381,-3.258 0.99821,-0.99823 2.08423,-1.88953 3.25803,-2.67383 1.17378,-0.78436 2.41281,-1.44659 3.71707,-1.98681 1.30424,-0.54023 2.64866,-0.94806 4.03326,-1.22345 C 196.69012,522.1377 198.08827,522 199.5,522 c 1.4117,0 2.80984,0.1377 4.19441,0.41309 1.3846,0.27539 2.72902,0.68322 4.03327,1.22345 1.30424,0.54022 2.54327,1.20245 3.71707,1.98681 1.1738,0.7843 2.25981,1.6756 3.25804,2.67383 0.99821,0.99823 1.88948,2.08423 2.6738,3.258 0.78428,1.17376 1.44655,2.41284 1.98678,3.7171 0.54024,1.30426 0.94806,2.64868 1.22348,4.03326 0.27542,1.38458 0.41313,2.78272 0.41315,4.19446 z"
               style="fill:#ffffff;fill-opacity:1;fill-rule:nonzero;stroke:none"
               id="path1241" />
            <path
               d="m 221,543.5 c -2e-5,1.41168 -0.13773,2.80981 -0.41313,4.1944 -0.27544,1.38458 -0.68326,2.72894 -1.2235,4.0332 -0.54023,1.30426 -1.2025,2.54334 -1.98681,3.71716 -0.78429,1.17377 -1.67556,2.25977 -2.67377,3.258 -0.99823,0.99817 -2.08424,1.8894 -3.25806,2.6737 -1.17378,0.78437 -2.41281,1.44666 -3.71705,1.98688 -1.30425,0.54022 -2.64867,0.94806 -4.03325,1.22351 -1.38459,0.27539 -2.78273,0.41309 -4.19443,0.41315 -1.41173,-6e-5 -2.80988,-0.13776 -4.19446,-0.41315 -1.3846,-0.27545 -2.72903,-0.68329 -4.03328,-1.22351 -1.30424,-0.54022 -2.54327,-1.20251 -3.71705,-1.98688 -1.1738,-0.7843 -2.25982,-1.67553 -3.25803,-2.6737 -0.99823,-0.99823 -1.8895,-2.08423 -2.67381,-3.258 -0.78432,-1.17376 -1.44658,-2.41284 -1.98682,-3.7171 -0.54024,-1.30426 -0.94804,-2.64868 -1.22345,-4.03326 C 178.1377,546.30981 178,544.91168 178,543.5 c 0,-1.41174 0.1377,-2.80988 0.4131,-4.19446 0.27541,-1.38458 0.68321,-2.729 1.22345,-4.03326 0.54024,-1.30426 1.2025,-2.54334 1.98682,-3.7171 0.78431,-1.17377 1.67558,-2.25977 2.67381,-3.258 0.99821,-0.99823 2.08423,-1.88953 3.25803,-2.67383 1.17378,-0.78436 2.41281,-1.44659 3.71707,-1.98681 1.30424,-0.54023 2.64866,-0.94806 4.03326,-1.22345 C 196.69012,522.1377 198.08827,522 199.5,522 c 1.4117,0 2.80984,0.1377 4.19441,0.41309 1.3846,0.27539 2.72902,0.68322 4.03327,1.22345 1.30424,0.54022 2.54327,1.20245 3.71707,1.98681 1.1738,0.7843 2.25981,1.6756 3.25804,2.67383 0.99821,0.99823 1.88948,2.08423 2.6738,3.258 0.78428,1.17376 1.44655,2.41284 1.98678,3.7171 0.54024,1.30426 0.94806,2.64868 1.22348,4.03326 0.27542,1.38458 0.41313,2.78272 0.41315,4.19446 z"
               style="fill:none;stroke:#000000;stroke-width:1;stroke-linecap:butt;stroke-linejoin:miter;stroke-miterlimit:10;stroke-dasharray:none;stroke-opacity:1"
               id="path1243" />
            <path
               d="m 177,542.46997 7.5,-0.1 c 5,-0.0733 10.83333,-0.10999 17.5,-0.10999 h 20"
               style="fill:none;stroke:#000000;stroke-width:1;stroke-linecap:butt;stroke-linejoin:miter;stroke-miterlimit:10;stroke-dasharray:none;stroke-opacity:1"
               id="path1245" />
          </g>
          <g
             id="g1247"
             transform="scale(2.997489)">
            <text
               transform="translate(192.82813,537)"
               style="font-variant:normal;font-weight:normal;font-size:12px;font-family:Helvetica;-inkscape-font-specification:Helvetica;writing-mode:lr-tb;fill:#000000;fill-opacity:1;fill-rule:nonzero;stroke:none"
               id="text1251"><tspan
                 x="0 6.6738281"
                 y="0"
                 sodipodi:role="line"
                 id="tspan1249">LC</tspan></text>
          </g>
          <g
             id="g1253"
             transform="matrix(2.997489,0,0,2.997489,1.4987445,1.4987445)">
            <path
               d="m 218.99818,542 2.99999,-0.0109 0.004,1 -2.99998,0.0109 -0.004,-1 z m 5.99996,-0.0217 2.99998,-0.0109 0.004,1 -2.99998,0.0109 z m 5.99997,-0.0217 2.99998,-0.0109 0.004,1 -2.99998,0.0109 z m 5.99995,-0.0217 2.99999,-0.0109 0.004,1 -2.99999,0.0109 z m 5.99997,-0.0217 2.99997,-0.0109 0.004,1 -2.99997,0.0109 z m 5.99996,-0.0217 2.99998,-0.0109 0.004,1 -2.99998,0.0109 z m 5.99995,-0.0217 3.00002,-0.0109 0.004,1 -2.99999,0.0109 -0.004,-1 z m 5.99998,-0.0218 2.99997,-0.0109 0.004,1 -2.99997,0.0109 z m 5.99997,-0.0217 2.99997,-0.0109 0.004,1 -2.99996,0.0109 -0.004,-1 z m 5.99994,-0.0217 3,-0.0109 0.004,1 -3,0.0109 z m 5.99997,-0.0217 2.99997,-0.0109 0.004,1 -2.99997,0.0109 z m 5.99997,-0.0217 2.99997,-0.0109 0.004,1 -2.99997,0.0109 z m 5.99994,-0.0217 3,-0.0109 0.004,1 -3,0.0109 z m 5.99997,-0.0217 2.99997,-0.0109 0.004,1 -2.99997,0.0109 z m 5.99997,-0.0217 2.99997,-0.0109 0.004,1 -2.99997,0.0109 z m 5.99997,-0.0217 2.99997,-0.0109 0.004,1 -2.99997,0.0109 z m 5.99997,-0.0217 2.99997,-0.0109 0.004,1 -2.99997,0.0109 z m 5.99994,-0.0217 3,-0.0109 0.004,1 -3,0.0109 z m 5.99997,-0.0217 2.99997,-0.0109 0.004,1 -2.99997,0.0109 z m 5.99997,-0.0217 2.99997,-0.0109 0.004,1 -2.99997,0.0109 z m 5.99994,-0.0218 3,-0.0109 0.004,1 -3,0.0109 z m 5.99997,-0.0217 1.00082,-0.004 c 0.7327,-0.003 1.42252,-0.0469 2.0694,-0.13202 l 0.13031,0.99145 c -0.68891,0.0906 -1.42093,0.13746 -2.19611,0.14057 l -1.00082,0.004 -0.004,-1 z m 5.76464,-0.8241 c 0.91272,-0.37555 1.69159,-0.88073 2.33664,-1.5155 l 0.70142,0.71277 c -0.73825,0.7265 -1.62409,1.30231 -2.6575,1.72754 z m 3.88053,-3.81781 c 0.33853,-0.79278 0.57681,-1.68939 0.7149,-2.68982 l 0.9906,0.13672 c -0.1503,1.08893 -0.41223,2.07086 -0.78582,2.9458 z M 355.5,531.14676 v -3 h 1 v 3 z m 0,-6 v -3 h 1 v 3 z m 0,-6 v -3 h 1 v 3 z m 0,-6 v -3 h 1 v 3 z m 0,-6 v -3 h 1 v 3 z m 0,-6 v -0.14624 h 1 v 0.14624 z"
               style="fill:#000000;fill-opacity:1;fill-rule:nonzero;stroke:none"
               id="path1255" />
            <path
               d="m 177.99226,543.99994 -2.99965,-0.0464 0.0155,-0.99988 2.99965,0.0464 z m -5.99928,-0.0927 -2.99965,-0.0464 0.0155,-0.99988 2.99965,0.0464 z m -5.99928,-0.0927 -2.99964,-0.0464 0.0155,-0.99988 2.99963,0.0464 -0.0155,0.99987 z m -5.99927,-0.0928 -2.99965,-0.0463 0.0154,-0.99988 2.99965,0.0463 z m -6.1926,-0.2279 c -1.08354,-0.15497 -2.06222,-0.41681 -2.93605,-0.7854 l 0.38864,-0.92139 c 0.79458,0.33514 1.69091,0.57416 2.68898,0.71692 z m -5.58281,-2.52759 c -0.73687,-0.7284 -1.32429,-1.60065 -1.76223,-2.6167 l 0.91833,-0.39575 c 0.3866,0.89697 0.90222,1.66406 1.54688,2.30127 z m -2.55958,-5.5622 C 145.55315,534.6535 145.5,533.85217 145.5,533 v -0.79779 h 1 V 533 c 0,0.80524 0.0498,1.55988 0.14955,2.26379 z M 145.5,529.20221 v -3 h 1 v 3 z m 0,-6 v -3 h 1 v 3 z m 0,-6 v -3 h 1 v 3 z m 0,-6 v -3 h 1 v 3 z m 0,-6 v -3 h 1 v 3 z m 0,-6 v -3 h 1 v 3 z m 0,-6 v -3 h 1 v 3 z m 0,-6 v -3 h 1 v 3 z m 0,-6 v -3 h 1 v 3 z m 0,-6 v -3 h 1 v 3 z m 0,-6 v -3 h 1 v 3 z m 0,-6 v -3 h 1 v 3 z m 0,-6 v -3 h 1 v 3 z m 0,-6 v -3 h 1 v 3 z m 0,-6 v -3 h 1 v 3 z m 0,-6 v -3 h 1 v 3 z m 0,-6 v -3 h 1 v 3 z m 0,-6 v -3 h 1 v 3 z m 0,-6 v -3 h 1 v 3 z m 0,-6 v -3 h 1 v 3 z m 0,-6 v -3 h 1 v 3 z m 0,-6 v -3 h 1 v 3 z m 0,-6 v -3 h 1 v 3 z m 0,-6 v -3 h 1 v 3 z m 0,-6 v -3 h 1 v 3 z m 0,-6 v -3 h 1 v 3 z m 0,-6 v -3 h 1 v 3 z m 0,-6 v -3 h 1 v 3 z m 0,-6 v -3 h 1 v 3 z m 0,-6 v -3 h 1 v 3 z m 0,-6 v -1.87222 h 1 v 1.87222 z"
               style="fill:#000000;fill-opacity:1;fill-rule:nonzero;stroke:none"
               id="path1257" />
            <path
               d="m 501,22.5 c -3e-5,1.411709 -0.13773,2.809855 -0.41315,4.194439 -0.27542,1.384584 -0.68322,2.729002 -1.22348,4.033253 -0.54025,1.304248 -1.20251,2.543274 -1.98681,3.717067 -0.78434,1.173794 -1.6756,2.259808 -2.6738,3.258038 -0.99823,0.99823 -2.08426,1.889496 -3.25806,2.673798 -1.1738,0.784305 -2.41284,1.446575 -3.71707,1.986812 -1.30426,0.540238 -2.64868,0.948063 -4.03326,1.223473 -1.38456,0.275409 -2.78266,0.413116 -4.19437,0.41312 -1.41174,-4e-6 -2.80991,-0.137711 -4.19449,-0.41312 -1.38458,-0.27541 -2.729,-0.683235 -4.03326,-1.223473 -1.30423,-0.540237 -2.54328,-1.202507 -3.71707,-1.986809 -1.1738,-0.784305 -2.2598,-1.675571 -3.25803,-2.673801 -0.99823,-0.99823 -1.8895,-2.084244 -2.67383,-3.258041 -0.7843,-1.173794 -1.44656,-2.412816 -1.98681,-3.717066 -0.54023,-1.304251 -0.94803,-2.648667 -1.22342,-4.033251 C 458.13766,25.309855 457.99997,23.911709 458,22.5 c -3e-5,-1.411711 0.13763,-2.809858 0.41306,-4.194443 0.27542,-1.384584 0.68322,-2.729002 1.22345,-4.033251 0.54025,-1.30425 1.20251,-2.543272 1.98681,-3.717067 0.78433,-1.1737941 1.6756,-2.259806 2.67383,-3.2580355 0.99823,-0.9982299 2.08423,-1.8894968 3.25803,-2.6738009 1.17379,-0.7843041 2.41284,-1.4465752 3.71707,-1.9868131 1.30426,-0.5402379 2.64868,-0.9480623 4.03329,-1.2234732 C 476.69009,1.1377054 478.08826,1 479.5,1 c 1.41171,0 2.80984,0.1377054 4.1944,0.4131163 1.38455,0.2754109 2.72897,0.6832353 4.03323,1.2234732 1.30423,0.5402379 2.54327,1.202509 3.71707,1.9868131 1.1738,0.7843041 2.25983,1.675571 3.25806,2.6738009 0.9982,0.9982295 1.88946,2.0842414 2.6738,3.2580355 0.7843,1.173795 1.44656,2.412817 1.98681,3.717067 0.54026,1.304249 0.94806,2.648665 1.22348,4.033249 0.27542,1.384587 0.41312,2.782734 0.41315,4.194445 z"
               style="fill:#ffffff;fill-opacity:1;fill-rule:nonzero;stroke:none"
               id="path1259" />
            <path
               d="m 501,22.5 c -3e-5,1.411709 -0.13773,2.809855 -0.41315,4.194439 -0.27542,1.384584 -0.68322,2.729002 -1.22348,4.033253 -0.54025,1.304248 -1.20251,2.543274 -1.98681,3.717067 -0.78434,1.173794 -1.6756,2.259808 -2.6738,3.258038 -0.99823,0.99823 -2.08426,1.889496 -3.25806,2.673798 -1.1738,0.784305 -2.41284,1.446575 -3.71707,1.986812 -1.30426,0.540238 -2.64868,0.948063 -4.03326,1.223473 -1.38456,0.275409 -2.78266,0.413116 -4.19437,0.41312 -1.41174,-4e-6 -2.80991,-0.137711 -4.19449,-0.41312 -1.38458,-0.27541 -2.729,-0.683235 -4.03326,-1.223473 -1.30423,-0.540237 -2.54328,-1.202507 -3.71707,-1.986809 -1.1738,-0.784305 -2.2598,-1.675571 -3.25803,-2.673801 -0.99823,-0.99823 -1.8895,-2.084244 -2.67383,-3.258041 -0.7843,-1.173794 -1.44656,-2.412816 -1.98681,-3.717066 -0.54023,-1.304251 -0.94803,-2.648667 -1.22342,-4.033251 C 458.13766,25.309855 457.99997,23.911709 458,22.5 c -3e-5,-1.411711 0.13763,-2.809858 0.41306,-4.194443 0.27542,-1.384584 0.68322,-2.729002 1.22345,-4.033251 0.54025,-1.30425 1.20251,-2.543272 1.98681,-3.717067 0.78433,-1.1737941 1.6756,-2.259806 2.67383,-3.2580355 0.99823,-0.9982299 2.08423,-1.8894968 3.25803,-2.6738009 1.17379,-0.7843041 2.41284,-1.4465752 3.71707,-1.9868131 1.30426,-0.5402379 2.64868,-0.9480623 4.03329,-1.2234732 C 476.69009,1.1377054 478.08826,1 479.5,1 c 1.41171,0 2.80984,0.1377054 4.1944,0.4131163 1.38455,0.2754109 2.72897,0.6832353 4.03323,1.2234732 1.30423,0.5402379 2.54327,1.202509 3.71707,1.9868131 1.1738,0.7843041 2.25983,1.675571 3.25806,2.6738009 0.9982,0.9982295 1.88946,2.0842414 2.6738,3.2580355 0.7843,1.173795 1.44656,2.412817 1.98681,3.717067 0.54026,1.304249 0.94806,2.648665 1.22348,4.033249 0.27542,1.384587 0.41312,2.782734 0.41315,4.194445 z"
               style="fill:none;stroke:#000000;stroke-width:1;stroke-linecap:butt;stroke-linejoin:miter;stroke-miterlimit:10;stroke-dasharray:none;stroke-opacity:1"
               id="path1261" />
            <path
               d="m 457,21.469999 7.5,-0.109998 C 469.5,21.293333 475.33334,21.26 482,21.26 h 20"
               style="fill:none;stroke:#000000;stroke-width:1;stroke-linecap:butt;stroke-linejoin:miter;stroke-miterlimit:10;stroke-dasharray:none;stroke-opacity:1"
               id="path1263" />
          </g>
          <g
             id="g1265"
             transform="scale(2.997489)">
            <text
               transform="translate(472.82813,16)"
               style="font-variant:normal;font-weight:normal;font-size:12px;font-family:Helvetica;-inkscape-font-specification:Helvetica;writing-mode:lr-tb;fill:#000000;fill-opacity:1;fill-rule:nonzero;stroke:none"
               id="text1269"><tspan
                 x="0 6.6738281"
                 y="0"
                 sodipodi:role="line"
                 id="tspan1267">LC</tspan></text>
          </g>
          <g
             id="g1271"
             transform="matrix(2.997489,0,0,2.997489,1.4987445,1.4987445)">
            <path
               d="m 438,90.5 h 3 v 1 h -3 z m 6,0 h 3 v 1 h -3 z m 6.07147,-0.123978 c 1.00134,-0.127746 1.90006,-0.354065 2.69614,-0.678955 l 0.37787,0.925858 c -0.87702,0.357902 -1.8595,0.606254 -2.94748,0.745056 z m 5.03415,-2.189109 c 0.64487,-0.633675 1.15918,-1.401238 1.54288,-2.302704 l 0.9201,0.391662 c -0.43551,1.023155 -1.02288,1.897927 -1.76211,2.624314 z m 2.25415,-4.992508 C 457.45325,82.511139 457.49997,81.779671 457.5,81 v -0.872475 h 1 V 81 c 0,0.825134 -0.0498,1.601784 -0.14944,2.329948 z M 457.5,77.127525 v -3 h 1 v 3 z m 0,-6 v -3 h 1 v 3 z m 0,-6 v -3 h 1 v 3 z m 0,-6 v -3 h 1 v 3 z m 0,-6 v -3 h 1 v 3 z m 0,-6 v -3 h 1 v 3 z m 0,-6 v -3 h 1 v 3 z m 0,-6 v -3 h 1 v 3 z m 0,-6 v -3 h 1 v 3 z m 0,-6 V 21 h 1 v 2.127525 z"
               style="fill:#000000;fill-opacity:1;fill-rule:nonzero;stroke:none"
               id="path1273" />
            <path
               d="m 450.54578,121.9402 2.99878,-0.0853 0.0284,0.9996 -2.99878,0.0853 z m 5.99759,-0.17055 2.99877,-0.0853 0.0284,0.9996 -2.99878,0.0853 -0.0284,-0.9996 z m 5.99755,-0.17056 2.99878,-0.0853 0.0285,0.9996 -2.99878,0.0853 -0.0284,-0.9996 z m 5.99759,-0.17056 2.99878,-0.0853 0.0284,0.99961 -2.99877,0.0853 -0.0285,-0.99961 z m 5.99756,-0.17055 2.99878,-0.0853 0.0284,0.9996 -2.99878,0.0853 z m 5.99759,-0.17055 2.99878,-0.0853 0.0284,0.99961 -2.99878,0.0853 -0.0284,-0.9996 z m 5.99756,-0.17055 2.99881,-0.0853 0.0284,0.9996 -2.99881,0.0853 z m 6.07025,-0.24687 c 0.99655,-0.12378 1.89777,-0.33679 2.70364,-0.639 l 0.35114,0.93633 c -0.87964,0.32986 -1.85681,0.56154 -2.93149,0.69504 z m 5.15436,-2.07869 c 0.68246,-0.6017 1.23718,-1.32946 1.66409,-2.18329 l 0.89441,0.44723 c -0.48495,0.96993 -1.11734,1.79865 -1.89719,2.48616 z m 2.51794,-4.847 C 500.42456,112.9051 500.49997,111.99033 500.5,111 v -0.28429 h 1 V 111 c 0,1.04981 -0.0807,2.02354 -0.24197,2.92118 z M 500.5,107.71571 v -3 h 1 v 3 z m 0,-6 v -2.999996 h 1 v 2.999996 z m 0,-5.999996 v -3 h 1 v 3 z m 0,-6 v -3 h 1 v 3 z m 0,-6 v -3 h 1 v 3 z m 0,-6 v -3 h 1 v 3 z m 0,-6 v -3 h 1 v 3 z m 0,-6 v -2.999997 h 1 v 2.999997 z m 0,-5.999997 v -3 h 1 v 3 z m 0,-6 v -3 h 1 v 3 z m 0,-6 v -3.000003 h 1 v 3.000003 z m 0,-6.000003 v -3 h 1 v 3 z m 0,-6 v -3 h 1 v 3 z m 0,-6 v -3 h 1 v 3 z m 0,-6 V 21 h 1 v 2.715714 z"
               style="fill:#000000;fill-opacity:1;fill-rule:nonzero;stroke:none"
               id="path1275" />
            <path
               d="m 311,192.99001 c -3e-5,1.41169 -0.13773,2.80984 -0.41315,4.19442 -0.27542,1.38457 -0.68322,2.72899 -1.22348,4.03324 -0.54025,1.30424 -1.20251,2.54327 -1.98681,3.71705 -0.78427,1.1738 -1.67554,2.25981 -2.67377,3.25806 -0.99826,0.99821 -2.08426,1.88948 -3.25806,2.67378 -1.17379,0.78432 -2.41281,1.44658 -3.71704,1.98682 -1.30426,0.54024 -2.64868,0.94807 -4.03326,1.22349 -1.38462,0.27542 -2.78275,0.41314 -4.19443,0.41314 -1.41171,0 -2.80984,-0.13772 -4.19446,-0.41312 -1.38461,-0.27542 -2.72903,-0.68326 -4.03326,-1.2235 -1.30426,-0.54023 -2.54328,-1.20251 -3.71707,-1.98683 -1.1738,-0.7843 -2.2598,-1.67557 -3.25803,-2.67378 -0.99823,-0.99825 -1.8895,-2.08426 -2.6738,-3.25806 -0.78433,-1.17378 -1.44659,-2.41281 -1.98681,-3.71705 -0.54023,-1.30425 -0.94803,-2.64867 -1.22345,-4.03324 C 268.1377,195.79985 268,194.4017 268,192.99001 c 0,-1.41172 0.1377,-2.80986 0.41312,-4.19446 0.27542,-1.3846 0.68322,-2.72902 1.22345,-4.03328 0.54022,-1.30425 1.20248,-2.54328 1.98681,-3.71706 0.7843,-1.1738 1.67557,-2.25981 2.6738,-3.25802 0.99823,-0.99823 2.08423,-1.8895 3.25803,-2.6738 1.17379,-0.7843 2.41281,-1.44658 3.71707,-1.98682 1.30423,-0.54022 2.64865,-0.94804 4.03326,-1.22345 1.38462,-0.2754 2.78275,-0.41311 4.19446,-0.41311 1.41168,0 2.80981,0.13771 4.19443,0.41311 1.38458,0.27541 2.729,0.68323 4.03326,1.22345 1.30423,0.54024 2.54325,1.20252 3.71704,1.98682 1.1738,0.7843 2.2598,1.67557 3.25806,2.6738 0.99823,0.99821 1.8895,2.08422 2.67377,3.25802 0.7843,1.17378 1.44656,2.41281 1.98681,3.71706 0.54026,1.30426 0.94806,2.64868 1.22348,4.03328 0.27542,1.3846 0.41312,2.78274 0.41315,4.19446 z"
               style="fill:#ffffff;fill-opacity:1;fill-rule:nonzero;stroke:none"
               id="path1277" />
            <path
               d="m 311,192.99001 c -3e-5,1.41169 -0.13773,2.80984 -0.41315,4.19442 -0.27542,1.38457 -0.68322,2.72899 -1.22348,4.03324 -0.54025,1.30424 -1.20251,2.54327 -1.98681,3.71705 -0.78427,1.1738 -1.67554,2.25981 -2.67377,3.25806 -0.99826,0.99821 -2.08426,1.88948 -3.25806,2.67378 -1.17379,0.78432 -2.41281,1.44658 -3.71704,1.98682 -1.30426,0.54024 -2.64868,0.94807 -4.03326,1.22349 -1.38462,0.27542 -2.78275,0.41314 -4.19443,0.41314 -1.41171,0 -2.80984,-0.13772 -4.19446,-0.41312 -1.38461,-0.27542 -2.72903,-0.68326 -4.03326,-1.2235 -1.30426,-0.54023 -2.54328,-1.20251 -3.71707,-1.98683 -1.1738,-0.7843 -2.2598,-1.67557 -3.25803,-2.67378 -0.99823,-0.99825 -1.8895,-2.08426 -2.6738,-3.25806 -0.78433,-1.17378 -1.44659,-2.41281 -1.98681,-3.71705 -0.54023,-1.30425 -0.94803,-2.64867 -1.22345,-4.03324 C 268.1377,195.79985 268,194.4017 268,192.99001 c 0,-1.41172 0.1377,-2.80986 0.41312,-4.19446 0.27542,-1.3846 0.68322,-2.72902 1.22345,-4.03328 0.54022,-1.30425 1.20248,-2.54328 1.98681,-3.71706 0.7843,-1.1738 1.67557,-2.25981 2.6738,-3.25802 0.99823,-0.99823 2.08423,-1.8895 3.25803,-2.6738 1.17379,-0.7843 2.41281,-1.44658 3.71707,-1.98682 1.30423,-0.54022 2.64865,-0.94804 4.03326,-1.22345 1.38462,-0.2754 2.78275,-0.41311 4.19446,-0.41311 1.41168,0 2.80981,0.13771 4.19443,0.41311 1.38458,0.27541 2.729,0.68323 4.03326,1.22345 1.30423,0.54024 2.54325,1.20252 3.71704,1.98682 1.1738,0.7843 2.2598,1.67557 3.25806,2.6738 0.99823,0.99821 1.8895,2.08422 2.67377,3.25802 0.7843,1.17378 1.44656,2.41281 1.98681,3.71706 0.54026,1.30426 0.94806,2.64868 1.22348,4.03328 0.27542,1.3846 0.41312,2.78274 0.41315,4.19446 z"
               style="fill:none;stroke:#000000;stroke-width:1;stroke-linecap:butt;stroke-linejoin:miter;stroke-miterlimit:10;stroke-dasharray:none;stroke-opacity:1"
               id="path1279" />
            <path
               d="m 267,191.96001 7.5,-0.10001 c 5,-0.0733 10.83334,-0.11 17.5,-0.11 h 20"
               style="fill:none;stroke:#000000;stroke-width:1;stroke-linecap:butt;stroke-linejoin:miter;stroke-miterlimit:10;stroke-dasharray:none;stroke-opacity:1"
               id="path1281" />
          </g>
          <g
             id="g1283"
             transform="scale(2.997489)">
            <text
               transform="translate(278.82813,186)"
               style="font-variant:normal;font-weight:normal;font-size:12px;font-family:Helvetica;-inkscape-font-specification:Helvetica;writing-mode:lr-tb;fill:#000000;fill-opacity:1;fill-rule:nonzero;stroke:none"
               id="text1287"><tspan
                 x="0 8.6660156 16.669922"
                 y="0"
                 sodipodi:role="line"
                 id="tspan1285">CV1</tspan></text>
          </g>
          <g
             id="g1289"
             transform="matrix(2.997489,0,0,2.997489,1.4987445,1.4987445)">
            <path
               d="m 311,292.5 c -3e-5,1.41171 -0.13773,2.80981 -0.41315,4.19437 -0.27542,1.38461 -0.68322,2.72903 -1.22348,4.03329 -0.54025,1.30423 -1.20251,2.54324 -1.98681,3.71704 -0.78427,1.1738 -1.67554,2.25983 -2.67377,3.25806 -0.99826,0.9982 -2.08426,1.88946 -3.25806,2.6738 -1.17379,0.7843 -2.41281,1.44656 -3.71704,1.98681 -1.30426,0.54026 -2.64868,0.94806 -4.03326,1.22348 -1.38462,0.27542 -2.78275,0.41312 -4.19443,0.41315 -1.41171,-3e-5 -2.80984,-0.13773 -4.19446,-0.41315 -1.38461,-0.27542 -2.72903,-0.68322 -4.03326,-1.22348 -1.30426,-0.54025 -2.54328,-1.20251 -3.71707,-1.98681 -1.1738,-0.78434 -2.2598,-1.6756 -3.25803,-2.6738 -0.99823,-0.99823 -1.8895,-2.08426 -2.6738,-3.25806 -0.78433,-1.1738 -1.44659,-2.41281 -1.98681,-3.71704 -0.54023,-1.30426 -0.94803,-2.64868 -1.22345,-4.03329 C 268.1377,295.30981 268,293.91171 268,292.5 c 0,-1.41171 0.1377,-2.80988 0.41312,-4.19446 0.27542,-1.38458 0.68322,-2.729 1.22345,-4.03326 0.54022,-1.30426 1.20248,-2.54328 1.98681,-3.71707 0.7843,-1.1738 1.67557,-2.25983 2.6738,-3.25803 0.99823,-0.99823 2.08423,-1.8895 3.25803,-2.6738 1.17379,-0.7843 2.41281,-1.44656 3.71707,-1.98681 1.30423,-0.54023 2.64865,-0.94806 4.03326,-1.22348 C 286.69016,271.1377 288.08829,271 289.5,271 c 1.41168,0 2.80981,0.1377 4.19443,0.41309 1.38458,0.27542 2.729,0.68325 4.03326,1.22348 1.30423,0.54025 2.54325,1.20251 3.71704,1.98681 1.1738,0.7843 2.2598,1.67557 3.25806,2.6738 0.99823,0.9982 1.8895,2.08423 2.67377,3.25803 0.7843,1.17379 1.44656,2.41281 1.98681,3.71707 0.54026,1.30426 0.94806,2.64868 1.22348,4.03326 0.27542,1.38458 0.41312,2.78275 0.41315,4.19446 z"
               style="fill:#ffffff;fill-opacity:1;fill-rule:nonzero;stroke:none"
               id="path1291" />
            <path
               d="m 311,292.5 c -3e-5,1.41171 -0.13773,2.80981 -0.41315,4.19437 -0.27542,1.38461 -0.68322,2.72903 -1.22348,4.03329 -0.54025,1.30423 -1.20251,2.54324 -1.98681,3.71704 -0.78427,1.1738 -1.67554,2.25983 -2.67377,3.25806 -0.99826,0.9982 -2.08426,1.88946 -3.25806,2.6738 -1.17379,0.7843 -2.41281,1.44656 -3.71704,1.98681 -1.30426,0.54026 -2.64868,0.94806 -4.03326,1.22348 -1.38462,0.27542 -2.78275,0.41312 -4.19443,0.41315 -1.41171,-3e-5 -2.80984,-0.13773 -4.19446,-0.41315 -1.38461,-0.27542 -2.72903,-0.68322 -4.03326,-1.22348 -1.30426,-0.54025 -2.54328,-1.20251 -3.71707,-1.98681 -1.1738,-0.78434 -2.2598,-1.6756 -3.25803,-2.6738 -0.99823,-0.99823 -1.8895,-2.08426 -2.6738,-3.25806 -0.78433,-1.1738 -1.44659,-2.41281 -1.98681,-3.71704 -0.54023,-1.30426 -0.94803,-2.64868 -1.22345,-4.03329 C 268.1377,295.30981 268,293.91171 268,292.5 c 0,-1.41171 0.1377,-2.80988 0.41312,-4.19446 0.27542,-1.38458 0.68322,-2.729 1.22345,-4.03326 0.54022,-1.30426 1.20248,-2.54328 1.98681,-3.71707 0.7843,-1.1738 1.67557,-2.25983 2.6738,-3.25803 0.99823,-0.99823 2.08423,-1.8895 3.25803,-2.6738 1.17379,-0.7843 2.41281,-1.44656 3.71707,-1.98681 1.30423,-0.54023 2.64865,-0.94806 4.03326,-1.22348 C 286.69016,271.1377 288.08829,271 289.5,271 c 1.41168,0 2.80981,0.1377 4.19443,0.41309 1.38458,0.27542 2.729,0.68325 4.03326,1.22348 1.30423,0.54025 2.54325,1.20251 3.71704,1.98681 1.1738,0.7843 2.2598,1.67557 3.25806,2.6738 0.99823,0.9982 1.8895,2.08423 2.67377,3.25803 0.7843,1.17379 1.44656,2.41281 1.98681,3.71707 0.54026,1.30426 0.94806,2.64868 1.22348,4.03326 0.27542,1.38458 0.41312,2.78275 0.41315,4.19446 z"
               style="fill:none;stroke:#000000;stroke-width:1;stroke-linecap:butt;stroke-linejoin:miter;stroke-miterlimit:10;stroke-dasharray:none;stroke-opacity:1"
               id="path1293" />
            <path
               d="m 267,291.47 7.5,-0.1 c 5,-0.0733 10.83334,-0.10999 17.5,-0.10999 h 20"
               style="fill:none;stroke:#000000;stroke-width:1;stroke-linecap:butt;stroke-linejoin:miter;stroke-miterlimit:10;stroke-dasharray:none;stroke-opacity:1"
               id="path1295" />
          </g>
          <g
             id="g1297"
             transform="scale(2.997489)">
            <text
               transform="translate(277.82813,286)"
               style="font-variant:normal;font-weight:normal;font-size:12px;font-family:Helvetica;-inkscape-font-specification:Helvetica;writing-mode:lr-tb;fill:#000000;fill-opacity:1;fill-rule:nonzero;stroke:none"
               id="text1301"><tspan
                 x="0 8.6660156 16.669922"
                 y="0"
                 sodipodi:role="line"
                 id="tspan1299">CV2</tspan></text>
          </g>
          <g
             id="g1303"
             transform="matrix(2.997489,0,0,2.997489,1.4987445,1.4987445)">
            <path
               d="m 311,290.5 h 3 v 1 h -3 z m 6,0 h 3 v 1 h -3 z m 6,0 h 3 v 1 h -3 z m 6,0 h 3 v 1 h -3 z m 6,0 h 3 v 1 h -3 z m 6,0 h 3 v 1 h -3 z m 6,0 h 1 c 0.77533,3e-5 1.508,0.044 2.198,0.13202 l -0.12653,0.99194 C 349.42355,291.54129 348.73306,291.49997 348,291.5 h -1 z m 6.14548,0.87708 c 1.03518,0.42248 1.92218,0.99673 2.66101,1.72274 l -0.70087,0.71326 c -0.64511,-0.63394 -1.42447,-1.13733 -2.33801,-1.51016 z m 4.42309,4.34704 c 0.37226,0.87451 0.63291,1.85648 0.78199,2.94592 l -0.99079,0.13556 c -0.13693,-1.00094 -0.37405,-1.89755 -0.7113,-2.68982 z m 0.93143,6.14835 v 3 h -1 v -3 z m 0,6 v 3 h -1 v -3 z m 0,6 v 3 h -1 v -3 z m 0,6 v 3 h -1 v -3 z m 0,6 v 3 h -1 v -3 z m 0,6 v 3 h -1 v -3 z m 0,6 v 3 h -1 v -3 z m 0,6 v 3 h -1 v -3 z m 0,6 v 1.11752 h -1 v -1.11752 z"
               style="fill:#000000;fill-opacity:1;fill-rule:nonzero;stroke:none"
               id="path1305" />
            <path
               d="m 196.00209,191.2 2.99997,0.0125 -0.004,1 -2.99997,-0.0125 m 6.00413,-0.97501 2.99997,0.0125 -0.004,1 -2.99997,-0.0125 m 6.00412,-0.97499 2.99997,0.0125 -0.004,1 -2.99997,-0.0125 m 6.00414,-0.97501 2.99997,0.0125 -0.004,1 -2.99997,-0.0125 m 6.00412,-0.97499 2.99998,0.0125 -0.004,1 -2.99998,-0.0125 m 6.00413,-0.975 2.99997,0.0125 -0.004,1 -2.99997,-0.0125 m 6.00414,-0.97501 2.99996,0.0125 -0.004,1 -2.99997,-0.0125 m 6.00412,-0.97499 2.99997,0.0125 -0.004,1 -2.99997,-0.0125 m 6.00412,-0.97501 2.99999,0.0125 -0.004,1 -2.99999,-0.0125 m 6.00414,-0.97499 2.99998,0.0125 -0.004,1 -2.99998,-0.0125 m 6.00412,-0.975 2.99997,0.0125 -0.004,1 -2.99999,-0.0125 m 6.00411,-0.97501 2.99996,0.0125 -0.004,1 -2.99997,-0.0125 M 268.00356,191.5 h 6.2e-4 l -0.004,1 h -6.1e-4"
               style="fill:#000000;fill-opacity:1;fill-rule:nonzero;stroke:none"
               id="path1307" />
            <path
               d="m 281.5,171.00304 -0.0182,-2.99994 1,-0.006 0.0182,2.99994 m -1.03644,-5.99382 -0.0182,-2.99994 1,-0.006 0.0182,2.99994 m -1.03644,-5.99382 -0.0182,-2.99994 1,-0.006 0.0182,2.99994 m -1.03643,-5.99381 -0.0182,-2.99995 1,-0.006 0.0182,2.99995 m -1.03644,-5.99382 -0.0182,-2.99994 1,-0.006 0.0182,2.99994 m -1.03644,-5.99382 -0.0182,-2.99994 1,-0.006 0.0182,2.99994 m -1.03644,-5.9938 -0.0182,-2.99996 1,-0.006 0.0182,2.99995 m -1.03647,-5.99382 -0.0182,-2.99994 1,-0.006 0.0182,2.99994"
               style="fill:#000000;fill-opacity:1;fill-rule:nonzero;stroke:none"
               id="path1309" />
            <path
               d="m 198.00154,291.5 2.99999,0.009 -0.003,1 -2.99998,-0.009 m 6.00305,-0.98148 2.99999,0.009 -0.003,1 -2.99998,-0.009 m 6.00305,-0.98147 2.99998,0.009 -0.003,1 -2.99998,-0.009 m 6.00305,-0.98148 3,0.009 -0.003,1 -3,-0.009 m 6.00306,-0.98144 2.99999,0.009 -0.003,1 -2.99999,-0.009 m 6.00305,-0.98148 2.99999,0.009 -0.003,1 -2.99999,-0.009 m 6.00305,-0.98147 2.99999,0.009 -0.003,1 -2.99999,-0.009 m 6.00305,-0.98148 2.99999,0.009 -0.003,1 -2.99999,-0.009 m 6.00305,-0.98148 2.99999,0.009 -0.003,1 -2.99998,-0.009 m 6.00305,-0.98147 2.99999,0.009 -0.003,1 -2.99998,-0.009 m 6.00308,-0.98148 2.99997,0.009 -0.003,1 -2.99997,-0.009 m 6.00308,-0.98144 2.00031,0.006 -0.003,1 -2.0003,-0.006"
               style="fill:#000000;fill-opacity:1;fill-rule:nonzero;stroke:none"
               id="path1311" />
          </g>
        </g>
      </g>
    </g>
  </g>
</svg>
