<?xml version="1.0" encoding="UTF-8" standalone="no"?>
<!DOCTYPE svg PUBLIC "-//W3C//DTD SVG 1.1//EN" "http://www.w3.org/Graphics/SVG/1.1/DTD/svg11.dtd">
<svg xmlns="http://www.w3.org/2000/svg" xmlns:xlink="http://www.w3.org/1999/xlink" version="1.1" width="513.12pt" height="492pt" viewBox="0 0 513.12 492">
<g enable-background="new">
<clipPath id="cp0">
<path transform="matrix(.24,0,0,.24,0,0)" d="M 0 0 L 2137.5 0 L 2137.5 2047.689 L 0 2047.689 Z " fill-rule="evenodd"/>
</clipPath>
<g clip-path="url(#cp0)">
<path transform="matrix(.7184874,0,0,.7184874,0,0)" d="M 0 0 L 714 0 L 714 684 L 0 684 Z " fill="#ffffff"/>
</g>
<clipPath id="cp1">
<path transform="matrix(.24,0,0,.24,0,0)" d="M 0 0 L 2137.5 0 L 2137.5 2041.7017 L 0 2041.7017 Z " fill-rule="evenodd"/>
</clipPath>
<g clip-path="url(#cp1)">
<path transform="matrix(.7184874,0,0,.7184874,.3592437,.3592437)" stroke-width="1" stroke-linecap="butt" stroke-miterlimit="10" stroke-linejoin="miter" fill="none" stroke="#000000" d="M 284.75 121 L 512.63 121 "/>
<path transform="matrix(.7184874,0,0,.7184874,.3592437,.3592437)" d="M 517.88 121 L 510.88 124.5 L 512.63 121 L 510.88 117.5 L 517.88 121 Z "/>
<path transform="matrix(.7184874,0,0,.7184874,.3592437,.3592437)" stroke-width="1" stroke-linecap="butt" stroke-miterlimit="10" stroke-linejoin="miter" fill="none" stroke="#000000" d="M 517.88 121 L 510.88 124.5 L 512.63 121 L 510.88 117.5 L 517.88 121 Z "/>
<path transform="matrix(.7184874,0,0,.7184874,.3592437,.3592437)" stroke-width="1" stroke-linecap="butt" stroke-miterlimit="10" stroke-linejoin="miter" fill="none" stroke="#000000" d="M 180 151 L 180 259 L 180 360.63 "/>
<path transform="matrix(.7184874,0,0,.7184874,.3592437,.3592437)" d="M 180 365.88 L 176.5 358.88 L 180 360.63 L 183.5 358.88 L 180 365.88 Z "/>
<path transform="matrix(.7184874,0,0,.7184874,.3592437,.3592437)" stroke-width="1" stroke-linecap="butt" stroke-miterlimit="10" stroke-linejoin="miter" fill="none" stroke="#000000" d="M 180 365.88 L 176.5 358.88 L 180 360.63 L 183.5 358.88 L 180 365.88 Z "/>
<path transform="matrix(.7184874,0,0,.7184874,.3592437,.3592437)" d="M 84.25 91 L 275.75 91 C 276.34095 91 276.9262 91.05764 277.5058 91.17293 C 278.08537 91.288219 278.64814 91.45893 279.1941 91.685077 C 279.74009 91.91122 280.25874 92.18845 280.7501 92.51677 C 281.24147 92.84508 281.69606 93.21816 282.11393 93.63603 C 282.5318 94.053897 282.90489 94.5085 283.23323 94.999858 C 283.56153 95.49121 283.83876 96.009868 284.06489 96.55583 C 284.29106 97.1018 284.46177 97.66458 284.57707 98.24417 C 284.69233 98.82377 284.74998 99.40905 284.75 100 L 284.75 142 C 284.74998 142.59095 284.69233 143.17621 284.57707 143.7558 C 284.46177 144.33539 284.29106 144.89817 284.06489 145.44414 C 283.83876 145.9901 283.56153 146.50876 283.2332 147.0001 C 282.90489 147.49146 282.5318 147.94608 282.11393 148.36396 C 281.69606 148.78182 281.24147 149.15489 280.7501 149.48322 C 280.25874 149.81154 279.74009 150.08876 279.1941 150.31491 C 278.64814 150.54106 278.08537 150.71178 277.5058 150.82707 C 276.9262 150.94235 276.34095 151 275.75 151 L 84.25 151 C 83.65905 151 83.07378 150.94235 82.49418 150.82707 C 81.91458 150.71178 81.35181 150.54106 80.80585 150.31491 C 80.25988 150.08876 79.74122 149.81154 79.24986 149.48322 C 78.75851 149.15489 78.3039 148.78182 77.88603 148.36396 C 77.46817 147.94608 77.09508 147.49146 76.76676 147.0001 C 76.438449 146.50876 76.16122 145.9901 75.93507 145.44414 C 75.70892 144.89817 75.53821 144.33539 75.42293 143.7558 C 75.30764 143.17621 75.24999 142.59095 75.25 142 L 75.25 100 C 75.24999 99.40905 75.30764 98.82377 75.42293 98.24417 C 75.53821 97.66458 75.70892 97.1018 75.93507 96.55583 C 76.16122 96.009868 76.438449 95.49121 76.76676 94.999858 C 77.09508 94.5085 77.46817 94.053897 77.88603 93.63603 C 78.3039 93.21816 78.75851 92.84508 79.24986 92.51677 C 79.74122 92.18845 80.25988 91.91122 80.80585 91.685077 C 81.35181 91.45893 81.91458 91.288219 82.49418 91.17293 C 83.07378 91.05764 83.65905 91 84.25 91 Z " fill="#ffffff"/>
<path transform="matrix(.7184874,0,0,.7184874,.3592437,.3592437)" stroke-width="1" stroke-linecap="butt" stroke-miterlimit="4" stroke-linejoin="miter" fill="none" stroke="#000000" d="M 84.25 91 L 275.75 91 C 276.34095 91 276.9262 91.05764 277.5058 91.17293 C 278.08537 91.288219 278.64814 91.45893 279.1941 91.685077 C 279.74009 91.91122 280.25874 92.18845 280.7501 92.51677 C 281.24147 92.84508 281.69606 93.21816 282.11393 93.63603 C 282.5318 94.053897 282.90489 94.5085 283.23323 94.999858 C 283.56153 95.49121 283.83876 96.009868 284.06489 96.55583 C 284.29106 97.1018 284.46177 97.66458 284.57707 98.24417 C 284.69233 98.82377 284.74998 99.40905 284.75 100 L 284.75 142 C 284.74998 142.59095 284.69233 143.17621 284.57707 143.7558 C 284.46177 144.33539 284.29106 144.89817 284.06489 145.44414 C 283.83876 145.9901 283.56153 146.50876 283.2332 147.0001 C 282.90489 147.49146 282.5318 147.94608 282.11393 148.36396 C 281.69606 148.78182 281.24147 149.15489 280.7501 149.48322 C 280.25874 149.81154 279.74009 150.08876 279.1941 150.31491 C 278.64814 150.54106 278.08537 150.71178 277.5058 150.82707 C 276.9262 150.94235 276.34095 151 275.75 151 L 84.25 151 C 83.65905 151 83.07378 150.94235 82.49418 150.82707 C 81.91458 150.71178 81.35181 150.54106 80.80585 150.31491 C 80.25988 150.08876 79.74122 149.81154 79.24986 149.48322 C 78.75851 149.15489 78.3039 148.78182 77.88603 148.36396 C 77.46817 147.94608 77.09508 147.49146 76.76676 147.0001 C 76.438449 146.50876 76.16122 145.9901 75.93507 145.44414 C 75.70892 144.89817 75.53821 144.33539 75.42293 143.7558 C 75.30764 143.17621 75.24999 142.59095 75.25 142 L 75.25 100 C 75.24999 99.40905 75.30764 98.82377 75.42293 98.24417 C 75.53821 97.66458 75.70892 97.1018 75.93507 96.55583 C 76.16122 96.009868 76.438449 95.49121 76.76676 94.999858 C 77.09508 94.5085 77.46817 94.053897 77.88603 93.63603 C 78.3039 93.21816 78.75851 92.84508 79.24986 92.51677 C 79.74122 92.18845 80.25988 91.91122 80.80585 91.685077 C 81.35181 91.45893 81.91458 91.288219 82.49418 91.17293 C 83.07378 91.05764 83.65905 91 84.25 91 Z "/>
<text xml:space="preserve" transform="matrix(.7184874 0 0 .7184874 55.323526 68.256298)" font-size="15" font-family="ArialMT"><tspan y="14" x="22.953125 31.293126 35.463129 40.458127 44.628129 55.45813 60.45313 68.79313 77.13313 81.30313 89.643138 93.81313 101.31313 109.65314 114.64814 117.97814 126.318149 134.65814 137.98815 146.32814 153.82814 157.99814 166.33814 174.67813">1 - Create variables and</tspan></text>
<text xml:space="preserve" transform="matrix(.7184874 0 0 .7184874 55.323526 68.256298)" font-size="15" font-family="ArialMT"><tspan y="32" x="60.890626 69.23063 76.73063 85.07063 90.065639 98.40564 105.90564 113.40564 116.73564 125.075649 133.41565 140.91565">expressions.</tspan></text>
<text xml:space="preserve" transform="matrix(.7184874 0 0 .7184874 55.323526 68.256298)" font-size="15" font-family="ArialMT"><tspan y="50" x="42.546876 53.376878 61.716878 65.88688 69.21688 77.556888 85.89689 90.06689 94.236888 102.57689 110.91689 114.246898 119.2419 123.411899 127.581897 135.0819 143.42189 151.76189 159.26189">Define their types.</tspan></text>
<path transform="matrix(.7184874,0,0,.7184874,.3592437,.3592437)" stroke-width="1" stroke-linecap="butt" stroke-miterlimit="10" stroke-linejoin="miter" fill="none" stroke="#000000" d="M 599 151 L 599 184.63 "/>
<path transform="matrix(.7184874,0,0,.7184874,.3592437,.3592437)" d="M 599 189.88 L 595.5 182.88 L 599 184.63 L 602.5 182.88 L 599 189.88 Z "/>
<path transform="matrix(.7184874,0,0,.7184874,.3592437,.3592437)" stroke-width="1" stroke-linecap="butt" stroke-miterlimit="10" stroke-linejoin="miter" fill="none" stroke="#000000" d="M 599 189.88 L 595.5 182.88 L 599 184.63 L 602.5 182.88 L 599 189.88 Z "/>
<path transform="matrix(.7184874,0,0,.7184874,.3592437,.3592437)" d="M 528 91 L 670 91 C 670.5909 91 671.17617 91.05764 671.75576 91.17293 C 672.3353 91.288219 672.8981 91.45893 673.44406 91.685077 C 673.99 91.91122 674.5086 92.18845 674.99996 92.51677 C 675.49136 92.84508 675.946 93.21816 676.3639 93.63603 C 676.78176 94.053897 677.1548 94.5085 677.4831 94.999858 C 677.8114 95.49121 678.0887 96.009868 678.3148 96.55583 C 678.541 97.1018 678.71176 97.66458 678.827 98.24417 C 678.9423 98.82377 678.99996 99.40905 679 100 L 679 142 C 678.99996 142.59095 678.9423 143.17621 678.827 143.7558 C 678.71176 144.33539 678.541 144.89817 678.3148 145.44414 C 678.0887 145.9901 677.8114 146.50876 677.4831 147.0001 C 677.1548 147.49146 676.78176 147.94608 676.3639 148.36396 C 675.946 148.78182 675.4914 149.15489 675.00009 149.48322 C 674.50869 149.81154 673.99 150.08876 673.44406 150.31491 C 672.8981 150.54106 672.3353 150.71178 671.75576 150.82707 C 671.17617 150.94235 670.5909 151 670 151 L 528 151 C 527.40908 151 526.8238 150.94235 526.24417 150.82707 C 525.6645 150.71178 525.10177 150.54106 524.5558 150.31491 C 524.0098 150.08876 523.49118 149.81154 522.9998 149.48322 C 522.5085 149.15489 522.0539 148.78182 521.636 148.36396 C 521.2181 147.94608 520.84506 147.49146 520.5167 147.0001 C 520.18838 146.50876 519.91116 145.9901 519.685 145.44414 C 519.45889 144.89817 519.28817 144.33539 519.17288 143.7558 C 519.0576 143.17621 519 142.59095 519 142 L 519 100 C 519 99.40905 519.0576 98.82377 519.17288 98.24417 C 519.28817 97.66458 519.45889 97.1018 519.685 96.55583 C 519.91116 96.009868 520.18838 95.49121 520.51669 94.999858 C 520.845 94.5085 521.2181 94.053897 521.636 93.63603 C 522.0539 93.21816 522.5085 92.84508 522.9998 92.51677 C 523.49118 92.18845 524.0098 91.91122 524.5558 91.685077 C 525.10177 91.45893 525.6645 91.288219 526.24417 91.17293 C 526.8238 91.05764 527.40908 91 528 91 Z " fill="#ffffff"/>
<path transform="matrix(.7184874,0,0,.7184874,.3592437,.3592437)" stroke-width="1" stroke-linecap="butt" stroke-miterlimit="4" stroke-linejoin="miter" fill="none" stroke="#000000" d="M 528 91 L 670 91 C 670.5909 91 671.17617 91.05764 671.75576 91.17293 C 672.3353 91.288219 672.8981 91.45893 673.44406 91.685077 C 673.99 91.91122 674.5086 92.18845 674.99996 92.51677 C 675.49136 92.84508 675.946 93.21816 676.3639 93.63603 C 676.78176 94.053897 677.1548 94.5085 677.4831 94.999858 C 677.8114 95.49121 678.0887 96.009868 678.3148 96.55583 C 678.541 97.1018 678.71176 97.66458 678.827 98.24417 C 678.9423 98.82377 678.99996 99.40905 679 100 L 679 142 C 678.99996 142.59095 678.9423 143.17621 678.827 143.7558 C 678.71176 144.33539 678.541 144.89817 678.3148 145.44414 C 678.0887 145.9901 677.8114 146.50876 677.4831 147.0001 C 677.1548 147.49146 676.78176 147.94608 676.3639 148.36396 C 675.946 148.78182 675.4914 149.15489 675.00009 149.48322 C 674.50869 149.81154 673.99 150.08876 673.44406 150.31491 C 672.8981 150.54106 672.3353 150.71178 671.75576 150.82707 C 671.17617 150.94235 670.5909 151 670 151 L 528 151 C 527.40908 151 526.8238 150.94235 526.24417 150.82707 C 525.6645 150.71178 525.10177 150.54106 524.5558 150.31491 C 524.0098 150.08876 523.49118 149.81154 522.9998 149.48322 C 522.5085 149.15489 522.0539 148.78182 521.636 148.36396 C 521.2181 147.94608 520.84506 147.49146 520.5167 147.0001 C 520.18838 146.50876 519.91116 145.9901 519.685 145.44414 C 519.45889 144.89817 519.28817 144.33539 519.17288 143.7558 C 519.0576 143.17621 519 142.59095 519 142 L 519 100 C 519 99.40905 519.0576 98.82377 519.17288 98.24417 C 519.28817 97.66458 519.45889 97.1018 519.685 96.55583 C 519.91116 96.009868 520.18838 95.49121 520.51669 94.999858 C 520.845 94.5085 521.2181 94.053897 521.636 93.63603 C 522.0539 93.21816 522.5085 92.84508 522.9998 92.51677 C 523.49118 92.18845 524.0098 91.91122 524.5558 91.685077 C 525.10177 91.45893 525.6645 91.288219 526.24417 91.17293 C 526.8238 91.05764 527.40908 91 528 91 Z "/>
<text xml:space="preserve" transform="matrix(.7184874 0 0 .7184874 374.3319 68.256298)" font-size="15" font-family="ArialMT"><tspan y="14" x="35.484376 43.824377 47.994379 52.989377 57.159379 67.98938 76.329387 83.829387 87.159389 95.49939 103.83939 108.00939 116.349399">2 - Design of</tspan></text>
<text xml:space="preserve" transform="matrix(.7184874 0 0 .7184874 374.3319 68.256298)" font-size="15" font-family="ArialMT"><tspan y="32" x="35.0625 43.4025 50.9025 59.2425 67.582508 72.57751 75.90751 88.40251 96.742519 105.08252 109.25252 116.75252">experiments.</tspan></text>
<text xml:space="preserve" transform="matrix(.7184874 0 0 .7184874 374.3319 68.256298)" font-size="15" font-family="ArialMT"><tspan y="50" x="10.046875 20.051877 28.391877 40.88688 49.22688 52.55688 60.89688 65.06688 75.89688 87.56688 97.571887 101.74188 105.071887 113.41189 121.75189 130.09189 134.26189 141.76189">Sample DOE inputs.</tspan></text>
<path transform="matrix(.7184874,0,0,.7184874,.3592437,.3592437)" stroke-width="1" stroke-linecap="butt" stroke-miterlimit="10" stroke-linejoin="miter" fill="none" stroke="#000000" d="M 599 251 L 599 364.63 "/>
<path transform="matrix(.7184874,0,0,.7184874,.3592437,.3592437)" d="M 599 369.88 L 595.5 362.88 L 599 364.63 L 602.5 362.88 L 599 369.88 Z "/>
<path transform="matrix(.7184874,0,0,.7184874,.3592437,.3592437)" stroke-width="1" stroke-linecap="butt" stroke-miterlimit="10" stroke-linejoin="miter" fill="none" stroke="#000000" d="M 599 369.88 L 595.5 362.88 L 599 364.63 L 602.5 362.88 L 599 369.88 Z "/>
<path transform="matrix(.7184874,0,0,.7184874,.3592437,.3592437)" d="M 548 191 L 650 191 C 650.59097 191.00002 651.1762 191.05767 651.7558 191.17295 C 652.3354 191.28823 652.89816 191.45893 653.4441 191.68506 C 653.99008 191.91121 654.50869 192.18845 655.00009 192.51676 C 655.49148 192.84506 655.94607 193.21816 656.36398 193.63602 C 656.7818 194.05388 657.15487 194.50849 657.48318 194.99983 C 657.81149 195.49118 658.0887 196.00984 658.3148 196.55582 C 658.541 197.10178 658.71176 197.66457 658.827 198.24417 C 658.9423 198.82378 659 199.40904 659 200 L 659 242 C 659 242.59095 658.9423 243.17621 658.827 243.7558 C 658.71176 244.3354 658.541 244.89818 658.3148 245.44414 C 658.0887 245.9901 657.81149 246.50876 657.48318 247.0001 C 657.15487 247.49146 656.7818 247.94608 656.36398 248.36394 C 655.94607 248.7818 655.49148 249.15488 655.00009 249.48319 C 654.50869 249.81151 653.99008 250.08873 653.4441 250.31488 C 652.89816 250.54102 652.3354 250.71173 651.7558 250.82704 C 651.1762 250.94232 650.59097 250.99999 650 251 L 548 251 C 547.409 250.99999 546.8237 250.94232 546.24417 250.82703 C 545.66458 250.71173 545.10177 250.54102 544.5558 250.31488 C 544.0098 250.08873 543.49118 249.81151 542.99978 249.48319 C 542.5084 249.15488 542.05386 248.7818 541.636 248.36394 C 541.2181 247.94608 540.84506 247.49146 540.5167 247.00009 C 540.1884 246.50875 539.91116 245.99008 539.685 245.44412 C 539.45889 244.89817 539.28817 244.33539 539.17288 243.75579 C 539.0576 243.17621 539 242.59095 539 242 L 539 200 C 539 199.40904 539.0576 198.82378 539.17288 198.24417 C 539.28817 197.66457 539.45889 197.10178 539.685 196.5558 C 539.91116 196.00984 540.1884 195.49118 540.5167 194.99983 C 540.84506 194.50849 541.2181 194.05388 541.636 193.63602 C 542.05386 193.21816 542.5084 192.84506 542.99978 192.51676 C 543.49118 192.18845 544.0098 191.91121 544.5558 191.68506 C 545.10177 191.45893 545.66458 191.28823 546.24417 191.17295 C 546.8237 191.05767 547.409 191.00002 548 191 Z " fill="#ffffff"/>
<path transform="matrix(.7184874,0,0,.7184874,.3592437,.3592437)" stroke-width="1" stroke-linecap="butt" stroke-miterlimit="4" stroke-linejoin="miter" fill="none" stroke="#000000" d="M 548 191 L 650 191 C 650.59097 191.00002 651.1762 191.05767 651.7558 191.17295 C 652.3354 191.28823 652.89816 191.45893 653.4441 191.68506 C 653.99008 191.91121 654.50869 192.18845 655.00009 192.51676 C 655.49148 192.84506 655.94607 193.21816 656.36398 193.63602 C 656.7818 194.05388 657.15487 194.50849 657.48318 194.99983 C 657.81149 195.49118 658.0887 196.00984 658.3148 196.55582 C 658.541 197.10178 658.71176 197.66457 658.827 198.24417 C 658.9423 198.82378 659 199.40904 659 200 L 659 242 C 659 242.59095 658.9423 243.17621 658.827 243.7558 C 658.71176 244.3354 658.541 244.89818 658.3148 245.44414 C 658.0887 245.9901 657.81149 246.50876 657.48318 247.0001 C 657.15487 247.49146 656.7818 247.94608 656.36398 248.36394 C 655.94607 248.7818 655.49148 249.15488 655.00009 249.48319 C 654.50869 249.81151 653.99008 250.08873 653.4441 250.31488 C 652.89816 250.54102 652.3354 250.71173 651.7558 250.82704 C 651.1762 250.94232 650.59097 250.99999 650 251 L 548 251 C 547.409 250.99999 546.8237 250.94232 546.24417 250.82703 C 545.66458 250.71173 545.10177 250.54102 544.5558 250.31488 C 544.0098 250.08873 543.49118 249.81151 542.99978 249.48319 C 542.5084 249.15488 542.05386 248.7818 541.636 248.36394 C 541.2181 247.94608 540.84506 247.49146 540.5167 247.00009 C 540.1884 246.50875 539.91116 245.99008 539.685 245.44412 C 539.45889 244.89817 539.28817 244.33539 539.17288 243.75579 C 539.0576 243.17621 539 242.59095 539 242 L 539 200 C 539 199.40904 539.0576 198.82378 539.17288 198.24417 C 539.28817 197.66457 539.45889 197.10178 539.685 196.5558 C 539.91116 196.00984 540.1884 195.49118 540.5167 194.99983 C 540.84506 194.50849 541.2181 194.05388 541.636 193.63602 C 542.05386 193.21816 542.5084 192.84506 542.99978 192.51676 C 543.49118 192.18845 544.0098 191.91121 544.5558 191.68506 C 545.10177 191.45893 545.66458 191.28823 546.24417 191.17295 C 546.8237 191.05767 547.409 191.00002 548 191 Z "/>
<text xml:space="preserve" transform="matrix(.7184874 0 0 .7184874 388.70167 146.57143)" font-size="15" font-family="ArialMT"><tspan y="14" x="10.0625 18.4025 22.5725 27.567502 31.737502 44.232503 52.572504 56.742506 65.082508 77.57751 85.91751 94.257518 102.59752">3 - Metamodel</tspan></text>
<text xml:space="preserve" transform="matrix(.7184874 0 0 .7184874 388.70167 146.57143)" font-size="15" font-family="ArialMT"><tspan y="32" x="23.8125 32.1525 39.6525 47.9925 51.322504 59.662504 68.0025 72.1725 75.5025 83.84251">evaluation</tspan></text>
<path transform="matrix(.7184874,0,0,.7184874,.3592437,.3592437)" stroke-width="1" stroke-linecap="butt" stroke-miterlimit="10" stroke-linejoin="miter" fill="none" stroke="#000000" d="M 514 401 L 286.37 401 "/>
<path transform="matrix(.7184874,0,0,.7184874,.3592437,.3592437)" d="M 281.12 401 L 288.12 397.5 L 286.37 401 L 288.12 404.5 L 281.12 401 Z "/>
<path transform="matrix(.7184874,0,0,.7184874,.3592437,.3592437)" stroke-width="1" stroke-linecap="butt" stroke-miterlimit="10" stroke-linejoin="miter" fill="none" stroke="#000000" d="M 281.12 401 L 288.12 397.5 L 286.37 401 L 288.12 404.5 L 281.12 401 Z "/>
<path transform="matrix(.7184874,0,0,.7184874,.3592437,.3592437)" d="M 523 371.01 L 675 371.01 C 675.5909 371.01 676.17617 371.06767 676.75576 371.18293 C 677.33529 371.2982 677.8981 371.4689 678.44406 371.69505 C 678.99 371.92118 679.50869 372.1984 680.00009 372.5267 C 680.49148 372.85505 680.94607 373.22816 681.3639 373.64604 C 681.7818 374.06388 682.15487 374.51847 682.4831 375.00984 C 682.81149 375.5012 683.0887 376.01985 683.3148 376.56584 C 683.54098 377.1118 683.71176 377.67457 683.827 378.25416 C 683.9423 378.83378 684 379.41905 684 380.01 L 684 422.01 C 684 422.60093 683.9423 423.1862 683.827 423.76579 C 683.71176 424.34538 683.54098 424.90815 683.3148 425.4541 C 683.0887 426.00004 682.81149 426.51869 682.4831 427.01005 C 682.15487 427.5014 681.7818 427.95606 681.3639 428.37394 C 680.94607 428.79179 680.49148 429.16487 680.00009 429.49317 C 679.50869 429.82148 678.99 430.09873 678.44406 430.3249 C 677.8981 430.55104 677.33529 430.72175 676.75576 430.83705 C 676.17617 430.95237 675.5909 431.01 675 431.01 L 523 431.01 C 522.409 431.01 521.8237 430.95237 521.2441 430.83705 C 520.6645 430.72175 520.10177 430.55104 519.5558 430.32487 C 519.0098 430.0987 518.49118 429.82148 517.9998 429.49317 C 517.5084 429.16487 517.05386 428.79179 516.636 428.37394 C 516.2181 427.95606 515.84506 427.50144 515.5167 427.01008 C 515.18838 426.5187 514.91116 426.00004 514.685 425.4541 C 514.45889 424.90815 514.28817 424.34538 514.17288 423.76579 C 514.0576 423.1862 514 422.60093 514 422.01 L 514 380.01 C 514 379.41905 514.0576 378.83378 514.17288 378.25416 C 514.28817 377.67457 514.45889 377.1118 514.685 376.5658 C 514.91116 376.0198 515.18838 375.50117 515.51669 375.00984 C 515.845 374.51847 516.2181 374.06388 516.636 373.64604 C 517.05386 373.22816 517.5084 372.85505 517.9998 372.52674 C 518.49118 372.1984 519.0098 371.92118 519.5558 371.69505 C 520.10177 371.4689 520.6645 371.2982 521.2441 371.18293 C 521.8237 371.06767 522.409 371.01 523 371.01 Z " fill="#ffffff"/>
<path transform="matrix(.7184874,0,0,.7184874,.3592437,.3592437)" stroke-width="1" stroke-linecap="butt" stroke-miterlimit="4" stroke-linejoin="miter" fill="none" stroke="#000000" d="M 523 371.01 L 675 371.01 C 675.5909 371.01 676.17617 371.06767 676.75576 371.18293 C 677.33529 371.2982 677.8981 371.4689 678.44406 371.69505 C 678.99 371.92118 679.50869 372.1984 680.00009 372.5267 C 680.49148 372.85505 680.94607 373.22816 681.3639 373.64604 C 681.7818 374.06388 682.15487 374.51847 682.4831 375.00984 C 682.81149 375.5012 683.0887 376.01985 683.3148 376.56584 C 683.54098 377.1118 683.71176 377.67457 683.827 378.25416 C 683.9423 378.83378 684 379.41905 684 380.01 L 684 422.01 C 684 422.60093 683.9423 423.1862 683.827 423.76579 C 683.71176 424.34538 683.54098 424.90815 683.3148 425.4541 C 683.0887 426.00004 682.81149 426.51869 682.4831 427.01005 C 682.15487 427.5014 681.7818 427.95606 681.3639 428.37394 C 680.94607 428.79179 680.49148 429.16487 680.00009 429.49317 C 679.50869 429.82148 678.99 430.09873 678.44406 430.3249 C 677.8981 430.55104 677.33529 430.72175 676.75576 430.83705 C 676.17617 430.95237 675.5909 431.01 675 431.01 L 523 431.01 C 522.409 431.01 521.8237 430.95237 521.2441 430.83705 C 520.6645 430.72175 520.10177 430.55104 519.5558 430.32487 C 519.0098 430.0987 518.49118 429.82148 517.9998 429.49317 C 517.5084 429.16487 517.05386 428.79179 516.636 428.37394 C 516.2181 427.95606 515.84506 427.50144 515.5167 427.01008 C 515.18838 426.5187 514.91116 426.00004 514.685 425.4541 C 514.45889 424.90815 514.28817 424.34538 514.17288 423.76579 C 514.0576 423.1862 514 422.60093 514 422.01 L 514 380.01 C 514 379.41905 514.0576 378.83378 514.17288 378.25416 C 514.28817 377.67457 514.45889 377.1118 514.685 376.5658 C 514.91116 376.0198 515.18838 375.50117 515.51669 375.00984 C 515.845 374.51847 516.2181 374.06388 516.636 373.64604 C 517.05386 373.22816 517.5084 372.85505 517.9998 372.52674 C 518.49118 372.1984 519.0098 371.92118 519.5558 371.69505 C 520.10177 371.4689 520.6645 371.2982 521.2441 371.18293 C 521.8237 371.06767 522.409 371.01 523 371.01 Z "/>
<text xml:space="preserve" transform="matrix(.7184874 0 0 .7184874 370.73948 275.89915)" font-size="15" font-family="ArialMT"><tspan y="14" x="30.0625 38.4025 42.572504 47.5675 51.737504 61.742506 65.912509 74.25251 82.592517 90.93252 98.43252 103.42752 110.92752 115.09752 123.43752 127.60752">4 - Steady-state</tspan></text>
<text xml:space="preserve" transform="matrix(.7184874 0 0 .7184874 370.73948 275.89915)" font-size="15" font-family="ArialMT"><tspan y="32" x="3.796875 16.291876 24.631878 28.801878 37.14188 49.63688 57.97688 66.31688 74.65688 77.986888 82.15688 90.49689 98.83689 103.00689 106.33689 118.831897 122.161899 129.6619 138.00189 142.17189 145.50189 153.84189">metamodel optimization</tspan></text>
<path transform="matrix(.7184874,0,0,.7184874,.3592437,.3592437)" stroke-width="1" stroke-linecap="butt" stroke-miterlimit="10" stroke-linejoin="miter" fill="none" stroke="#000000" d="M 180 435 L 180 464.63 "/>
<path transform="matrix(.7184874,0,0,.7184874,.3592437,.3592437)" d="M 180 469.88 L 176.5 462.88 L 180 464.63 L 183.5 462.88 L 180 469.88 Z "/>
<path transform="matrix(.7184874,0,0,.7184874,.3592437,.3592437)" stroke-width="1" stroke-linecap="butt" stroke-miterlimit="10" stroke-linejoin="miter" fill="none" stroke="#000000" d="M 180 469.88 L 176.5 462.88 L 180 464.63 L 183.5 462.88 L 180 469.88 Z "/>
<path transform="matrix(.7184874,0,0,.7184874,.3592437,.3592437)" d="M 90.31 366.63 L 269.69 366.63 C 270.36698 366.63 271.0374 366.69606 271.7014 366.8281 C 272.36534 366.96018 273.01 367.15574 273.63545 367.41477 C 274.26087 367.67384 274.855 367.99143 275.4179 368.36753 C 275.9808 368.74366 276.5016 369.17106 276.98027 369.64973 C 277.45893 370.1284 277.88633 370.64915 278.26246 371.21199 C 278.63853 371.77488 278.95613 372.36903 279.21519 372.99446 C 279.47425 373.6199 279.6698 374.2646 279.80186 374.92857 C 279.93397 375.59254 280 376.26304 280 376.94 L 280 425.07 C 280 425.74696 279.93397 426.41743 279.80186 427.0814 C 279.6698 427.7453 279.47425 428.38999 279.21519 429.01545 C 278.95613 429.64088 278.63853 430.23503 278.26243 430.79789 C 277.88633 431.36076 277.45893 431.88154 276.98027 432.36024 C 276.5016 432.8389 275.98078 433.2663 275.41789 433.6424 C 274.855 434.0185 274.26087 434.3361 273.63545 434.59516 C 273.01 434.85423 272.36534 435.04978 271.7014 435.18186 C 271.0374 435.31394 270.36698 435.37998 269.69 435.38 L 90.31 435.38 C 89.633029 435.37998 88.96256 435.31394 88.29861 435.18186 C 87.63465 435.04978 86.98996 434.85423 86.364528 434.59516 C 85.73909 434.3361 85.14493 434.0185 84.582057 433.6424 C 84.01918 433.26634 83.498409 432.83897 83.01972 432.3603 C 82.54103 431.8816 82.11364 431.3608 81.73753 430.79795 C 81.361438 430.23506 81.04385 429.6409 80.78479 429.01548 C 80.52573 428.39 80.33016 427.74534 80.1981 427.0814 C 80.066028 426.41743 79.99999 425.74696 80 425.07 L 80 376.94 C 79.99999 376.26304 80.066028 375.59254 80.1981 374.92857 C 80.33016 374.2646 80.52573 373.6199 80.78479 372.99446 C 81.04385 372.36903 81.361438 371.77488 81.73753 371.21199 C 82.11364 370.64915 82.54103 370.1284 83.01972 369.64973 C 83.498409 369.17106 84.01919 368.74366 84.58206 368.36753 C 85.144939 367.99143 85.73909 367.67384 86.364528 367.41477 C 86.98996 367.15574 87.63465 366.96018 88.29861 366.8281 C 88.96256 366.69606 89.633029 366.63 90.31 366.63 Z " fill="#ffffff"/>
<path transform="matrix(.7184874,0,0,.7184874,.3592437,.3592437)" stroke-width="1" stroke-linecap="butt" stroke-miterlimit="4" stroke-linejoin="miter" fill="none" stroke="#000000" d="M 90.31 366.63 L 269.69 366.63 C 270.36698 366.63 271.0374 366.69606 271.7014 366.8281 C 272.36534 366.96018 273.01 367.15574 273.63545 367.41477 C 274.26087 367.67384 274.855 367.99143 275.4179 368.36753 C 275.9808 368.74366 276.5016 369.17106 276.98027 369.64973 C 277.45893 370.1284 277.88633 370.64915 278.26246 371.21199 C 278.63853 371.77488 278.95613 372.36903 279.21519 372.99446 C 279.47425 373.6199 279.6698 374.2646 279.80186 374.92857 C 279.93397 375.59254 280 376.26304 280 376.94 L 280 425.07 C 280 425.74696 279.93397 426.41743 279.80186 427.0814 C 279.6698 427.7453 279.47425 428.38999 279.21519 429.01545 C 278.95613 429.64088 278.63853 430.23503 278.26243 430.79789 C 277.88633 431.36076 277.45893 431.88154 276.98027 432.36024 C 276.5016 432.8389 275.98078 433.2663 275.41789 433.6424 C 274.855 434.0185 274.26087 434.3361 273.63545 434.59516 C 273.01 434.85423 272.36534 435.04978 271.7014 435.18186 C 271.0374 435.31394 270.36698 435.37998 269.69 435.38 L 90.31 435.38 C 89.633029 435.37998 88.96256 435.31394 88.29861 435.18186 C 87.63465 435.04978 86.98996 434.85423 86.364528 434.59516 C 85.73909 434.3361 85.14493 434.0185 84.582057 433.6424 C 84.01918 433.26634 83.498409 432.83897 83.01972 432.3603 C 82.54103 431.8816 82.11364 431.3608 81.73753 430.79795 C 81.361438 430.23506 81.04385 429.6409 80.78479 429.01548 C 80.52573 428.39 80.33016 427.74534 80.1981 427.0814 C 80.066028 426.41743 79.99999 425.74696 80 425.07 L 80 376.94 C 79.99999 376.26304 80.066028 375.59254 80.1981 374.92857 C 80.33016 374.2646 80.52573 373.6199 80.78479 372.99446 C 81.04385 372.36903 81.361438 371.77488 81.73753 371.21199 C 82.11364 370.64915 82.54103 370.1284 83.01972 369.64973 C 83.498409 369.17106 84.01919 368.74366 84.58206 368.36753 C 85.144939 367.99143 85.73909 367.67384 86.364528 367.41477 C 86.98996 367.15574 87.63465 366.96018 88.29861 366.8281 C 88.96256 366.69606 89.633029 366.63 90.31 366.63 Z "/>
<text xml:space="preserve" transform="matrix(.7184874 0 0 .7184874 58.915964 269.43275)" font-size="15" font-family="ArialMT"><tspan y="14" x="32.140626 40.480627 44.650629 49.645627 53.815629 63.82063 71.32063 75.49063 78.82063 86.32063 94.66064 98.830638 106.330638 114.67064 123.01064 130.51065 134.68065 139.67565 148.01564 151.34564 159.68564">5 - Active constraint</tspan></text>
<text xml:space="preserve" transform="matrix(.7184874 0 0 .7184874 58.915964 269.43275)" font-size="15" font-family="ArialMT"><tspan y="32" x="12.953125 16.283125 28.778126 37.118127 40.448129 48.788129 61.283128 69.62313 77.963138 82.13313 90.47314 94.643138 97.97314 106.31314 114.653148 118.82314 122.99314 133.82314 142.16313 150.50313 158.84313 166.34313 174.68312">implementation. Reduced</tspan></text>
<text xml:space="preserve" transform="matrix(.7184874 0 0 .7184874 58.915964 269.43275)" font-size="15" font-family="ArialMT"><tspan y="50" x="21.28125 28.78125 37.12125 45.46125 52.96125 61.30125 65.47125 77.966259 86.30626 94.64626 102.98627 106.31627 110.48627 118.82627 127.166278 131.33628 134.66628 143.00627 146.33628 150.50627 153.83628 162.17627 170.51627">space model definition.</tspan></text>
<path transform="matrix(.7184874,0,0,.7184874,.3592437,.3592437)" stroke-width="1" stroke-linecap="butt" stroke-miterlimit="10" stroke-linejoin="miter" fill="none" stroke="#000000" d="M 359 510 L 383 510 L 400.63 510 "/>
<path transform="matrix(.7184874,0,0,.7184874,.3592437,.3592437)" d="M 405.88 510 L 398.88 513.5 L 400.63 510 L 398.88 506.5 L 405.88 510 Z "/>
<path transform="matrix(.7184874,0,0,.7184874,.3592437,.3592437)" stroke-width="1" stroke-linecap="butt" stroke-miterlimit="10" stroke-linejoin="miter" fill="none" stroke="#000000" d="M 405.88 510 L 398.88 513.5 L 400.63 510 L 398.88 506.5 L 405.88 510 Z "/>
<path transform="matrix(.7184874,0,0,.7184874,.3592437,.3592437)" d="M 12.63 471 L 347.37 471 C 348.1336 471 348.8899 471.0745 349.63887 471.22346 C 350.38783 471.37245 351.11506 471.59306 351.82057 471.88526 C 352.52607 472.1775 353.1963 472.53575 353.83125 472.95997 C 354.4662 473.3842 355.05366 473.8663 355.59364 474.4063 C 356.1336 474.94627 356.61573 475.53373 357.03996 476.16865 C 357.46418 476.8036 357.82243 477.47383 358.1147 478.17936 C 358.4069 478.88487 358.6275 479.6121 358.77653 480.36109 C 358.9255 481.11009 359 481.86637 359 482.63 L 359 536.87 C 359 537.6336 358.9255 538.3899 358.77656 539.13888 C 358.62754 539.8878 358.4069 540.615 358.1147 541.3205 C 357.82243 542.026 357.46418 542.6962 357.03996 543.3312 C 356.61573 543.9661 356.1336 544.55368 355.59364 545.0936 C 355.05366 545.6336 354.4662 546.11569 353.83125 546.5399 C 353.1963 546.9642 352.52607 547.3224 351.82057 547.6146 C 351.11506 547.90689 350.38783 548.1275 349.63887 548.2765 C 348.8899 548.4255 348.1336 548.5 347.37 548.5 L 12.63 548.5 C 11.866364 548.5 11.110063 548.4255 10.361099 548.2765 C 9.612135 548.1275 8.884898 547.90689 8.17939 547.6146 C 7.473882 547.3223 6.803658 546.9641 6.1687176 546.53988 C 5.5337769 546.1156 4.9463207 545.63357 4.4063479 545.09359 C 3.866375 544.5536 3.3842617 543.9661 2.960008 543.3312 C 2.5357543 542.6962 2.1775118 542.026 1.8852807 541.3205 C 1.5930498 540.615 1.3724452 539.88778 1.2234671 539.1388 C 1.074489 538.3899 .99999997 537.6336 1 536.87 L 1 482.63 C .99999997 481.86637 1.074489 481.11006 1.2234671 480.36106 C 1.3724452 479.6121 1.5930499 478.88487 1.885281 478.17933 C 2.177512 477.4738 2.5357545 476.80357 2.9600085 476.16865 C 3.384262 475.53373 3.8663753 474.94627 4.406348 474.4063 C 4.9463207 473.8663 5.5337769 473.3842 6.1687176 472.95997 C 6.803658 472.53575 7.4738829 472.1775 8.179391 471.88526 C 8.884899 471.59306 9.612136 471.37245 10.361099 471.22346 C 11.110063 471.0745 11.866364 471 12.63 471 Z " fill="#ffffff"/>
<path transform="matrix(.7184874,0,0,.7184874,.3592437,.3592437)" stroke-width="1" stroke-linecap="butt" stroke-miterlimit="4" stroke-linejoin="miter" fill="none" stroke="#000000" d="M 12.63 471 L 347.37 471 C 348.1336 471 348.8899 471.0745 349.63887 471.22346 C 350.38783 471.37245 351.11506 471.59306 351.82057 471.88526 C 352.52607 472.1775 353.1963 472.53575 353.83125 472.95997 C 354.4662 473.3842 355.05366 473.8663 355.59364 474.4063 C 356.1336 474.94627 356.61573 475.53373 357.03996 476.16865 C 357.46418 476.8036 357.82243 477.47383 358.1147 478.17936 C 358.4069 478.88487 358.6275 479.6121 358.77653 480.36109 C 358.9255 481.11009 359 481.86637 359 482.63 L 359 536.87 C 359 537.6336 358.9255 538.3899 358.77656 539.13888 C 358.62754 539.8878 358.4069 540.615 358.1147 541.3205 C 357.82243 542.026 357.46418 542.6962 357.03996 543.3312 C 356.61573 543.9661 356.1336 544.55368 355.59364 545.0936 C 355.05366 545.6336 354.4662 546.11569 353.83125 546.5399 C 353.1963 546.9642 352.52607 547.3224 351.82057 547.6146 C 351.11506 547.90689 350.38783 548.1275 349.63887 548.2765 C 348.8899 548.4255 348.1336 548.5 347.37 548.5 L 12.63 548.5 C 11.866364 548.5 11.110063 548.4255 10.361099 548.2765 C 9.612135 548.1275 8.884898 547.90689 8.17939 547.6146 C 7.473882 547.3223 6.803658 546.9641 6.1687176 546.53988 C 5.5337769 546.1156 4.9463207 545.63357 4.4063479 545.09359 C 3.866375 544.5536 3.3842617 543.9661 2.960008 543.3312 C 2.5357543 542.6962 2.1775118 542.026 1.8852807 541.3205 C 1.5930498 540.615 1.3724452 539.88778 1.2234671 539.1388 C 1.074489 538.3899 .99999997 537.6336 1 536.87 L 1 482.63 C .99999997 481.86637 1.074489 481.11006 1.2234671 480.36106 C 1.3724452 479.6121 1.5930499 478.88487 1.885281 478.17933 C 2.177512 477.4738 2.5357545 476.80357 2.9600085 476.16865 C 3.384262 475.53373 3.8663753 474.94627 4.406348 474.4063 C 4.9463207 473.8663 5.5337769 473.3842 6.1687176 472.95997 C 6.803658 472.53575 7.4738829 472.1775 8.179391 471.88526 C 8.884899 471.59306 9.612136 471.37245 10.361099 471.22346 C 11.110063 471.0745 11.866364 471 12.63 471 Z "/>
<text xml:space="preserve" transform="matrix(.7184874 0 0 .7184874 5.0294115 354.21427)" font-size="15" font-family="ArialMT"><tspan y="14" x=".390625 8.730626 12.900627 17.895627 22.065627 32.895627 41.235628 49.575628 57.915628 65.41563 73.75563 82.095638 86.26563 93.76563 102.10564 110.44564 117.94564 126.285648 130.45565 138.79564 143.79064 152.13063 160.47063 163.80063 172.14063 180.48062 184.65062 188.82062 197.16062 205.50061 213.8406 218.0106 228.8406 237.1806 244.6806 252.1806 255.5106 263.85063 272.1906 276.36064 284.70063 292.20063 296.37065 301.36564 309.70564 317.20564 321.37565 324.70564 333.04563 341.38563">6 - Reduced space gradient and Hessian extraction.</tspan></text>
<text xml:space="preserve" transform="matrix(.7184874 0 0 .7184874 5.0294115 354.21427)" font-size="15" font-family="ArialMT"><tspan y="32" x="10.40625 21.236252 29.576252 37.916254 46.256254 53.756254 62.096254 70.43626 74.606258 82.106258 90.44626 98.78626 106.28626 114.62627 118.796268 129.62627 141.29627 151.30127 155.47127 163.81127 172.15126 180.49126 184.66126 197.15625 205.49625 209.66625 218.00624 230.50124 238.84123 247.18123 255.52123 258.85124 263.02125 271.36125 278.86125 287.20124 290.53123 298.87123 307.2112 311.38124 314.7112 323.0512 331.3912">Reduced space DOE and metamodel evaluation.</tspan></text>
<path transform="matrix(.7184874,0,0,.7184874,.3592437,.3592437)" stroke-width="1" stroke-linecap="butt" stroke-miterlimit="10" stroke-linejoin="miter" fill="none" stroke="#000000" d="M 551 539.75 L 551 580 L 377 580 L 377 614.63 "/>
<path transform="matrix(.7184874,0,0,.7184874,.3592437,.3592437)" d="M 377 619.88 L 373.5 612.88 L 377 614.63 L 380.5 612.88 L 377 619.88 Z "/>
<path transform="matrix(.7184874,0,0,.7184874,.3592437,.3592437)" stroke-width="1" stroke-linecap="butt" stroke-miterlimit="10" stroke-linejoin="miter" fill="none" stroke="#000000" d="M 377 619.88 L 373.5 612.88 L 377 614.63 L 380.5 612.88 L 377 619.88 Z "/>
<path transform="matrix(.7184874,0,0,.7184874,.3592437,.3592437)" d="M 416 479.75 L 685 479.75 C 685.5909 479.75 686.17617 479.80766 686.75576 479.9229 C 687.33529 480.0382 687.8981 480.20893 688.44406 480.43504 C 688.99 480.66117 689.50869 480.9384 690.00009 481.26673 C 690.49148 481.59507 690.94607 481.96815 691.3639 482.38603 C 691.78176 482.80387 692.1548 483.25846 692.4831 483.74983 C 692.8114 484.24119 693.0887 484.75984 693.3148 485.30583 C 693.54098 485.85179 693.7117 486.41456 693.82699 486.99415 C 693.94229 487.57374 693.99996 488.15904 694 488.75 L 694 530.75 C 693.99996 531.34097 693.94229 531.9262 693.82699 532.50576 C 693.7117 533.0854 693.54098 533.64816 693.3148 534.1941 C 693.0887 534.7401 692.8114 535.2588 692.4831 535.7501 C 692.1548 536.2415 691.78176 536.6961 691.3639 537.11398 C 690.94607 537.5318 690.49148 537.90487 690.00009 538.23318 C 689.50869 538.56149 688.99 538.83877 688.44406 539.0649 C 687.8981 539.291 687.33529 539.46176 686.75576 539.577 C 686.17617 539.6923 685.5909 539.74996 685 539.75 L 416 539.75 C 415.40904 539.74996 414.82377 539.6923 414.24418 539.577 C 413.66456 539.46176 413.10179 539.291 412.55583 539.0649 C 412.00984 538.83877 411.49119 538.56149 410.99983 538.23318 C 410.50846 537.90487 410.05387 537.5318 409.63603 537.11398 C 409.21815 536.6961 408.84507 536.2415 408.51676 535.7501 C 408.18843 535.2588 407.9112 534.7401 407.68504 534.1941 C 407.4589 533.64816 407.28819 533.0854 407.17289 532.50576 C 407.05763 531.9262 406.99998 531.34097 407 530.75 L 407 488.75 C 406.99998 488.15904 407.05763 487.57374 407.17289 486.9941 C 407.28819 486.41453 407.4589 485.85176 407.68504 485.3058 C 407.9112 484.75984 408.18843 484.24119 408.51676 483.74983 C 408.84507 483.25846 409.21815 482.80387 409.63603 482.38603 C 410.05387 481.96815 410.50846 481.59507 410.99983 481.26673 C 411.49119 480.93843 412.00984 480.6612 412.55583 480.43507 C 413.10179 480.20893 413.66456 480.0382 414.24418 479.9229 C 414.82377 479.80766 415.40904 479.75 416 479.75 Z " fill="#ffffff"/>
<path transform="matrix(.7184874,0,0,.7184874,.3592437,.3592437)" stroke-width="1" stroke-linecap="butt" stroke-miterlimit="4" stroke-linejoin="miter" fill="none" stroke="#000000" d="M 416 479.75 L 685 479.75 C 685.5909 479.75 686.17617 479.80766 686.75576 479.9229 C 687.33529 480.0382 687.8981 480.20893 688.44406 480.43504 C 688.99 480.66117 689.50869 480.9384 690.00009 481.26673 C 690.49148 481.59507 690.94607 481.96815 691.3639 482.38603 C 691.78176 482.80387 692.1548 483.25846 692.4831 483.74983 C 692.8114 484.24119 693.0887 484.75984 693.3148 485.30583 C 693.54098 485.85179 693.7117 486.41456 693.82699 486.99415 C 693.94229 487.57374 693.99996 488.15904 694 488.75 L 694 530.75 C 693.99996 531.34097 693.94229 531.9262 693.82699 532.50576 C 693.7117 533.0854 693.54098 533.64816 693.3148 534.1941 C 693.0887 534.7401 692.8114 535.2588 692.4831 535.7501 C 692.1548 536.2415 691.78176 536.6961 691.3639 537.11398 C 690.94607 537.5318 690.49148 537.90487 690.00009 538.23318 C 689.50869 538.56149 688.99 538.83877 688.44406 539.0649 C 687.8981 539.291 687.33529 539.46176 686.75576 539.577 C 686.17617 539.6923 685.5909 539.74996 685 539.75 L 416 539.75 C 415.40904 539.74996 414.82377 539.6923 414.24418 539.577 C 413.66456 539.46176 413.10179 539.291 412.55583 539.0649 C 412.00984 538.83877 411.49119 538.56149 410.99983 538.23318 C 410.50846 537.90487 410.05387 537.5318 409.63603 537.11398 C 409.21815 536.6961 408.84507 536.2415 408.51676 535.7501 C 408.18843 535.2588 407.9112 534.7401 407.68504 534.1941 C 407.4589 533.64816 407.28819 533.0854 407.17289 532.50576 C 407.05763 531.9262 406.99998 531.34097 407 530.75 L 407 488.75 C 406.99998 488.15904 407.05763 487.57374 407.17289 486.9941 C 407.28819 486.41453 407.4589 485.85176 407.68504 485.3058 C 407.9112 484.75984 408.18843 484.24119 408.51676 483.74983 C 408.84507 483.25846 409.21815 482.80387 409.63603 482.38603 C 410.05387 481.96815 410.50846 481.59507 410.99983 481.26673 C 411.49119 480.93843 412.00984 480.6612 412.55583 480.43507 C 413.10179 480.20893 413.66456 480.0382 414.24418 479.9229 C 414.82377 479.80766 415.40904 479.75 416 479.75 Z "/>
<text xml:space="preserve" transform="matrix(.7184874 0 0 .7184874 293.86134 347.7479)" font-size="15" font-family="ArialMT"><tspan y="14" x="2.6875 11.027501 15.197502 20.192502 24.362502 35.1925 38.522504 46.022504 50.192506 58.532506 63.527505 71.86751 80.20751 88.547519 96.047519 104.38752 111.88752 116.05752 124.39752 132.73752 141.07752 145.24752 157.74251 166.0825 174.4225 181.9225 190.2625 195.25749 203.59749 216.09249 224.43248 232.77248 236.94248 241.11248 249.45247 254.44747 259.44248 267.78248 272.77748">7 - Disturbances and measurement errors</tspan></text>
<text xml:space="preserve" transform="matrix(.7184874 0 0 .7184874 293.86134 347.7479)" font-size="15" font-family="ArialMT"><tspan y="32" x="68.53125 81.02625 89.36626 97.70626 106.046268 109.37627 113.546268 121.88627 130.22628 138.56627 146.06627 150.23627 158.57627 166.91626 171.08626 174.41626 182.75626 186.08626 190.25626 193.58626 201.92626 210.26625">magnitudes definition.</tspan></text>
<text xml:space="preserve" transform="matrix(.7184874 0 0 .7184874 293.86134 347.7479)" font-size="15" font-family="ArialMT"><tspan y="50" x="23.125 33.13 41.47 44.800004 48.970006 53.965005 65.635 73.975009 78.145008 81.475009 93.97001 97.30001 104.80001 108.13001 116.47002 124.81002 128.98003 139.81003 148.15003 156.49002 160.66002 165.65502 173.99501 177.32501 181.49501 188.99501 197.335 200.66501 208.16501 216.505 219.835 228.175 232.345 235.675 244.015 252.355">Self-Optimizing Control calculations</tspan></text>
<path transform="matrix(.7184874,0,0,.7184874,.3592437,.3592437)" d="M 264.5 621 L 488.5 621 C 489.0909 621 489.67619 621.0576 490.25578 621.1729 C 490.83537 621.2882 491.39814 621.45889 491.94413 621.685 C 492.49009 621.91116 493.00874 622.18838 493.50007 622.51669 C 493.99143 622.845 494.44609 623.2181 494.86396 623.636 C 495.2818 624.05386 495.65489 624.5084 495.9832 624.99978 C 496.31147 625.4911 496.58869 626.00979 496.81486 626.5558 C 497.04103 627.10177 497.21174 627.6645 497.32704 628.24417 C 497.44236 628.8237 497.5 629.409 497.5 630 L 497.5 672 C 497.5 672.59097 497.44236 673.1762 497.32704 673.75576 C 497.21174 674.3353 497.04103 674.89816 496.81486 675.4441 C 496.58869 675.99 496.31147 676.5086 495.98316 677 C 495.65489 677.4914 495.2818 677.946 494.86396 678.3639 C 494.44609 678.7818 493.99143 679.15487 493.50007 679.4831 C 493.00874 679.81149 492.49009 680.0887 491.94413 680.3148 C 491.39814 680.54098 490.83537 680.7117 490.25578 680.82699 C 489.67619 680.94229 489.0909 680.99996 488.5 681 L 264.5 681 C 263.90904 680.99996 263.32377 680.94229 262.74418 680.82699 C 262.16459 680.7117 261.6018 680.54098 261.05583 680.3148 C 260.50984 680.0887 259.99119 679.81149 259.49983 679.4831 C 259.00846 679.15487 258.55387 678.7818 258.13603 678.3639 C 257.71815 677.946 257.34504 677.4914 257.01673 677 C 256.6884 676.5086 256.41117 675.99 256.18504 675.4441 C 255.95888 674.89816 255.78818 674.3353 255.6729 673.75576 C 255.55764 673.1762 255.5 672.59097 255.5 672 L 255.5 630 C 255.5 629.409 255.55764 628.8237 255.67292 628.24417 C 255.78818 627.6645 255.95888 627.10177 256.18504 626.5558 C 256.41117 626.00979 256.6884 625.4911 257.01673 624.99978 C 257.34504 624.5084 257.71815 624.05386 258.13603 623.636 C 258.55387 623.2181 259.00846 622.845 259.49983 622.51669 C 259.99119 622.18838 260.50984 621.91116 261.05583 621.685 C 261.6018 621.45889 262.16459 621.2882 262.74418 621.1729 C 263.32377 621.0576 263.90904 621 264.5 621 Z " fill="#ffffff"/>
<path transform="matrix(.7184874,0,0,.7184874,.3592437,.3592437)" stroke-width="1" stroke-linecap="butt" stroke-miterlimit="4" stroke-linejoin="miter" fill="none" stroke="#000000" d="M 264.5 621 L 488.5 621 C 489.0909 621 489.67619 621.0576 490.25578 621.1729 C 490.83537 621.2882 491.39814 621.45889 491.94413 621.685 C 492.49009 621.91116 493.00874 622.18838 493.50007 622.51669 C 493.99143 622.845 494.44609 623.2181 494.86396 623.636 C 495.2818 624.05386 495.65489 624.5084 495.9832 624.99978 C 496.31147 625.4911 496.58869 626.00979 496.81486 626.5558 C 497.04103 627.10177 497.21174 627.6645 497.32704 628.24417 C 497.44236 628.8237 497.5 629.409 497.5 630 L 497.5 672 C 497.5 672.59097 497.44236 673.1762 497.32704 673.75576 C 497.21174 674.3353 497.04103 674.89816 496.81486 675.4441 C 496.58869 675.99 496.31147 676.5086 495.98316 677 C 495.65489 677.4914 495.2818 677.946 494.86396 678.3639 C 494.44609 678.7818 493.99143 679.15487 493.50007 679.4831 C 493.00874 679.81149 492.49009 680.0887 491.94413 680.3148 C 491.39814 680.54098 490.83537 680.7117 490.25578 680.82699 C 489.67619 680.94229 489.0909 680.99996 488.5 681 L 264.5 681 C 263.90904 680.99996 263.32377 680.94229 262.74418 680.82699 C 262.16459 680.7117 261.6018 680.54098 261.05583 680.3148 C 260.50984 680.0887 259.99119 679.81149 259.49983 679.4831 C 259.00846 679.15487 258.55387 678.7818 258.13603 678.3639 C 257.71815 677.946 257.34504 677.4914 257.01673 677 C 256.6884 676.5086 256.41117 675.99 256.18504 675.4441 C 255.95888 674.89816 255.78818 674.3353 255.6729 673.75576 C 255.55764 673.1762 255.5 672.59097 255.5 672 L 255.5 630 C 255.5 629.409 255.55764 628.8237 255.67292 628.24417 C 255.78818 627.6645 255.95888 627.10177 256.18504 626.5558 C 256.41117 626.00979 256.6884 625.4911 257.01673 624.99978 C 257.34504 624.5084 257.71815 624.05386 258.13603 623.636 C 258.55387 623.2181 259.00846 622.845 259.49983 622.51669 C 259.99119 622.18838 260.50984 621.91116 261.05583 621.685 C 261.6018 621.45889 262.16459 621.2882 262.74418 621.1729 C 263.32377 621.0576 263.90904 621 264.5 621 Z "/>
<text xml:space="preserve" transform="matrix(.7184874 0 0 .7184874 185.36974 449.0546)" font-size="15" font-family="ArialMT"><tspan y="14" x="36.046876 44.386877 48.556879 53.551877 57.721879 68.55188 76.891887 84.391887 92.73189 96.06189 100.23189 107.73189 111.901889 116.071887 123.571887 126.901889 134.40189 142.74188 151.08188 154.41188 157.74188 165.24188 173.58188 177.75188 181.08188 189.42188 197.76187">8 - Results  visualization.</tspan></text>
<text xml:space="preserve" transform="matrix(.7184874 0 0 .7184874 185.36974 449.0546)" font-size="15" font-family="ArialMT"><tspan y="32" x="6.046875 14.386876 22.726878 30.226878 37.726877 46.066877 53.566877 57.736879 61.90688 72.73688 76.906879 85.24688 93.58688 101.92689 106.096889 113.596889 121.93689 130.27689 137.77689 141.10689 145.27689 148.60689 156.10689 159.43689 163.60689 171.10689 175.27689 187.77188 196.11188 200.28188 205.27687 208.60688 216.10688 224.44687">Losses, H and sensitivity matrices</tspan></text>
<text xml:space="preserve" transform="matrix(.7184874 0 0 .7184874 185.36974 449.0546)" font-size="15" font-family="ArialMT"><tspan y="50" x="97.328128 102.32313 110.66313 119.003139 127.34314 132.33814 136.50814">report.</tspan></text>
<path transform="matrix(.7184874,0,0,.7184874,.3592437,.3592437)" d="M 509 69.5 L 518 69.5 L 518 72.5 L 509 72.5 L 509 69.5 Z M 527 69.5 L 536 69.5 L 536 72.5 L 527 72.5 L 527 69.5 Z M 545 69.5 L 554 69.5 L 554 72.5 L 545 72.5 L 545 69.5 Z M 563 69.5 L 572 69.5 L 572 72.5 L 563 72.5 L 563 69.5 Z M 581 69.5 L 590 69.5 L 590 72.5 L 581 72.5 L 581 69.5 Z M 599 69.5 L 608 69.5 L 608 72.5 L 599 72.5 L 599 69.5 Z M 617 69.5 L 626 69.5 L 626 72.5 L 617 72.5 L 617 69.5 Z M 635 69.5 L 644 69.5 L 644 72.5 L 635 72.5 L 635 69.5 Z M 653 69.5 L 662 69.5 L 662 72.5 L 653 72.5 L 653 69.5 Z M 671 69.5 L 680 69.5 L 680 72.5 L 671 72.5 L 671 69.5 Z M 689 69.5 L 698 69.5 L 698 72.5 L 689 72.5 L 689 69.5 Z M 707 69.5 L 712.5 69.5 L 712.5 76 L 709.5 76 L 709.5 71 L 711 71 L 711 72.5 L 707 72.5 L 707 69.5 Z M 712.5 85 L 712.5 94 L 709.5 94 L 709.5 85 L 712.5 85 Z M 712.5 103 L 712.5 112 L 709.5 112 L 709.5 103 L 712.5 103 Z M 712.5 121 L 712.5 130 L 709.5 130 L 709.5 121 L 712.5 121 Z M 712.5 139 L 712.5 148 L 709.5 148 L 709.5 139 L 712.5 139 Z M 712.5 157 L 712.5 166 L 709.5 166 L 709.5 157 L 712.5 157 Z M 712.5 175 L 712.5 184 L 709.5 184 L 709.5 175 L 712.5 175 Z M 712.5 193 L 712.5 202 L 709.5 202 L 709.5 193 L 712.5 193 Z M 712.5 211 L 712.5 220 L 709.5 220 L 709.5 211 L 712.5 211 Z M 712.5 229 L 712.5 238 L 709.5 238 L 709.5 229 L 712.5 229 Z M 712.5 247 L 712.5 256 L 709.5 256 L 709.5 247 L 712.5 247 Z M 712.5 265 L 712.5 274 L 709.5 274 L 709.5 265 L 712.5 265 Z M 712.5 283 L 712.5 292 L 709.5 292 L 709.5 283 L 712.5 283 Z M 712.5 301 L 712.5 310 L 709.5 310 L 709.5 301 L 712.5 301 Z M 712.5 319 L 712.5 328 L 709.5 328 L 709.5 319 L 712.5 319 Z M 712.5 337 L 712.5 346 L 709.5 346 L 709.5 337 L 712.5 337 Z M 712.5 355 L 712.5 364 L 709.5 364 L 709.5 355 L 712.5 355 Z M 712.5 373 L 712.5 382 L 709.5 382 L 709.5 373 L 712.5 373 Z M 712.5 391 L 712.5 400 L 709.5 400 L 709.5 391 L 712.5 391 Z M 712.5 409 L 712.5 418 L 709.5 418 L 709.5 409 L 712.5 409 Z M 712.5 427 L 712.5 436 L 709.5 436 L 709.5 427 L 712.5 427 Z M 712.5 445 L 712.5 452.5 L 708 452.5 L 708 449.5 L 711 449.5 L 711 451 L 709.5 451 L 709.5 445 L 712.5 445 Z M 699 452.5 L 690 452.5 L 690 449.5 L 699 449.5 L 699 452.5 Z M 681 452.5 L 672 452.5 L 672 449.5 L 681 449.5 L 681 452.5 Z M 663 452.5 L 654 452.5 L 654 449.5 L 663 449.5 L 663 452.5 Z M 645 452.5 L 636 452.5 L 636 449.5 L 645 449.5 L 645 452.5 Z M 627 452.5 L 618 452.5 L 618 449.5 L 627 449.5 L 627 452.5 Z M 609 452.5 L 600 452.5 L 600 449.5 L 609 449.5 L 609 452.5 Z M 591 452.5 L 582 452.5 L 582 449.5 L 591 449.5 L 591 452.5 Z M 573 452.5 L 564 452.5 L 564 449.5 L 573 449.5 L 573 452.5 Z M 555 452.5 L 546 452.5 L 546 449.5 L 555 449.5 L 555 452.5 Z M 537 452.5 L 528 452.5 L 528 449.5 L 537 449.5 L 537 452.5 Z M 519 452.5 L 510 452.5 L 510 449.5 L 519 449.5 L 519 452.5 Z M 501 452.5 L 492 452.5 L 492 449.5 L 501 449.5 L 501 452.5 Z M 489.5 443 L 489.5 434 L 492.5 434 L 492.5 443 L 489.5 443 Z M 489.5 425 L 489.5 416 L 492.5 416 L 492.5 425 L 489.5 425 Z M 489.5 407 L 489.5 398 L 492.5 398 L 492.5 407 L 489.5 407 Z M 489.5 389 L 489.5 380 L 492.5 380 L 492.5 389 L 489.5 389 Z M 489.5 371 L 489.5 362 L 492.5 362 L 492.5 371 L 489.5 371 Z M 489.5 353 L 489.5 344 L 492.5 344 L 492.5 353 L 489.5 353 Z M 489.5 335 L 489.5 326 L 492.5 326 L 492.5 335 L 489.5 335 Z M 489.5 317 L 489.5 308 L 492.5 308 L 492.5 317 L 489.5 317 Z M 489.5 299 L 489.5 290 L 492.5 290 L 492.5 299 L 489.5 299 Z M 489.5 281 L 489.5 272 L 492.5 272 L 492.5 281 L 489.5 281 Z M 489.5 263 L 489.5 254 L 492.5 254 L 492.5 263 L 489.5 263 Z M 489.5 245 L 489.5 236 L 492.5 236 L 492.5 245 L 489.5 245 Z M 489.5 227 L 489.5 218.00002 L 492.5 218.00002 L 492.5 227 L 489.5 227 Z M 489.5 208.99999 L 489.5 200 L 492.5 200 L 492.5 208.99999 L 489.5 208.99999 Z M 489.5 191 L 489.5 182 L 492.5 182 L 492.5 191 L 489.5 191 Z M 489.5 173 L 489.5 164 L 492.5 164 L 492.5 173 L 489.5 173 Z M 489.5 155 L 489.5 146 L 492.5 146 L 492.5 155 L 489.5 155 Z M 489.5 137 L 489.5 128 L 492.5 128 L 492.5 137 L 489.5 137 Z M 489.5 119 L 489.5 110 L 492.5 110 L 492.5 119 L 489.5 119 Z M 489.5 101 L 489.5 92 L 492.5 92 L 492.5 101 L 489.5 101 Z M 489.5 83 L 489.5 74 L 492.5 74 L 492.5 83 L 489.5 83 Z M 491 69.5 L 500 69.5 L 500 72.5 L 491 72.5 L 491 69.5 Z " fill="#0000ff"/>
<text fill="#0000cc" xml:space="preserve" transform="matrix(.7184874 0 0 .7184874 224.88654 5.0294115)" font-size="21" font-family="Arial" font-weight="bold"><tspan y="20" x="149.92188 167.41487 180.24587 193.07686 204.75286 210.59085">Mode 1</tspan></text>
<text fill="#0000cc" xml:space="preserve" transform="matrix(.7184874 0 0 .7184874 224.88654 5.0294115)" font-size="21" font-family="Arial" font-weight="bold"><tspan y="45" x="0 6.993 19.824002 32.655004 44.331007 57.162008 69.993007 86.33101 99.16201 105.00001 116.67601 123.66901 135.345 147.021 159.85199 171.52799 178.52098 190.19698 197.18997 208.86597 215.85897 227.53496 233.37296 246.20395 259.03495 266.02796 271.86598 290.53498 302.21098 308.04899 313.887 326.718 339.54899 345.387 358.218 365.211">(unknown steady-state optimal point)</tspan></text>
<path transform="matrix(.7184874,0,0,.7184874,0,0)" d="M 173 166 L 173 178 L 169 178 L 169 166 M 173 190 L 173 202 L 169 202 L 169 190 M 173 214 L 173 226 L 169 226 L 169 214 M 173 238 L 173 250 L 169 250 L 169 238 M 173 262 L 173 274 L 169 274 L 169 262 M 173 286 L 173 298 L 169 298 L 169 286 M 173 310 L 173 322 L 169 322 L 169 310 M 173 334 L 173 344.03 L 169 344.03 L 169 334 " fill="#ff0000"/>
<path transform="matrix(.7184874,0,0,.7184874,0,0)" d="M 171 351.53 L 166 341.53 L 171 344.03 L 176 341.53 L 171 351.53 Z " fill="#ff0000"/>
<path transform="matrix(.7184874,0,0,.7184874,0,0)" stroke-width="4" stroke-linecap="butt" stroke-miterlimit="10" stroke-linejoin="miter" fill="none" stroke="#ff0000" d="M 171 351.53 L 166 341.53 L 171 344.03 L 176 341.53 L 171 351.53 Z "/>
<text fill="#ff0000" xml:space="preserve" transform="matrix(.000000000000000043994667 -.7184874 .7184874 .000000000000000043994667 57.47899 237.8193)" font-size="21" font-family="Arial" font-weight="bold"><tspan y="20" x="33.234376 50.72738 63.55838 76.38938 88.065387 93.90338">Mode 2</tspan></text>
<text fill="#ff0000" xml:space="preserve" transform="matrix(.000000000000000043994667 -.7184874 .7184874 .000000000000000043994667 57.47899 237.8193)" font-size="21" font-family="Arial" font-weight="bold"><tspan y="45" x="32.65625 39.64925 51.325254 64.15625 76.98725 93.32526">(known</tspan></text>
<text fill="#ff0000" xml:space="preserve" transform="matrix(.000000000000000043994667 -.7184874 .7184874 .000000000000000043994667 57.47899 237.8193)" font-size="21" font-family="Arial" font-weight="bold"><tspan y="70" x="0 12.831 25.662 32.655 38.493 57.162004 68.838008 74.676 80.514 93.345 106.176 112.014 124.845 131.838">optimal point)</tspan></text>
<path transform="matrix(.7184874,0,0,.7184874,0,0)" d="M 301 99 L 313 99 L 313 103 L 301 103 M 325 99 L 337 99 L 337 103 L 325 103 M 349 99 L 361 99 L 361 103 L 349 103 M 373 99 L 385 99 L 385 103 L 373 103 M 397 99 L 409 99 L 409 103 L 397 103 M 421 99 L 433 99 L 433 103 L 421 103 M 445 99 L 457 99 L 457 103 L 445 103 M 469 99 L 469.03 99 L 469.03 103 L 469 103 " fill="#0000ff"/>
<path transform="matrix(.7184874,0,0,.7184874,0,0)" d="M 476.53 101 L 466.53 106 L 469.03 101 L 466.53 96 L 476.53 101 Z " fill="#0000ff"/>
<path transform="matrix(.7184874,0,0,.7184874,0,0)" stroke-width="4" stroke-linecap="butt" stroke-miterlimit="10" stroke-linejoin="miter" fill="none" stroke="#0000ff" d="M 476.53 101 L 466.53 106 L 469.03 101 L 466.53 96 L 476.53 101 Z "/>
</g>
</g>
</svg>
